<svg width="18" height="18" viewBox="0 0 18 18" fill="none" xmlns="http://www.w3.org/2000/svg">
<path fill-rule="evenodd" clip-rule="evenodd" d="M4.58506 1.78827C4.69514 1.72957 4.79259 1.64976 4.87183 1.5534C4.95107 1.45704 5.01055 1.34602 5.04688 1.22667C5.08322 1.10732 5.09569 0.98199 5.08358 0.857823C5.07148 0.733656 5.03504 0.613089 4.97634 0.503006C4.91764 0.392923 4.83783 0.29548 4.74147 0.21624C4.64511 0.137 4.53409 0.0775149 4.41474 0.0411815C4.29539 0.0048481 4.17006 -0.00762226 4.04589 0.00448239C3.92173 0.016587 3.80116 0.0530296 3.69108 0.111729C2.38394 0.807126 1.21802 1.74029 0.253161 2.86333C0.166392 2.95695 0.0993866 3.0671 0.0561476 3.18719C0.0129085 3.30729 -0.00567628 3.43488 0.00150366 3.56232C0.0086836 3.68976 0.0414809 3.81445 0.0979359 3.92893C0.154391 4.04342 0.233345 4.14534 0.33008 4.22862C0.426815 4.3119 0.539345 4.37483 0.660948 4.41364C0.78255 4.45245 0.910728 4.46635 1.03782 4.4545C1.16492 4.44266 1.28832 4.40531 1.40066 4.3447C1.51299 4.28409 1.61196 4.20146 1.69164 4.10174C2.50367 3.15716 3.48496 2.37255 4.58506 1.78827ZM8.88657 17.728C9.8843 17.728 10.8723 17.5315 11.794 17.1497C12.7158 16.7679 13.5534 16.2083 14.2589 15.5027C14.9644 14.7972 15.524 13.9597 15.9058 13.0379C16.2877 12.1161 16.4842 11.1282 16.4842 10.1304C16.4842 9.1327 16.2877 8.14474 15.9058 7.22296C15.524 6.30117 14.9644 5.46362 14.2589 4.75812C13.5534 4.05261 12.7158 3.49298 11.794 3.11116C10.8723 2.72935 9.8843 2.53283 8.88657 2.53283C6.87156 2.53283 4.93908 3.33329 3.51425 4.75812C2.08943 6.18294 1.28897 8.11542 1.28897 10.1304C1.28897 12.1454 2.08943 14.0779 3.51425 15.5027C4.93908 16.9276 6.87156 17.728 8.88657 17.728ZM12.7968 0.504272C12.8554 0.394053 12.9351 0.296459 13.0314 0.217068C13.1277 0.137678 13.2387 0.0780499 13.3581 0.0415929C13.4774 0.00513591 13.6028 -0.0074347 13.727 0.00459988C13.8513 0.0166345 13.9719 0.0530382 14.0821 0.111729C15.3892 0.807126 16.5551 1.74029 17.52 2.86333C17.6734 3.0554 17.7464 3.29949 17.7236 3.54429C17.7008 3.78908 17.584 4.01548 17.3977 4.17589C17.2113 4.33629 16.9701 4.41819 16.7246 4.40436C16.4792 4.39053 16.2486 4.28205 16.0815 4.10174C15.2695 3.15716 14.2882 2.37255 13.1881 1.78827C12.966 1.66978 12.8001 1.46799 12.7267 1.22724C12.6534 0.986486 12.6786 0.726457 12.7968 0.504272ZM9.67798 6.33163C9.67798 6.12174 9.5946 5.92044 9.44618 5.77202C9.29776 5.6236 9.09646 5.54022 8.88657 5.54022C8.67667 5.54022 8.47537 5.6236 8.32695 5.77202C8.17853 5.92044 8.09515 6.12174 8.09515 6.33163V10.1304C8.09515 10.5673 8.44971 10.9218 8.88657 10.9218H12.0522C12.2621 10.9218 12.4634 10.8385 12.6119 10.69C12.7603 10.5416 12.8437 10.3403 12.8437 10.1304C12.8437 9.92054 12.7603 9.71924 12.6119 9.57082C12.4634 9.4224 12.2621 9.33902 12.0522 9.33902H9.67798V6.33163Z" fill="#5F5F21"/>
</svg>
