<svg width="17" height="17" viewBox="0 0 17 17" fill="none" xmlns="http://www.w3.org/2000/svg">
<path d="M5.98152 8.16244C1.23174 9.22245 1.98739 1.48438 1.98739 1.48438C1.98739 1.48438 2.4522 1.96587 3.60663 2.65039C5.33382 3.49839 7.49281 4.1344 6.52127 5.51241C5.65441 6.74193 9.90714 7.24283 10.4074 5.83041C11.271 3.39239 16.1288 4.0284 16.1288 4.0284C16.1288 4.0284 15.3221 4.78739 14.8334 5.30041C13.8303 6.35326 14.5095 7.52643 12.4585 8.16244C11.7751 8.37435 11.108 10.2085 11.8108 10.0705C14.5095 9.54045 13.8618 16.1125 13.8618 16.1125C13.8618 16.1125 9.11205 14.7345 8.89615 12.6145C8.82852 11.9503 7.83706 12.8723 7.27691 13.2505C6.3985 13.8435 5.22587 14.5225 3.28278 14.3105C2.81433 14.2594 2.20329 14.7345 2.20329 14.7345C2.20329 14.7345 2.63508 9.64645 5.65767 10.6005C6.58858 10.8943 6.93502 7.94964 5.98152 8.16244Z" fill="url(#paint0_radial_119_10670)"/>
<path d="M9.60751 0C9.60751 0 3.23849 6.04205 7.23262 8.26807C7.39658 8.35946 6.94864 8.59499 6.80082 8.48008C4.21003 6.46606 0 9.11608 0 9.11608C0 9.11608 4.42593 12.4021 7.34057 9.96409C7.52769 9.80756 7.90048 10.4268 7.66442 10.4941C4.31798 11.4481 8.20416 16.8542 8.20416 16.8542C8.20416 16.8542 11.2267 13.7801 9.28366 10.4941C9.19638 10.3465 9.29058 9.9312 9.39161 10.0701C11.5506 13.0381 16.7322 9.43409 16.7322 9.43409C16.7322 9.43409 11.5506 5.19405 9.28366 8.48008C9.19841 8.60365 8.82836 8.34302 8.95981 8.26807C11.1228 7.03481 11.1188 3.39203 9.82341 1.59001C9.5351 0.477399 9.60751 0 9.60751 0Z" fill="#FCE0DC"/>
<path d="M6.90923 12.6382C6.31572 12.6382 7.23307 9.98818 7.23307 9.98818C7.23307 9.98818 5.18203 11.4722 4.85819 10.9422C4.55909 10.4527 6.58538 9.14017 6.58538 9.14017C6.58538 9.14017 4.10254 8.50418 4.10254 7.55015C4.10254 6.90802 7.12512 8.39817 7.12512 8.39817C7.12512 8.39817 6.26151 6.27812 7.34102 5.32413C7.70086 5.00614 8.20462 7.97418 8.20462 7.97418C8.20462 7.97418 8.85232 5.21814 9.50001 5.32413C10.1477 5.43013 9.06822 8.18616 9.06822 8.18616C9.06822 8.18616 11.1193 6.70215 11.659 7.23215C12.3067 7.86815 9.17617 9.14017 9.17617 9.14017C9.17617 9.14017 12.3067 10.497 11.5511 10.9422C11.0113 11.2602 9.06822 9.88218 9.06822 9.88218C9.06822 9.88218 9.50001 12.116 9.28412 12.2142C8.85232 12.4105 7.98872 10.0942 7.98872 10.0942C7.98872 10.0942 7.44897 12.6382 6.90923 12.6382Z" fill="#F85DB8"/>
<defs>
<radialGradient id="paint0_radial_119_10670" cx="0" cy="0" r="1" gradientUnits="userSpaceOnUse" gradientTransform="translate(9.03607 8.79844) rotate(90) scale(7.31407 7.09271)">
<stop offset="0.576923" stop-color="#FBEEE6"/>
<stop offset="1" stop-color="#D488AE"/>
</radialGradient>
</defs>
</svg>
