<svg width="378" height="268" viewBox="0 0 378 268" fill="none" xmlns="http://www.w3.org/2000/svg">
<path d="M92.0236 157.623C122.441 148.354 156.848 142.779 195.044 141.626C233.239 140.473 269.117 143.999 295.917 151.54C322.716 159.081 340.654 169.104 342.604 181.554C344.554 194.004 330.319 211.294 306.441 222.403C282.562 233.513 249.007 240.532 211.084 243.874C173.88 245.974 119.189 244.87 86.5631 240.039C73.6431 238.126 67.3662 235.658 54.9556 227.338C54.8018 227.235 54.7397 227.061 54.789 226.859L56.8333 218.468C56.9396 218.032 57.506 217.583 58.074 217.486L156.052 200.698C157.176 200.506 157.811 199.236 156.83 199.141L45.0121 188.365C44.5659 188.322 44.3916 187.977 44.4946 187.582C45.1537 185.056 44.5841 179.126 45.2309 178.009C46.0407 177.084 46.2647 177.507 46.5554 177.916L48.2118 177.799C58.8201 168.443 75.7204 162.591 92.0236 157.623Z" fill="#8D9E12"/>
<path d="M44.9193 179.605C44.4875 179.553 44.3363 179.21 44.5825 178.81C52.1977 166.429 69.8821 157.08 92.2567 150.262C122.674 140.993 157.081 135.417 195.277 134.264C233.472 133.111 269.35 136.637 296.15 144.178C322.949 151.72 340.887 161.742 342.837 174.192C344.786 186.642 330.552 203.932 306.674 215.041C282.795 226.15 249.239 233.169 211.317 236.511C174.113 238.612 119.422 237.508 86.7962 232.677C79.8509 231.649 63.8948 228.183 52.7641 217.52C52.3599 217.133 53.0182 216.303 53.8549 216.137L160.537 195.083C161.636 194.866 162.238 193.647 161.301 193.534L44.9193 179.605Z" fill="#A6B52B"/>
<path d="M202.69 192.337L149.893 229.26L192.753 191.599L88.4267 181.517L193.929 187.167L125.902 172.285L201.161 183.562L163.61 154.429L206.769 179.884L210.027 149.928L212.153 178.692L233.47 152.679L215.38 181.226L267.079 156.788L220.882 182.535L306.307 164.707L220.999 185.035L317.998 198.572L213.458 189.953L260.798 221.702L209.747 193.662L222.156 226.286L202.69 192.337Z" fill="#8D9E12"/>
<path d="M245.5 157.949C245.167 157.283 234 155.949 234 155.949L209 160.449L209.5 168.949L223.5 182.949L229 183.949L231.5 184.949L232 187.449L230 189.949L225 190.449L221 187.949L216 183.449L212.5 181.449L206.5 182.949L202.5 186.949L197.5 197.449V204.449L194 208.949L189 209.949L186 207.449V202.949L192.5 196.449L194.5 186.449H192L189.5 187.449L186.5 189.449L182 193.449L178.5 197.449L176.5 200.449L173 202.449L168.5 202.949L165.5 200.449L167 196.449L170.5 193.949L173.5 193.449L179 189.449L185 181.949L179.5 183.449L174 186.949L171.5 189.449L164 191.449L160.5 189.449L161.5 184.949L165 182.949H170.5L175.5 181.949L179 179.449L185 172.949L188 167.949L187.5 164.449L182 166.449L171 171.949L147.5 184.449L143 185.449L141 184.449L140 182.449L145 176.449H137.5L130.5 178.449L123.5 181.449H118.5L118 179.449L120.5 175.949L125 172.449H121L120.5 170.449L122 167.949L130.5 162.949L144 159.949L157 158.949L164 157.449L165 156.949L156 154.949L144 149.949L135.5 142.949L128 133.949L123 127.449L119 122.449L118.5 115.949L121 112.449L125 109.949L135 107.949L151.5 108.449L161.5 111.949L166.5 114.949L171.5 118.949L178.5 125.949L180.5 114.949L183.5 107.949L186.5 102.449L189.5 98.4487L193 93.9487L199 86.4487L201 83.4487C203 80.4487 205 74.9487 205 74.9487C205 74.9487 202.338 71.2913 201 67.9487L200 64.9487L199.5 63.4487C199.5 63.4487 199 59.4487 199.5 56.4487C199.628 55.6783 199.5 54.4487 199.5 54.4487L201.5 49.4487L205 43.9487L212.5 35.9487L218 29.4487L219.5 25.4487L221.5 19.9487L225 12.4487C225 12.4487 227.57 9.79233 229.5 8.44873C231.15 7.29994 234 5.94873 234 5.94873L237.5 6.94873L242.5 10.4487V6.94873L243.5 3.94873L246 1.44873L249.5 0.44873L254.5 1.94873L266 10.4487L273 15.4487L286 19.4487L290.5 20.9487L294.5 24.9487L297 31.9487V38.9487C294.622 53.1664 284.555 69.8665 278.5 78.9487C271.5 89.4487 273 85.9487 270 92.4487C265.725 101.71 266.5 116.449 266.5 116.449C266.5 116.449 281 104.949 293 104.949C301.453 104.949 308.5 103.949 314.5 106.949C316.723 108.06 319 110.949 319 110.949C319 110.949 320.223 113.504 319 115.949C316.5 120.949 310 127.949 310 127.949C310 127.949 301.677 138.54 294.5 142.949C287.449 147.28 274.5 149.949 274.5 149.949L296 150.449C296 150.449 304.873 151.609 310 153.949C314.483 155.995 322 157.949 320.5 160.949C320.063 161.822 319 162.449 319 162.449C319 162.449 321.504 163.957 321 165.449C320.424 167.154 318.246 166.885 316.5 166.449C312.5 165.449 311.348 165.34 308 164.949C304.504 164.54 299 164.449 299 164.449C299 164.449 305.587 167.672 304 169.949C303.349 170.883 302 170.449 302 170.449C302 170.449 294.031 170.857 289.5 168.949C280 164.949 264.5 161.449 264.5 161.449L264 162.449L275.5 171.949C275.5 171.949 284.318 177.06 290.5 178.949C293.943 180.001 298.119 177.924 299.5 180.949C300.149 182.37 299.781 182.096 299 183.449C298.213 184.812 295.5 185.449 295.5 185.449L299 186.449C299 186.449 299.788 188.365 299.5 189.949C298.856 193.491 291.424 193.55 288.5 191.449C272.5 179.949 266.5 179.449 266.5 179.449C266.5 179.449 267.067 181.142 268 182.449C273 189.449 284 191.449 280 195.949C278.236 197.934 276.52 197.789 274 196.949C270.246 195.697 267.208 189.525 262.5 184.449C257.802 179.382 251.433 175.41 249 175.949C244.128 177.028 238 182.449 238 182.449C238 182.449 231.889 184.937 230 182.449C229.141 181.316 228.384 180.23 229 178.949C229.568 177.768 230.709 177.669 232 177.449C233.361 177.216 233.126 177.586 234.5 177.449C239.5 176.949 242.5 167.949 245.5 165.449C246.043 164.996 246 158.949 245.5 157.949Z" fill="#808731"/>
<path d="M248 8.9492C246.919 11.3195 249 16.9493 249 16.9493C249 16.9493 249.09 12.9777 251 11.4492C253.5 9.44897 260 11.4492 260 11.4492C260 11.4492 256.5 8.94894 252 7.949C250.243 7.55851 248.747 7.31126 248 8.9492Z" fill="#4C5236"/>
<path d="M246.5 26.9482C248.693 30.4238 247.251 36.3196 241.5 39.9482C238.678 41.7288 235.421 42.4359 232.727 42.085C230 41.9487 224.452 38.9582 223.5 37.4488C222.5 35.9487 226.979 34.2726 228.71 31.6053C229.722 30.046 231.192 28.5824 233.033 27.4213C238.021 24.2738 244.307 23.4727 246.5 26.9482Z" fill="#F8E498"/>
<path d="M270.868 21.8607C271.931 25.8303 269.632 31.0745 264.5 32.4488C261.982 33.1232 259.419 32.3665 257.393 31.1139C255.301 30.0484 251.962 26.6729 251.5 24.949C251 23.2172 254.367 21.9087 256.202 20.0385C257.274 18.9453 258.684 18.0982 260.327 17.6584C264.778 16.4663 269.805 17.8911 270.868 21.8607Z" fill="#F8E498"/>
<path d="M215 56.9487C216.413 53.9011 218.5 52.9487 218.5 52.9487C218.5 52.9487 231.627 60.6234 260 54.9487C277.5 51.4487 285 31.9487 285 31.9487C285 31.9487 287.448 32.3457 288.5 34.4487C290.5 38.4487 289.168 47.2754 287.5 53.9487C284.5 65.9487 280.975 71.5752 275 82.9487C271.869 88.9094 268.468 94.1843 266 100.449C259.5 116.949 259.755 124.101 249.5 140.949C235.5 163.949 209.5 160.449 209.5 160.449L205.5 136.949C205.5 136.949 206.641 132.3 207.5 128.949C212.5 109.449 221.138 104.697 221 88.4487C220.9 76.7009 210.057 67.6067 215 56.9487Z" fill="url(#paint0_radial_101_11774)"/>
<path d="M143.5 107.449C146.669 107.702 149.564 106.927 151.5 109.449C151.884 109.949 151.995 112.981 151 115.949C149.376 120.794 145.819 128.15 141 126.449C137.034 125.048 139.779 120.26 138 116.449C136.411 113.045 133.797 108.027 134.5 107.949C139 107.449 139.602 107.137 143.5 107.449Z" fill="#5F5F21"/>
<path d="M297.041 104.571C293.58 104.82 290.647 104.571 288 105.949C287.428 106.247 287.763 109.996 288.849 112.906C290.624 117.658 294.508 124.872 299.772 123.203C304.104 121.83 302.56 117.661 302.5 113.449C302.451 110.001 302.768 104.648 302 104.571C297.085 104.081 301.299 104.265 297.041 104.571Z" fill="#5F5F21" fill-opacity="0.7"/>
<path d="M174 121.449C177 124.449 177 123.949 178.5 126.449C178.824 126.989 177.999 129.7 176.5 132.448C173.5 137.948 167.437 142.707 163.5 139.449C160.26 136.766 163.12 132.942 164.681 129.036C166.073 125.549 169.924 118.038 170.5 118.449C174 120.949 171.235 118.684 174 121.449Z" fill="#5F5F21"/>
<path d="M267 116.449C266 117.449 266.5 119.533 266.5 122.449L266.5 127.949C266.5 134.214 274.138 137.446 278.075 134.187C281.315 131.505 279.06 125.355 277.5 121.449C276.107 117.962 274.576 111.038 274 111.449C270.5 113.949 269.85 113.599 267 116.449Z" fill="#5F5F21" fill-opacity="0.7"/>
<path d="M263.679 162.413C263.65 162.542 263.674 162.677 263.746 162.789C263.818 162.9 263.932 162.979 264.063 163.007C264.193 163.035 264.329 163.01 264.441 162.939C264.552 162.867 264.63 162.753 264.657 162.623C264.657 162.623 264.657 162.623 264.657 162.623C264.891 161.496 265.1 160.404 265.297 159.272C269.159 139.042 264.598 118.5 268.038 98.3533C268.227 97.2332 268.434 96.1345 268.668 95.0181C268.418 96.131 268.194 97.2267 267.989 98.3447C264.252 118.463 268.494 139.143 264.362 159.102C264.15 160.221 263.928 161.299 263.679 162.413Z" fill="#6C772B"/>
<path d="M207.668 78.0179C204.811 74.9224 202.363 71.3983 200.878 67.4599C199.308 63.3613 198.941 58.8311 199.848 54.5539C202.212 44.1496 212.28 38.467 217.961 29.7066C222.164 23.694 221.668 15.7893 226.988 10.8C228.768 9.01373 230.951 7.21614 233.283 6.45202C236.68 5.83806 239.897 8.81927 242.312 11.3302L243.457 12.6362L243.133 10.9294C242.853 9.1841 242.665 7.26943 243.127 5.66567C243.834 3.24213 245.731 1.26846 248.237 1.0054C253.249 0.574782 257.586 4.51494 261.653 7.54739C265.017 10.1979 268.339 12.9492 271.884 15.4234C279.767 19.6152 290.508 18.1073 294.759 26.2104C300.383 40.1152 291.641 54.6715 285.417 67.3851C280.438 76.2654 272.976 83.5361 265.798 90.7634C262.797 93.7233 259.744 96.6328 256.668 99.5179C259.789 96.6818 262.886 93.8181 265.931 90.8996C273.219 83.7615 280.762 76.6169 285.919 67.6508C292.241 54.9576 301.34 40.5233 295.577 25.8254C290.878 16.9809 279.586 18.5653 272.451 14.6127C268.952 12.1623 265.651 9.42497 262.27 6.7611C258.142 3.74388 253.912 -0.397255 248.098 0.0306679C245.244 0.30212 242.923 2.75404 242.208 5.37011C241.664 7.34687 241.907 9.22724 242.202 11.1064L243.024 10.7055C240.421 8.1101 237.357 4.90277 233.052 5.58388C230.321 6.52003 228.293 8.28252 226.347 10.2359C220.895 15.4503 221.384 23.5903 217.374 29.3293C211.922 37.9589 201.794 43.8139 199.488 54.4819C198.622 58.8347 199.06 63.423 200.701 67.5282C202.254 71.4745 204.763 74.9678 207.668 78.0179Z" fill="#6C772B"/>
<path d="M224.691 50.7041C224.736 50.691 224.777 50.6648 224.805 50.6266C224.833 50.5885 224.845 50.542 224.84 50.4964C224.834 50.4508 224.81 50.409 224.774 50.3789C224.737 50.3489 224.691 50.3337 224.645 50.332C224.645 50.332 224.645 50.332 224.645 50.332C224.372 50.3275 224.107 50.3393 223.84 50.3602C222.774 50.4464 221.722 50.6908 220.726 51.0743C219.374 51.596 218.077 52.2784 216.903 53.1434C215.047 54.5206 213.558 56.2956 212.392 58.2307C212.256 58.4599 212.127 58.6876 212.005 58.9258C211.983 58.9692 211.978 59.0195 211.991 59.0665C212.005 59.1135 212.036 59.1532 212.078 59.177C212.12 59.2008 212.17 59.207 212.218 59.1944C212.265 59.1818 212.305 59.1512 212.331 59.1103C212.331 59.1103 212.331 59.1103 212.331 59.1103C212.467 58.9041 212.619 58.6904 212.772 58.4825C214.092 56.7149 215.647 55.1131 217.433 53.8927C218.568 53.1229 219.802 52.5029 221.086 52.0074C222.032 51.6435 222.987 51.2874 223.962 50.9477C224.204 50.8637 224.453 50.7789 224.691 50.7041Z" fill="#6C772B"/>
<path d="M291.551 32.1646C291.592 32.1852 291.639 32.1954 291.685 32.1885C291.731 32.1816 291.772 32.1588 291.8 32.1237C291.828 32.0886 291.841 32.0435 291.838 31.9971C291.834 31.9506 291.814 31.9072 291.785 31.8718C291.785 31.8718 291.785 31.8718 291.785 31.8718C291.646 31.7102 291.505 31.5642 291.354 31.4217C290.753 30.855 290.053 30.3918 289.275 30.0781C288.464 29.7536 287.586 29.5281 286.668 29.5423C284.633 29.5768 282.595 30.2144 281.006 31.4658C280.844 31.5959 280.692 31.7257 280.54 31.8813C280.507 31.9166 280.487 31.9628 280.486 32.0114C280.485 32.06 280.503 32.1069 280.536 32.1419C280.569 32.1769 280.614 32.1977 280.663 32.1999C280.711 32.2021 280.759 32.1853 280.796 32.1549C280.796 32.1549 280.796 32.1549 280.796 32.1549C280.936 32.0483 281.103 31.9381 281.267 31.8392C282.906 30.8674 284.802 30.4552 286.668 30.4938C287.416 30.5107 288.174 30.7138 288.902 31.006C289.6 31.2874 290.301 31.5955 291.018 31.9184C291.196 31.9989 291.379 32.0827 291.551 32.1646Z" fill="#6C772B"/>
<path d="M285.668 30.5181C285.668 30.5181 280.623 48.952 262.168 54.0181C236.668 61.0181 218.168 53.0181 218.168 53.0181" stroke="#6C772B" stroke-linecap="round"/>
<path d="M276.668 57.5181C276.507 57.8559 276.338 58.1975 276.171 58.53C274.71 61.3876 273.221 64.2686 271.281 66.7025C271.184 66.8208 271.08 66.9431 270.977 67.0612C268.777 69.5075 266.143 71.6506 263.543 73.8095C263.252 74.0474 262.956 74.2881 262.668 74.5181C262.993 74.3436 263.325 74.1548 263.651 73.9657C266.571 72.2383 269.402 70.3036 271.73 67.7189C271.84 67.5932 271.951 67.4619 272.055 67.3336C274.108 64.7091 275.351 61.6688 276.347 58.6013C276.459 58.245 276.569 57.8793 276.668 57.5181Z" fill="#6C772B"/>
<path d="M269.168 36.0181C268.835 35.8864 268.475 35.8043 268.117 35.7359C265.079 35.226 261.971 35.7344 259.031 36.539C258.815 36.5995 258.593 36.669 258.38 36.7414C255.224 37.8703 252.509 39.7531 249.989 41.8124C249.711 42.0436 249.431 42.2817 249.168 42.5181C249.47 42.3354 249.786 42.1494 250.098 41.9681C252.911 40.3591 255.738 38.7447 258.703 37.688C258.901 37.6203 259.107 37.5548 259.305 37.497C262.179 36.679 265.086 35.9259 268.097 35.9249C268.455 35.9331 268.818 35.9509 269.168 36.0181Z" fill="#6C772B"/>
<path d="M236.168 16.5181C236.713 16.8675 237.274 17.2552 237.802 17.6361C240.973 19.9946 244.264 22.6473 245.743 26.1855C246.399 27.9431 246.704 29.8387 246.742 31.7265C246.77 33.2986 246.606 34.8774 246.214 36.3944C245.237 40.4998 242.128 43.9657 238.062 45.4601C237.444 45.6933 236.81 45.8934 236.168 46.0181C236.82 45.9593 237.476 45.8196 238.121 45.6406C242.355 44.5324 245.986 41.0036 247.121 36.6418C247.578 35.0372 247.771 33.3681 247.742 31.708C247.701 29.714 247.352 27.7153 246.593 25.8507C244.801 21.9618 241.294 19.5682 237.906 17.4771C237.342 17.1448 236.747 16.8097 236.168 16.5181Z" fill="#6C772B"/>
<path d="M260 11.4487C259.219 11.2436 258.458 11.072 257.71 10.9407C254.765 10.3668 250.78 10.4805 249.948 13.5917C249.145 16.4789 250.048 19.6553 250.819 22.644C251.003 23.3181 251.277 23.9734 251.613 24.6012C252.912 26.992 254.956 28.992 257.249 30.527C260.629 32.8603 265.135 33.3941 269.063 31.8912C269.794 31.6199 270.511 31.2986 271.175 30.8916C270.547 31.3545 269.853 31.7362 269.136 32.0668C265.302 33.9016 260.439 33.6349 256.781 31.259C254.33 29.7221 252.148 27.6732 250.73 25.0723C250.365 24.388 250.063 23.6626 249.862 22.9001C249.118 19.8576 248.205 16.5971 249.237 13.3459C249.76 11.717 251.366 10.5359 252.985 10.3443C254.622 10.0981 256.204 10.3686 257.75 10.755C258.492 10.9463 259.239 11.1799 260 11.4487Z" fill="#6C772B"/>
<path d="M249.08 18.0504C249.089 18.0733 249.106 18.092 249.129 18.1023C249.151 18.1126 249.177 18.1137 249.2 18.1053C249.223 18.0969 249.242 18.0796 249.252 18.0572C249.263 18.0349 249.264 18.0093 249.256 17.986C249.256 17.986 249.256 17.986 249.256 17.986C248.971 17.1179 248.721 16.2133 248.507 15.3142C248.038 12.9489 247.217 9.95629 248.818 8.20564C249.649 7.58241 250.903 7.77767 251.987 8.03558C254.824 8.79471 257.469 10.2577 260.046 11.728C264.065 14.1695 268.663 16.6538 270.477 21.0818C271.378 24.0665 270.627 27.5374 268.552 29.9181C267.281 31.4362 265.402 32.3957 263.427 32.5795C262.514 32.67 261.574 32.631 260.693 32.4277C260.669 32.4213 260.643 32.4245 260.622 32.4368C260.6 32.449 260.584 32.4693 260.578 32.4932C260.571 32.5171 260.574 32.5426 260.587 32.5642C260.599 32.5858 260.619 32.6017 260.643 32.6084C260.643 32.6084 260.643 32.6084 260.643 32.6084C261.56 32.8345 262.508 32.8853 263.448 32.8062C265.476 32.6479 267.447 31.6773 268.783 30.118C270.952 27.6787 271.783 24.1198 270.859 20.9546C268.957 16.2536 264.318 13.7899 260.29 11.3083C257.697 9.82025 255.054 8.34155 252.108 7.55031C250.975 7.29796 249.636 7.01199 248.518 7.83059C246.584 10.1181 247.704 12.9853 248.217 15.3884C248.465 16.2887 248.752 17.1854 249.08 18.0504Z" fill="#6C772B"/>
<path d="M247.34 33.593C247.225 33.543 247.111 33.4931 246.996 33.4432C246.784 33.8788 246.561 34.3037 246.324 34.7224C244.286 38.5739 240.539 41.1873 236.301 41.8009C235.745 41.8973 235.19 41.9699 234.623 42.0245C231.022 42.2977 227.486 40.3736 224.44 38.2502C224.05 37.971 223.661 37.6806 223.295 37.3798C223.257 37.3485 223.209 37.3317 223.16 37.3342C223.111 37.3367 223.066 37.3582 223.033 37.3941C223 37.4299 222.982 37.4775 222.984 37.5265C222.986 37.5756 223.007 37.6218 223.041 37.6563C223.041 37.6563 223.041 37.6563 223.041 37.6563C223.397 38.0034 223.762 38.3248 224.137 38.6403C227.069 41.0212 230.601 43.2519 234.713 43.0116C235.305 42.9607 235.887 42.8876 236.472 42.7861C240.943 42.1735 245.027 39.0447 246.762 34.9491C246.972 34.5025 247.163 34.0521 247.34 33.593Z" fill="#6C772B"/>
<path d="M239.168 13.018C239.165 11.7605 237.668 11.5181 236.168 11.5181C232.168 11.5181 226.168 23.518 223.668 30.018C226.668 25.518 230.168 20.018 233.168 18.0166L233.252 17.9609C236.223 15.9784 239.17 14.0124 239.168 13.018Z" fill="#4C5236"/>
<path d="M223.168 37.518C223.168 37.518 222.668 37.018 222.668 36.518C222.668 34.2819 223.168 31.018 223.668 30.018M223.668 30.018C226.168 23.518 232.168 11.5181 236.168 11.5181C237.668 11.5181 239.165 11.7605 239.168 13.018C239.17 14.0217 236.168 16.0153 233.168 18.0166C230.168 20.018 226.668 25.518 223.668 30.018Z" stroke="#6C772B" stroke-width="0.5" stroke-linecap="round"/>
<path d="M178.17 126.476C178.502 126.504 178.834 126.532 179.166 126.56C179.245 125.603 179.352 124.624 179.472 123.652C180.051 119.231 180.796 114.753 182.498 110.665C187.15 98.1287 198.658 89.9256 204.184 77.8016C204.559 76.8887 204.884 75.9691 205.168 75.0181C204.868 75.9642 204.528 76.8773 204.138 77.7822C198.447 89.7566 186.775 97.774 181.838 110.372C180.009 114.572 179.194 119.064 178.53 123.527C178.392 124.51 178.268 125.487 178.17 126.476Z" fill="#6C772B"/>
<path d="M184.506 135.111C184.614 135.049 184.722 134.986 184.83 134.923C183.512 132.612 182.056 130.376 180.467 128.237C171.459 115.891 156.929 106.503 141.155 107.05C136.881 107.163 132.577 107.432 128.357 108.417C124.33 109.393 119.371 111.281 118.257 116.021C118.226 116.156 118.199 116.294 118.175 116.433C116.736 123.99 123.849 128.551 127.273 133.79C131.011 139.464 135.96 144.353 141.413 148.35C150.032 154.52 160.55 156.659 170.737 158.301C173.358 158.685 176.029 159.008 178.654 159.205C178.663 159.08 178.672 158.955 178.681 158.831C176.08 158.594 173.416 158.233 170.812 157.813C160.696 156.047 150.226 153.746 141.923 147.686C136.51 143.642 131.762 138.894 128.063 133.246C124.428 127.783 117.778 123.371 119.16 116.603C119.181 116.481 119.205 116.362 119.232 116.244C120.134 112.193 124.633 110.324 128.586 109.373C132.682 108.406 136.94 108.117 141.18 107.985C156.578 107.371 170.946 116.401 180.073 128.534C181.679 130.634 183.159 132.834 184.506 135.111Z" fill="#6C772B"/>
<path d="M165.242 157.19C165.193 157.075 165.143 156.961 165.094 156.846C164.257 157.164 163.358 157.42 162.478 157.644C160.554 158.127 158.595 158.455 156.625 158.667C150.478 159.298 144.258 159.482 138.078 160.526C137.977 160.545 137.877 160.564 137.776 160.583C131.603 161.821 125.521 164.319 120.916 168.766C120.016 169.606 119.842 171.105 120.392 172.142C120.854 172.828 121.425 172.759 121.916 172.861C122.418 172.921 122.914 172.929 123.406 172.922C124.34 172.903 125.27 172.824 126.19 172.704C126.175 172.58 126.161 172.456 126.146 172.332C125.242 172.408 124.315 172.447 123.408 172.428C122.93 172.416 122.45 172.388 121.993 172.316C121.557 172.254 121.007 172.08 120.944 171.894C120.526 170.978 120.698 169.928 121.42 169.27C125.962 165.14 131.956 162.764 137.964 161.565C138.062 161.546 138.16 161.528 138.258 161.51C144.313 160.482 150.546 160.194 156.711 159.369C158.703 159.092 160.678 158.689 162.608 158.12C163.495 157.855 164.382 157.563 165.242 157.19Z" fill="#6C772B"/>
<path d="M168.746 165.188C168.694 165.075 168.642 164.961 168.59 164.847C167.246 165.436 165.913 166.049 164.581 166.658C161.295 168.16 157.998 169.645 154.56 170.667C148.706 172.515 143.757 176.488 140.111 181.384C139.259 182.52 139.738 184.139 140.563 184.995C142.437 186.466 144.501 186.12 146.359 185.479C146.963 185.23 147.551 184.98 148.149 184.717C160.326 179.393 170.995 171.419 183.162 166.338C184.513 165.76 185.856 165.217 187.232 164.694C187.189 164.577 187.147 164.459 187.104 164.342C185.709 164.827 184.345 165.336 182.974 165.882C170.606 170.683 159.773 178.552 147.747 183.802C147.155 184.061 146.574 184.309 145.977 184.556C144.499 185.156 142.324 185.212 141.296 184.342C140.641 183.63 140.383 182.643 140.904 181.93C144.353 177.22 149.186 173.234 154.776 171.368C158.258 170.261 161.544 168.691 164.792 167.104C166.109 166.461 167.422 165.813 168.746 165.188Z" fill="#6C772B"/>
<path d="M154.691 163.204C154.675 163.08 154.66 162.956 154.645 162.832C153.458 162.958 152.267 163.12 151.087 163.298C146.013 164.098 140.97 165.075 136.032 166.609C130.62 168.389 125.665 171.336 121.282 174.934C120.428 175.644 119.605 176.377 118.816 177.166C117.859 178.216 117.135 179.635 117.723 181.218C118.446 182.412 119.572 182.293 120.433 182.349C121.336 182.343 122.212 182.207 123.071 181.965C128.176 180.544 132.589 177.56 137.714 176.826C139.143 176.598 140.619 176.551 142.09 176.556C143.275 176.564 144.472 176.612 145.648 176.705C145.661 176.58 145.674 176.456 145.687 176.332C144.498 176.196 143.299 176.108 142.1 176.062C140.613 176.011 139.119 176.013 137.622 176.21C132.32 176.832 127.76 179.776 122.82 181.072C122.047 181.281 121.228 181.398 120.436 181.395C119.677 181.403 118.753 181.2 118.613 180.818C118.242 179.953 118.767 178.634 119.52 177.87C120.281 177.113 121.086 176.398 121.921 175.703C126.212 172.18 131.056 169.248 136.304 167.427C141.126 165.84 146.149 164.738 151.168 163.785C152.337 163.571 153.517 163.37 154.691 163.204Z" fill="#6C772B"/>
<path d="M186.01 156.492C186.135 156.535 186.273 156.526 186.391 156.466C186.51 156.407 186.6 156.303 186.642 156.176C186.684 156.05 186.675 155.912 186.616 155.793C186.556 155.675 186.452 155.585 186.326 155.544C186.326 155.544 186.326 155.544 186.326 155.544C185.331 155.218 184.36 154.918 183.363 154.628C173.013 151.807 162.248 150.415 153.339 144.246C146.64 140.284 141.542 134.17 134.886 129.989C134.028 129.428 133.157 128.887 132.264 128.357C132.222 128.332 132.171 128.325 132.123 128.337C132.075 128.349 132.033 128.38 132.008 128.422C131.983 128.465 131.975 128.515 131.987 128.563C131.999 128.612 132.029 128.653 132.072 128.679C132.072 128.679 132.072 128.679 132.072 128.679C132.954 129.215 133.815 129.761 134.662 130.328C141.218 134.532 146.248 140.698 152.997 144.79C161.887 151.099 172.958 152.682 183.088 155.557C184.072 155.854 185.029 156.16 186.01 156.492Z" fill="#6C772B"/>
<path d="M202.341 96.0902C202.36 96.0443 202.36 95.9928 202.341 95.947C202.322 95.9012 202.286 95.8647 202.24 95.8457C202.194 95.8266 202.143 95.8265 202.097 95.8453C202.051 95.8642 202.014 95.9004 201.995 95.946C201.995 95.946 201.995 95.946 201.995 95.946C200.982 98.3217 199.921 100.678 198.834 103.022C195.311 110.796 191.144 118.259 188.287 126.401C185.075 138.055 185.601 150.21 186.676 162.08C187.03 164.912 187.617 167.703 188.369 170.448C188.622 171.366 188.888 172.268 189.196 173.182L189.212 172.814C187.629 176.235 185.923 179.676 183.772 182.73C180.871 186.759 177.785 190.763 173.447 193.12C172.126 193.35 169.908 193.494 168.407 194.666C166.341 196.05 164.258 199.074 165.804 201.7C167.371 203.682 169.648 203.25 171.533 203.094C173.461 202.797 175.399 202.134 176.905 200.777C178.099 199.421 178.372 197.81 179.397 196.747C182.099 194.026 184.466 190.987 187.588 188.842C188.87 187.957 190.265 187.239 191.737 186.718C192.614 186.461 193.672 186.579 194.638 186.703C194.686 186.711 194.737 186.699 194.777 186.67C194.817 186.641 194.844 186.597 194.852 186.549C194.86 186.5 194.849 186.45 194.82 186.409C194.791 186.369 194.747 186.342 194.699 186.333C194.699 186.333 194.699 186.333 194.699 186.333C193.685 186.194 192.675 186.031 191.599 186.318C190.085 186.828 188.639 187.544 187.311 188.433C184.074 190.592 181.644 193.637 178.94 196.29C177.749 197.533 177.37 199.258 176.432 200.259C173.802 202.454 168.838 203.447 166.533 201.336C165.283 199.137 166.932 196.746 168.929 195.37C170.295 194.355 171.81 194.364 173.889 193.916C178.435 191.482 181.652 187.323 184.564 183.306C186.809 180.133 188.51 176.701 190.124 173.222L190.205 173.041L190.14 172.854C189.847 171.985 189.581 171.083 189.333 170.183C188.593 167.481 188.012 164.73 187.66 161.957C186.572 150.228 186.004 138.052 189.049 126.635C191.772 118.629 195.873 111.047 199.283 103.227C200.338 100.863 201.365 98.4868 202.341 96.0902Z" fill="#6C772B"/>
<path d="M196.668 179.518C194.168 186.518 192.668 196.518 192.668 196.518C192.668 196.518 185.668 201.518 185.668 205.018C185.668 207.503 187.696 210.278 190.168 210.018C199.668 209.018 197.668 198.018 197.668 198.018C197.668 198.018 200.814 183.947 209.168 182.018C217.522 180.089 219.668 190.018 226.168 190.518C229.088 190.743 232.36 189.441 232.168 186.518C231.872 182.018 225.337 184.808 223.168 182.518C214.168 173.018 209.668 169.018 209.668 169.018C209.668 169.018 208.938 154.191 207.168 144.518C205.873 137.442 204.518 133.403 202.668 127.346C202.35 126.305 202.017 125.204 201.668 124.018" stroke="#6C772B" stroke-linecap="round"/>
<path d="M185.015 182.136C185.005 182.011 184.995 181.886 184.984 181.762C183.878 181.831 182.775 182.043 181.72 182.393C179.043 183.281 176.773 184.931 174.332 186.121C172.535 187.05 171.831 188.995 170.337 189.555C167.581 190.584 163.888 191.992 161.869 190.129C160.981 189.001 161.159 187.057 161.936 185.692C162.096 185.406 162.289 185.143 162.514 184.911C164.045 183.36 166.645 183.41 168.991 183.433C169.848 183.455 170.67 183.39 171.485 183.421C176.329 182.757 179.819 179.532 182.765 176.17C184.131 174.495 185.384 172.723 186.497 170.877C187.067 169.939 187.612 168.993 188.16 168.046C188.053 167.981 187.946 167.916 187.839 167.852C187.255 168.778 186.677 169.702 186.08 170.613C184.912 172.407 183.629 174.107 182.235 175.728C179.379 178.899 175.562 181.995 171.514 182.477C170.66 182.435 169.822 182.492 169.01 182.464C166.661 182.452 163.835 182.232 161.796 184.215C161.508 184.511 161.262 184.848 161.064 185.205C160.174 186.86 159.82 189.033 161.131 190.768C162.499 192.241 164.486 192.041 166.042 191.797C167.658 191.505 169.186 190.966 170.663 190.343C172.584 189.484 173.211 187.506 174.668 186.777C177.139 185.491 179.339 183.797 181.882 182.859C182.888 182.487 183.942 182.244 185.015 182.136Z" fill="#6C772B"/>
<path d="M202.205 126.829C202.154 126.952 202.153 127.089 202.205 127.211C202.256 127.333 202.355 127.431 202.479 127.481C202.603 127.532 202.742 127.531 202.864 127.48C202.987 127.428 203.082 127.33 203.131 127.207C203.131 127.207 203.131 127.207 203.131 127.207C203.322 126.719 203.493 126.257 203.672 125.765C206.787 117.084 209.157 108.155 210.622 99.0632C210.702 98.5602 210.779 98.055 210.853 97.547C210.86 97.4983 210.848 97.4485 210.818 97.4087C210.789 97.3689 210.745 97.3423 210.697 97.3347C210.648 97.3271 210.598 97.3391 210.558 97.3681C210.518 97.397 210.491 97.4406 210.483 97.4891C210.483 97.4891 210.483 97.4891 210.483 97.4891C210.399 97.9939 210.311 98.4958 210.222 98.9954C208.578 108.023 206.032 116.874 202.766 125.424C202.579 125.905 202.397 126.366 202.205 126.829Z" fill="#6C772B"/>
<path d="M208.995 105.417C208.968 105.463 208.959 105.517 208.973 105.568C208.986 105.619 209.021 105.664 209.067 105.691C209.114 105.718 209.169 105.726 209.22 105.712C209.272 105.699 209.315 105.665 209.341 105.619C209.341 105.619 209.341 105.619 209.341 105.619C209.397 105.518 209.454 105.417 209.51 105.316C210.528 103.497 211.546 101.678 212.563 99.859C212.62 99.758 212.676 99.6569 212.733 99.5559C212.742 99.5388 212.745 99.5185 212.739 99.4995C212.734 99.4804 212.722 99.4643 212.705 99.4544C212.688 99.4446 212.668 99.4418 212.649 99.4467C212.63 99.4515 212.613 99.4636 212.603 99.4803C212.603 99.4803 212.603 99.4803 212.603 99.4803C212.543 99.5792 212.483 99.6782 212.423 99.7771C211.34 101.558 210.258 103.339 209.176 105.12C209.115 105.219 209.055 105.318 208.995 105.417Z" fill="#6C772B"/>
<path d="M195.115 169.465C195.103 169.48 195.095 169.498 195.096 169.518C195.096 169.537 195.104 169.555 195.117 169.569C195.131 169.582 195.149 169.59 195.168 169.59C195.188 169.591 195.206 169.583 195.221 169.571C195.221 169.571 195.221 169.571 195.221 169.571C195.293 169.51 195.37 169.45 195.447 169.391C196.143 168.87 196.891 168.418 197.637 167.97C198.387 167.526 199.142 167.086 199.927 166.709C200.016 166.667 200.104 166.627 200.192 166.589C200.209 166.582 200.224 166.568 200.232 166.551C200.241 166.533 200.242 166.513 200.236 166.495C200.23 166.477 200.217 166.462 200.2 166.453C200.183 166.444 200.163 166.442 200.144 166.447C200.144 166.447 200.144 166.447 200.144 166.447C200.049 166.47 199.953 166.496 199.857 166.525C199.002 166.783 198.196 167.174 197.433 167.626C196.672 168.083 195.942 168.603 195.315 169.244C195.246 169.316 195.178 169.39 195.115 169.465Z" fill="#6C772B"/>
<path d="M209.746 160.024C209.615 160.003 209.481 160.035 209.374 160.113C209.267 160.191 209.195 160.309 209.174 160.44C209.153 160.572 209.185 160.706 209.263 160.813C209.341 160.92 209.459 160.992 209.59 161.012C209.59 161.012 209.59 161.012 209.59 161.012C211.885 161.366 214.214 161.461 216.524 161.33C223.96 160.896 231.114 158.246 237.376 154.354C261.029 137.444 259.429 105.092 275.747 83.0718C279.338 77.6794 283.214 72.4586 286.194 66.6936C287.257 64.6708 288.235 62.6106 289.168 60.5181C288.22 62.6038 287.227 64.6564 286.15 66.6702C283.13 72.4093 279.221 77.5941 275.588 82.9644C259.128 104.907 260.226 137.443 236.96 153.682C230.768 157.471 223.715 160.013 216.474 160.382C214.224 160.492 211.964 160.383 209.746 160.024Z" fill="#6C772B"/>
<path d="M257.719 159.838C257.672 159.825 257.621 159.832 257.578 159.856C257.535 159.88 257.503 159.92 257.49 159.967C257.476 160.014 257.482 160.065 257.506 160.108C257.53 160.152 257.57 160.184 257.616 160.198C257.616 160.198 257.616 160.198 257.616 160.198C258.495 160.471 259.333 160.767 260.158 161.101C267.889 163.881 272.221 171.788 279.935 175.167C283.162 176.797 286.558 177.987 290.044 178.952C291.786 179.434 293.565 179.399 295.26 179.43C296.908 179.46 298.801 179.589 299.378 181.134C299.842 182.089 299.407 183.144 298.506 183.758C297.814 184.262 296.966 184.611 296.129 184.835C296.081 184.846 296.039 184.875 296.012 184.917C295.986 184.958 295.976 185.009 295.987 185.057C295.997 185.105 296.026 185.147 296.067 185.174C296.108 185.201 296.159 185.211 296.207 185.201C296.207 185.201 296.207 185.201 296.207 185.201C297.115 185.003 297.995 184.689 298.791 184.161C299.813 183.58 300.522 182.083 299.958 180.902C299.271 178.905 296.893 178.715 295.287 178.644C293.563 178.569 291.864 178.553 290.292 178.084C286.862 177.068 283.536 175.865 280.386 174.275C272.94 171.064 268.428 163.228 260.333 160.64C259.481 160.336 258.619 160.073 257.719 159.838Z" fill="#6C772B"/>
<path d="M269.285 171.372C269.246 171.341 269.197 171.327 269.148 171.333C269.098 171.339 269.054 171.363 269.023 171.402C268.992 171.44 268.978 171.49 268.983 171.539C268.988 171.588 269.013 171.633 269.051 171.664C269.051 171.664 269.051 171.664 269.051 171.664C270.023 172.469 271.004 173.265 271.996 174.047C277.343 178.358 283.328 181.867 289.462 184.93C291.58 185.971 293.862 185.578 295.848 185.783C297.966 185.815 299.112 187.49 299.17 189.556C299.186 189.776 299.166 189.982 299.107 190.184C297.449 193.195 292.061 192.807 288.895 191.109C282.798 187.385 277.066 182.279 269.904 180.219C268.69 179.848 267.453 179.551 266.203 179.334C266.154 179.325 266.104 179.336 266.063 179.364C266.023 179.392 265.995 179.435 265.985 179.483C265.976 179.532 265.986 179.582 266.014 179.623C266.042 179.664 266.085 179.692 266.133 179.702C266.133 179.702 266.133 179.702 266.133 179.702C267.36 179.957 268.569 180.288 269.753 180.689C276.755 182.937 282.162 187.992 288.441 191.927C290.292 192.958 292.406 193.407 294.503 193.353C296.495 193.226 299.091 192.918 300.067 190.466C300.162 190.142 300.192 189.81 300.166 189.48C300.072 188.379 299.863 187.214 299.088 186.241C298.304 185.247 297.021 184.902 295.944 184.81C293.765 184.625 291.629 184.967 289.874 184.106C283.715 181.12 277.752 177.79 272.296 173.654C271.285 172.906 270.282 172.142 269.285 171.372Z" fill="#6C772B"/>
<path d="M261.805 173.39C261.771 173.355 261.725 173.333 261.675 173.332C261.626 173.33 261.577 173.348 261.541 173.381C261.505 173.415 261.483 173.462 261.481 173.511C261.48 173.561 261.497 173.609 261.531 173.646C261.531 173.646 261.531 173.646 261.531 173.646C262.906 175.156 264.159 176.754 265.269 178.458C267.364 181.522 268.733 185.623 272.516 187.323C274.598 188.396 276.647 189.595 278.391 191.112C279.237 191.868 280.068 192.751 280.334 193.737C280.629 194.725 279.916 195.6 278.948 196.151C273.935 199.638 269.646 193.512 267.081 189.264C264.637 185.48 261.483 182.258 257.875 179.604C255.607 177.981 253.086 176.582 250.261 176.032C243.368 174.411 240.722 182.634 235.095 183.078C233.767 183.296 232.34 183.197 231.072 182.76C229.811 182.349 228.692 181.351 229.06 180.116C229.316 178.858 230.327 178.022 231.622 177.892C232.949 177.659 234.099 178.184 235.833 177.829C240.073 175.802 241.323 171.003 243.738 167.611C244.908 165.978 246.478 164.645 248.256 163.684C248.3 163.66 248.332 163.62 248.347 163.573C248.361 163.525 248.356 163.474 248.333 163.43C248.309 163.387 248.27 163.354 248.222 163.339C248.175 163.325 248.124 163.33 248.08 163.353C246.243 164.296 244.582 165.649 243.341 167.317C240.769 170.84 239.512 175.378 235.503 177.207C234.552 177.376 232.926 176.936 231.524 177.139C230.062 177.216 228.547 178.425 228.276 179.92C228.048 180.707 228.255 181.681 228.815 182.298C229.359 182.929 230.071 183.301 230.784 183.564C232.222 184.07 233.743 184.187 235.241 183.958C241.525 183.243 244.134 175.348 250.076 177.004C252.678 177.514 255.098 178.843 257.29 180.416C260.777 182.973 263.909 186.17 266.255 189.773C267.707 192.081 269.21 194.425 271.364 196.274C273.414 198.283 277.064 198.556 279.388 196.885C280.445 196.312 281.586 194.949 281.126 193.531C280.736 192.215 279.802 191.327 278.902 190.526C277.045 188.953 274.955 187.775 272.82 186.713C269.266 185.2 267.877 181.303 265.68 178.185C264.524 176.479 263.224 174.885 261.805 173.39Z" fill="#6C772B"/>
<path d="M247.851 143.557C247.859 143.509 247.849 143.459 247.821 143.419C247.794 143.378 247.753 143.35 247.705 143.34C247.658 143.33 247.609 143.339 247.568 143.365C247.526 143.392 247.497 143.433 247.484 143.479C247.484 143.479 247.484 143.479 247.484 143.479C247.388 143.837 247.298 144.176 247.206 144.531C246.395 147.683 245.775 150.899 245.487 154.16C245.192 157.42 245.254 160.69 245.421 163.934C245.44 164.297 245.46 164.652 245.48 165.018C245.483 165.066 245.503 165.113 245.538 165.147C245.573 165.181 245.62 165.2 245.668 165.2C245.716 165.2 245.763 165.181 245.798 165.147C245.833 165.113 245.853 165.066 245.855 165.018C245.876 164.652 245.896 164.297 245.915 163.934C246.085 160.688 246.192 157.457 246.483 154.249C246.766 151.038 247.212 147.838 247.69 144.629C247.744 144.268 247.796 143.922 247.851 143.557Z" fill="#6C772B"/>
<path d="M266.558 116.366C266.518 116.395 266.491 116.439 266.483 116.488C266.476 116.537 266.487 116.587 266.516 116.627C266.545 116.667 266.589 116.695 266.638 116.703C266.687 116.711 266.737 116.699 266.778 116.67C266.778 116.67 266.778 116.67 266.778 116.67C269.273 114.902 271.757 113.161 274.335 111.553C282.046 106.291 291.456 104.701 300.668 104.907C304.247 104.936 307.855 105.378 311.281 106.374C314.514 107.366 318.607 109.071 318.708 112.518C318.706 113.189 318.705 113.847 318.703 114.518C318.958 118.405 315.119 120.732 312.654 123.656C309.993 126.506 307.542 129.565 305.264 132.727C303.839 134.705 302.138 136.483 300.271 138.065C291.538 145.27 280.222 148.84 269.115 150.565C268.571 150.629 268.674 151.532 269.218 151.471C279.294 150.504 289.575 149.95 299.614 151.357C305.289 152.307 310.844 154.23 315.982 156.858C317.671 157.828 319.895 158.838 320.46 160.518C320.441 161.372 319.438 161.985 318.602 162.342C318.556 162.36 318.518 162.395 318.498 162.441C318.477 162.486 318.476 162.537 318.493 162.584C318.51 162.63 318.546 162.668 318.591 162.688C318.636 162.709 318.687 162.711 318.734 162.694C318.734 162.694 318.734 162.694 318.734 162.694C319.636 162.294 320.768 161.768 320.876 160.518C320.114 158.232 317.931 157.502 316.216 156.423C311.043 153.699 305.495 151.707 299.722 150.68C289.567 149.159 279.276 149.644 269.118 150.565L269.221 151.471C280.521 149.769 291.923 146.23 300.918 138.827C302.838 137.2 304.595 135.363 306.072 133.309C308.328 130.17 310.744 127.143 313.367 124.318C315.713 121.453 319.854 119.026 319.633 114.518C319.631 113.847 319.63 113.189 319.628 112.518C319.334 108.118 314.808 106.598 311.521 105.55C307.984 104.549 304.32 104.13 300.668 104.129C291.428 103.984 281.756 105.733 274.072 111.135C271.497 112.786 269.032 114.562 266.558 116.366Z" fill="#6C772B"/>
<path d="M286.668 154.331C286.619 154.332 286.572 154.351 286.537 154.387C286.502 154.422 286.482 154.469 286.482 154.518C286.482 154.567 286.502 154.615 286.537 154.65C286.572 154.685 286.619 154.705 286.668 154.706C286.668 154.706 286.668 154.706 286.668 154.706C287.681 154.727 288.666 154.766 289.674 154.824C298.631 155.377 307.638 157.245 315.668 161.134C316.799 161.702 317.888 162.311 318.913 163.031C319.41 163.382 319.911 163.776 320.309 164.194C320.509 164.405 320.685 164.625 320.791 164.84C320.839 164.936 320.866 165.04 320.864 165.086C320.861 165.14 320.864 165.137 320.829 165.179C318.637 167.073 314.93 165.768 311.874 165.293C308.697 164.672 305.449 164.12 302.179 164.145C301.167 164.151 300.155 164.21 299.149 164.332C299.1 164.337 299.055 164.362 299.024 164.4C298.993 164.439 298.978 164.488 298.983 164.537C298.988 164.585 299.012 164.631 299.05 164.662C299.089 164.693 299.138 164.709 299.187 164.705C299.187 164.705 299.187 164.705 299.187 164.705C300.181 164.626 301.178 164.607 302.173 164.639C305.388 164.735 308.557 165.373 311.715 166.069C314.796 166.532 318.335 168.29 321.507 165.857C321.712 165.659 321.833 165.365 321.829 165.085C321.83 164.832 321.746 164.594 321.665 164.423C321.481 164.046 321.258 163.783 321.02 163.524C320.551 163.025 320.013 162.601 319.487 162.224C318.401 161.453 317.279 160.825 316.116 160.24C307.887 156.256 298.728 154.552 289.693 154.33C288.678 154.31 287.686 154.31 286.668 154.331Z" fill="#6C772B"/>
<path d="M272.704 156.334C272.655 156.325 272.605 156.336 272.564 156.364C272.523 156.391 272.495 156.434 272.485 156.482C272.476 156.531 272.486 156.581 272.514 156.622C272.541 156.663 272.584 156.692 272.632 156.702C272.632 156.702 272.632 156.702 272.632 156.702C273.876 156.966 275.108 157.242 276.328 157.531C281.458 158.75 286.52 160.197 291.451 162.03C293.892 162.944 296.342 163.965 298.637 165.174C299.784 165.783 300.922 166.45 301.918 167.225C302.868 167.94 303.972 169.167 303.315 169.665C302.91 170.071 302.108 170.228 301.338 170.27C290.237 169.485 279.486 164.659 268.423 162.131C267.185 161.835 265.942 161.561 264.705 161.334C264.656 161.325 264.606 161.336 264.565 161.363C264.524 161.391 264.495 161.433 264.486 161.482C264.476 161.53 264.486 161.58 264.513 161.621C264.541 161.663 264.583 161.691 264.631 161.702C264.631 161.702 264.631 161.702 264.631 161.702C265.851 161.967 267.078 162.278 268.3 162.61C279.297 165.451 289.695 170.432 301.393 171.268C302.255 171.201 303.218 171.118 304.021 170.371C304.346 170.063 304.561 169.543 304.497 169.071C304.443 168.604 304.239 168.247 304.028 167.94C303.589 167.325 303.067 166.877 302.521 166.45C301.44 165.619 300.262 164.945 299.079 164.33C296.715 163.112 294.223 162.111 291.744 161.227C286.737 159.456 281.616 158.119 276.435 157.049C275.202 156.796 273.959 156.558 272.704 156.334Z" fill="#6C772B"/>
<path d="M245.65 158.071C245.664 158.075 245.679 158.074 245.692 158.067C245.705 158.06 245.715 158.049 245.72 158.035C245.724 158.022 245.723 158.007 245.717 157.993C245.71 157.98 245.699 157.97 245.686 157.965C245.686 157.965 245.686 157.965 245.686 157.965C245.508 157.892 245.319 157.821 245.138 157.755C244.401 157.49 243.642 157.279 242.879 157.11C240.201 156.525 237.48 156.192 234.753 155.997C234.562 155.985 234.358 155.972 234.172 155.962C234.157 155.961 234.143 155.966 234.132 155.976C234.12 155.986 234.114 155.999 234.112 156.014C234.111 156.029 234.116 156.043 234.126 156.055C234.136 156.066 234.149 156.073 234.164 156.074C234.164 156.074 234.164 156.074 234.164 156.074C234.348 156.092 234.551 156.113 234.741 156.134C237.453 156.436 240.156 156.822 242.814 157.403C243.571 157.571 244.331 157.741 245.085 157.927C245.271 157.973 245.465 158.023 245.65 158.071Z" fill="#6C772B"/>
<path d="M262.668 17.0181C264.403 17.0181 266.017 17.3859 267.362 18.0161C267.874 18.8993 268.168 19.9241 268.168 21.0181C268.168 24.3318 265.482 27.0181 262.168 27.0181C258.854 27.0181 256.168 24.3318 256.168 21.0181C256.168 20.2467 256.315 19.5099 256.58 18.8325C258.124 17.7139 260.281 17.0181 262.668 17.0181Z" fill="#A98C4A"/>
<path d="M237.212 25.3005C238.719 24.8292 240.223 24.6871 241.595 24.8282C242.635 25.5524 243.456 26.6095 243.874 27.9087C244.89 31.0628 243.157 34.4433 240.003 35.4594C236.849 36.4754 233.468 34.7422 232.452 31.5881C232.113 30.5351 232.081 29.4569 232.305 28.4498C233.449 27.0874 235.154 25.9439 237.212 25.3005Z" fill="#A98C4A"/>
<circle cx="262.168" cy="21.0181" r="4" fill="black"/>
<circle cx="238.163" cy="29.7488" r="4" transform="rotate(-17.8556 238.163 29.7488)" fill="black"/>
<path d="M250.88 24.3338C250.828 24.4128 250.802 24.5083 250.812 24.6037C250.823 24.6991 250.869 24.7859 250.941 24.8461C251.013 24.9063 251.107 24.9358 251.203 24.929C251.298 24.9223 251.388 24.8793 251.456 24.8139C251.456 24.8139 251.456 24.8139 251.456 24.8139C251.724 24.5572 251.991 24.3011 252.258 24.0454C254.656 21.7713 257.041 19.43 259.805 18.2261C262.544 16.9579 265.69 17.5787 268.496 19.2426C268.815 19.4254 269.113 19.6044 269.431 19.8093C269.511 19.8603 269.607 19.8854 269.702 19.8736C269.797 19.8618 269.884 19.8148 269.943 19.7418C270.002 19.6689 270.031 19.5748 270.023 19.4792C270.015 19.3835 269.971 19.2948 269.904 19.2273C269.904 19.2273 269.904 19.2273 269.904 19.2273C269.627 18.9487 269.364 18.6969 269.073 18.4407C266.638 16.1274 262.459 14.7511 259.02 16.3866C255.639 17.8909 253.424 20.681 251.506 23.4051C251.294 23.7128 251.085 24.0222 250.88 24.3338Z" fill="#6C772B"/>
<path d="M222.876 36.7822C222.823 36.8616 222.797 36.958 222.809 37.054C222.821 37.1499 222.868 37.237 222.942 37.2968C223.016 37.3566 223.111 37.385 223.207 37.3764C223.304 37.3679 223.393 37.3226 223.459 37.2541C223.459 37.2541 223.459 37.2541 223.459 37.2541C223.787 36.9154 224.105 36.5893 224.428 36.2583C227.339 33.2986 230.207 30.3045 233.478 28.0401C236.707 25.7297 240.628 24.7749 244.601 25.8287C245.042 25.9342 245.472 26.052 245.915 26.1894C246.007 26.2176 246.106 26.2147 246.195 26.1761C246.284 26.1375 246.353 26.067 246.39 25.9791C246.426 25.8912 246.426 25.792 246.39 25.7022C246.354 25.6123 246.286 25.54 246.201 25.4959C246.201 25.4959 246.201 25.4959 246.201 25.4959C245.774 25.275 245.352 25.0755 244.909 24.8905C240.995 23.0473 235.849 23.7918 232.351 26.3878C228.757 28.8863 226.085 32.2148 223.667 35.6286C223.399 36.0105 223.141 36.3891 222.876 36.7822Z" fill="#6C772B"/>
<circle cx="235.5" cy="28.9487" r="1.5" fill="white"/>
<circle cx="259.5" cy="20.9487" r="1.5" fill="white"/>
<path d="M255.5 40.9489C255.741 40.8998 255.999 40.8416 256.243 40.7881C258.458 40.3013 260.562 39.6435 262.579 38.9291C263.134 38.7349 263.69 38.5368 264.228 38.3589C265.656 37.8933 267.174 37.4961 268.762 37.1152C269.007 37.0578 269.251 37.0004 269.5 36.949C269.259 36.8673 269.015 36.7979 268.765 36.7352C267.151 36.3348 265.456 36.2325 263.772 36.5389C263.132 36.6575 262.513 36.8336 261.918 37.0415C259.763 37.8055 257.825 38.9862 256.074 40.4475C255.883 40.6092 255.681 40.7811 255.5 40.9489Z" fill="#CDCC62"/>
<defs>
<radialGradient id="paint0_radial_101_11774" cx="0" cy="0" r="1" gradientUnits="userSpaceOnUse" gradientTransform="translate(280 -13.5513) rotate(109.154) scale(188.961 123.347)">
<stop offset="0.867346" stop-color="#AEB05C"/>
<stop offset="0.931321" stop-color="#A0A24F"/>
<stop offset="1" stop-color="#8A8C41"/>
</radialGradient>
</defs>
</svg>
