<svg width="205" height="211" viewBox="0 0 205 211" fill="none" xmlns="http://www.w3.org/2000/svg">
<path d="M127.988 157.949C127.655 157.283 116.488 155.949 116.488 155.949L91.4883 160.449L91.9883 168.949L105.988 182.949L111.488 183.949L113.988 184.949L114.488 187.449L112.488 189.949L107.488 190.449L103.488 187.949L98.4883 183.449L94.9883 181.449L88.9883 182.949L84.9883 186.949L79.9883 197.449V204.449L76.4883 208.949L71.4883 209.949L68.4883 207.449V202.949L74.9883 196.449L76.9883 186.449H74.4883L71.9883 187.449L68.9883 189.449L64.4883 193.449L60.9883 197.449L58.9883 200.449L55.4883 202.449L50.9883 202.949L47.9883 200.449L49.4883 196.449L52.9883 193.949L55.9883 193.449L61.4883 189.449L67.4883 181.949L61.9883 183.449L56.4883 186.949L53.9883 189.449L46.4883 191.449L42.9883 189.449L43.9883 184.949L47.4883 182.949H52.9883L57.9883 181.949L61.4883 179.449L67.4883 172.949L70.4883 167.949L69.9883 164.449L64.4883 166.449L53.4883 171.949L29.9883 184.449L25.4883 185.449L23.4883 184.449L22.4883 182.449L27.4883 176.449H19.9883L12.9883 178.449L5.98828 181.449H0.988281L0.488281 179.449L2.98828 175.949L7.48828 172.449H3.48828L2.98828 170.449L4.48828 167.949L12.9883 162.949L26.4883 159.949L39.4883 158.949L46.4883 157.449L47.4883 156.949L38.4883 154.949L26.4883 149.949L17.9883 142.949L10.4883 133.949L5.48828 127.449L1.48828 122.449L0.988281 115.949L3.48828 112.449L7.48828 109.949L17.4883 107.949L33.9883 108.449L43.9883 111.949L48.9883 114.949L53.9883 118.949L60.9883 125.949L62.9883 114.949L65.9883 107.949L68.9883 102.449L71.9883 98.4487L75.4883 93.9487L81.4883 86.4487L83.4883 83.4487C85.4883 80.4487 87.4883 74.9487 87.4883 74.9487C87.4883 74.9487 84.8266 71.2913 83.4883 67.9487L82.4883 64.9487L81.9883 63.4487C81.9883 63.4487 81.4883 59.4487 81.9883 56.4487C82.1167 55.6783 81.9883 54.4487 81.9883 54.4487L83.9883 49.4487L87.4883 43.9487L94.9883 35.9487L100.488 29.4487L101.988 25.4487L103.988 19.9487L107.488 12.4487C107.488 12.4487 110.059 9.79233 111.988 8.44873C113.638 7.29994 116.488 5.94873 116.488 5.94873L119.988 6.94873L124.988 10.4487V6.94873L125.988 3.94873L128.488 1.44873L131.988 0.44873L136.988 1.94873L148.488 10.4487L155.488 15.4487L168.488 19.4487L172.988 20.9487L176.988 24.9487L179.488 31.9487V38.9487C177.111 53.1664 167.043 69.8665 160.988 78.9487C153.988 89.4487 155.488 85.9487 152.488 92.4487C148.214 101.71 148.988 116.449 148.988 116.449C148.988 116.449 163.488 104.949 175.488 104.949C183.941 104.949 190.988 103.949 196.988 106.949C199.211 108.06 201.488 110.949 201.488 110.949C201.488 110.949 202.711 113.504 201.488 115.949C198.988 120.949 192.488 127.949 192.488 127.949C192.488 127.949 184.166 138.54 176.988 142.949C169.937 147.28 156.988 149.949 156.988 149.949L178.488 150.449C178.488 150.449 187.361 151.609 192.488 153.949C196.972 155.995 204.488 157.949 202.988 160.949C202.552 161.822 201.488 162.449 201.488 162.449C201.488 162.449 203.992 163.957 203.488 165.449C202.912 167.154 200.735 166.885 198.988 166.449C194.988 165.449 193.836 165.34 190.488 164.949C186.992 164.54 181.488 164.449 181.488 164.449C181.488 164.449 188.076 167.672 186.488 169.949C185.837 170.883 184.488 170.449 184.488 170.449C184.488 170.449 176.52 170.857 171.988 168.949C162.488 164.949 146.988 161.449 146.988 161.449L146.488 162.449L157.988 171.949C157.988 171.949 166.806 177.06 172.988 178.949C176.432 180.001 180.608 177.924 181.988 180.949C182.637 182.37 182.269 182.096 181.488 183.449C180.701 184.812 177.988 185.449 177.988 185.449L181.488 186.449C181.488 186.449 182.276 188.365 181.988 189.949C181.344 193.491 173.912 193.55 170.988 191.449C154.988 179.949 148.988 179.449 148.988 179.449C148.988 179.449 149.555 181.142 150.488 182.449C155.488 189.449 166.488 191.449 162.488 195.949C160.724 197.934 159.008 197.789 156.488 196.949C152.734 195.697 149.696 189.525 144.988 184.449C140.29 179.382 133.922 175.41 131.488 175.949C126.617 177.028 120.488 182.449 120.488 182.449C120.488 182.449 114.377 184.937 112.488 182.449C111.629 181.316 110.872 180.23 111.488 178.949C112.056 177.768 113.197 177.669 114.488 177.449C115.849 177.216 115.614 177.586 116.988 177.449C121.988 176.949 124.988 167.949 127.988 165.449C128.532 164.996 128.488 158.949 127.988 157.949Z" fill="#808731"/>
<path d="M130.488 8.9492C129.407 11.3195 131.488 16.9493 131.488 16.9493C131.488 16.9493 131.578 12.9777 133.488 11.4492C135.988 9.44897 142.488 11.4492 142.488 11.4492C142.488 11.4492 138.988 8.94894 134.488 7.949C132.731 7.55851 131.235 7.31126 130.488 8.9492Z" fill="#4C5236"/>
<path d="M128.988 26.9482C131.181 30.4238 129.739 36.3196 123.988 39.9482C121.166 41.7288 117.909 42.4359 115.215 42.085C112.488 41.9487 106.94 38.9582 105.988 37.4488C104.988 35.9487 109.467 34.2726 111.198 31.6053C112.21 30.046 113.68 28.5824 115.521 27.4213C120.509 24.2738 126.795 23.4727 128.988 26.9482Z" fill="#F8E498"/>
<path d="M153.356 21.8607C154.419 25.8303 152.12 31.0745 146.988 32.4488C144.47 33.1232 141.907 32.3665 139.881 31.1139C137.789 30.0484 134.45 26.6729 133.988 24.949C133.488 23.2172 136.855 21.9087 138.69 20.0385C139.763 18.9453 141.173 18.0982 142.815 17.6584C147.266 16.4663 152.293 17.8911 153.356 21.8607Z" fill="#F8E498"/>
<path d="M97.4883 56.9487C98.9016 53.9011 100.988 52.9487 100.988 52.9487C100.988 52.9487 114.115 60.6234 142.488 54.9487C159.988 51.4487 167.488 31.9487 167.488 31.9487C167.488 31.9487 169.937 32.3457 170.988 34.4487C172.988 38.4487 171.657 47.2754 169.988 53.9487C166.988 65.9487 163.463 71.5752 157.488 82.9487C154.357 88.9094 150.956 94.1843 148.488 100.449C141.988 116.949 142.243 124.101 131.988 140.949C117.988 163.949 91.9883 160.449 91.9883 160.449L87.9883 136.949C87.9883 136.949 89.1289 132.3 89.9883 128.949C94.9883 109.449 103.627 104.697 103.488 88.4487C103.388 76.7009 92.5457 67.6067 97.4883 56.9487Z" fill="url(#paint0_radial_101_11574)"/>
<path d="M25.9886 107.449C29.1571 107.702 32.0529 106.927 33.9886 109.449C34.3724 109.949 34.4835 112.981 33.4886 115.949C31.8642 120.794 28.3075 128.15 23.4886 126.449C19.5225 125.048 22.2676 120.26 20.4886 116.449C18.9 113.045 16.2857 108.027 16.9886 107.949C21.4886 107.449 22.0909 107.137 25.9886 107.449Z" fill="#5F5F21"/>
<path d="M179.53 104.571C176.069 104.82 173.135 104.571 170.488 105.949C169.916 106.247 170.251 109.996 171.338 112.906C173.112 117.658 176.997 124.872 182.26 123.203C186.592 121.83 185.048 117.661 184.988 113.449C184.939 110.001 185.256 104.648 184.488 104.571C179.573 104.081 183.787 104.265 179.53 104.571Z" fill="#5F5F21" fill-opacity="0.7"/>
<path d="M56.4885 121.449C59.4885 124.449 59.4883 123.949 60.9883 126.449C61.3126 126.989 60.4871 129.7 58.9882 132.448C55.9882 137.948 49.9249 142.707 45.9881 139.449C42.7481 136.766 45.6086 132.942 47.1689 129.036C48.5617 125.549 52.4126 118.038 52.9881 118.449C56.4883 120.949 53.7236 118.684 56.4885 121.449Z" fill="#5F5F21"/>
<path d="M149.489 116.449C148.489 117.449 148.989 119.533 148.989 122.449L148.989 127.949C148.989 134.214 156.627 137.446 160.564 134.187C163.804 131.505 161.549 125.355 159.989 121.449C158.596 117.962 157.064 111.038 156.489 111.449C152.989 113.949 152.339 113.599 149.489 116.449Z" fill="#5F5F21" fill-opacity="0.7"/>
<path d="M146.167 162.413C146.139 162.542 146.162 162.677 146.234 162.789C146.306 162.9 146.42 162.979 146.551 163.007C146.681 163.035 146.818 163.01 146.929 162.939C147.041 162.867 147.118 162.753 147.145 162.623C147.145 162.623 147.145 162.623 147.145 162.623C147.38 161.496 147.588 160.404 147.785 159.272C151.647 139.042 147.087 118.5 150.526 98.3533C150.715 97.2332 150.922 96.1345 151.156 95.0181C150.906 96.131 150.682 97.2267 150.477 98.3447C146.74 118.463 150.982 139.143 146.85 159.102C146.639 160.221 146.416 161.299 146.167 162.413Z" fill="#6C772B"/>
<path d="M90.1554 78.0179C87.2989 74.9224 84.8507 71.3983 83.3657 67.4599C81.7962 63.3613 81.4288 58.8311 82.3354 54.5539C84.6997 44.1496 94.7679 38.467 100.449 29.7066C104.652 23.694 104.155 15.7893 109.476 10.8C111.256 9.01373 113.438 7.21614 115.771 6.45202C119.167 5.83806 122.385 8.81927 124.8 11.3302L125.944 12.6362L125.621 10.9294C125.341 9.1841 125.152 7.26943 125.615 5.66567C126.322 3.24213 128.219 1.26846 130.725 1.0054C135.737 0.574782 140.074 4.51494 144.14 7.54739C147.505 10.1979 150.827 12.9492 154.372 15.4234C162.255 19.6152 172.996 18.1073 177.246 26.2104C182.871 40.1152 174.129 54.6715 167.904 67.3851C162.926 76.2654 155.464 83.5361 148.286 90.7634C145.284 93.7233 142.231 96.6328 139.155 99.5179C142.277 96.6818 145.373 93.8181 148.419 90.8996C155.706 83.7615 163.25 76.6169 168.406 67.6508C174.728 54.9576 183.828 40.5233 178.064 25.8254C173.366 16.9809 162.074 18.5653 154.939 14.6127C151.44 12.1623 148.139 9.42497 144.758 6.7611C140.63 3.74388 136.4 -0.397255 130.586 0.0306679C127.732 0.30212 125.41 2.75404 124.696 5.37011C124.152 7.34687 124.395 9.22724 124.69 11.1064L125.511 10.7055C122.909 8.1101 119.845 4.90277 115.54 5.58388C112.809 6.52003 110.78 8.28252 108.835 10.2359C103.383 15.4503 103.872 23.5903 99.8617 29.3293C94.4095 37.9589 84.2813 43.8139 81.9755 54.4819C81.1094 58.8347 81.5482 63.423 83.1884 67.5282C84.7414 71.4745 87.2507 74.9678 90.1554 78.0179Z" fill="#6C772B"/>
<path d="M107.18 50.7041C107.224 50.691 107.265 50.6648 107.293 50.6266C107.321 50.5885 107.334 50.542 107.328 50.4964C107.322 50.4508 107.299 50.409 107.262 50.3789C107.226 50.3489 107.179 50.3337 107.133 50.332C107.133 50.332 107.133 50.332 107.133 50.332C106.86 50.3275 106.595 50.3393 106.328 50.3602C105.262 50.4464 104.211 50.6908 103.214 51.0743C101.862 51.596 100.565 52.2784 99.3909 53.1434C97.5349 54.5206 96.046 56.2956 94.8806 58.2307C94.7445 58.4599 94.6148 58.6876 94.493 58.9258C94.4715 58.9692 94.4661 59.0195 94.4796 59.0665C94.4932 59.1135 94.5243 59.1532 94.5664 59.177C94.6086 59.2008 94.6586 59.207 94.7058 59.1944C94.7531 59.1818 94.7934 59.1512 94.8195 59.1103C94.8195 59.1103 94.8195 59.1103 94.8195 59.1103C94.9548 58.9041 95.1071 58.6904 95.2602 58.4825C96.5798 56.7149 98.135 55.1131 99.9216 53.8927C101.056 53.1229 102.29 52.5029 103.574 52.0074C104.52 51.6435 105.476 51.2874 106.45 50.9477C106.692 50.8637 106.942 50.7789 107.18 50.7041Z" fill="#6C772B"/>
<path d="M174.039 32.1646C174.08 32.1852 174.127 32.1954 174.173 32.1885C174.219 32.1816 174.26 32.1588 174.288 32.1237C174.316 32.0886 174.329 32.0435 174.326 31.9971C174.323 31.9506 174.302 31.9072 174.273 31.8718C174.273 31.8718 174.273 31.8718 174.273 31.8718C174.135 31.7102 173.993 31.5642 173.843 31.4217C173.241 30.855 172.541 30.3918 171.764 30.0781C170.952 29.7536 170.074 29.5281 169.156 29.5423C167.122 29.5768 165.083 30.2144 163.495 31.4658C163.332 31.5959 163.18 31.7257 163.028 31.8813C162.995 31.9166 162.976 31.9628 162.975 32.0114C162.974 32.06 162.991 32.1069 163.024 32.1419C163.057 32.1769 163.102 32.1977 163.151 32.1999C163.2 32.2021 163.247 32.1853 163.284 32.1549C163.284 32.1549 163.284 32.1549 163.284 32.1549C163.424 32.0483 163.592 31.9381 163.756 31.8392C165.394 30.8674 167.29 30.4552 169.156 30.4938C169.904 30.5107 170.662 30.7138 171.391 31.006C172.088 31.2874 172.789 31.5955 173.506 31.9184C173.684 31.9989 173.867 32.0827 174.039 32.1646Z" fill="#6C772B"/>
<path d="M168.156 30.5181C168.156 30.5181 163.111 48.952 144.656 54.0181C119.156 61.0181 100.656 53.0181 100.656 53.0181" stroke="#6C772B" stroke-linecap="round"/>
<path d="M159.156 57.5181C158.995 57.8559 158.826 58.1975 158.659 58.53C157.198 61.3876 155.71 64.2686 153.77 66.7025C153.672 66.8208 153.568 66.9431 153.465 67.0612C151.265 69.5075 148.631 71.6506 146.031 73.8095C145.741 74.0474 145.444 74.2881 145.156 74.5181C145.481 74.3436 145.814 74.1548 146.14 73.9657C149.06 72.2383 151.89 70.3036 154.219 67.7189C154.328 67.5932 154.439 67.4619 154.543 67.3336C156.596 64.7091 157.839 61.6688 158.836 58.6013C158.947 58.245 159.058 57.8793 159.156 57.5181Z" fill="#6C772B"/>
<path d="M151.656 36.0181C151.323 35.8864 150.963 35.8043 150.605 35.7359C147.567 35.226 144.46 35.7344 141.519 36.539C141.303 36.5995 141.081 36.669 140.869 36.7414C137.712 37.8703 134.997 39.7531 132.477 41.8124C132.199 42.0436 131.919 42.2817 131.656 42.5181C131.959 42.3354 132.275 42.1494 132.586 41.9681C135.399 40.3591 138.226 38.7447 141.191 37.688C141.39 37.6203 141.595 37.5548 141.793 37.497C144.668 36.679 147.574 35.9259 150.586 35.9249C150.944 35.9331 151.306 35.9509 151.656 36.0181Z" fill="#6C772B"/>
<path d="M118.656 16.5181C119.202 16.8675 119.762 17.2552 120.29 17.6361C123.462 19.9946 126.752 22.6473 128.231 26.1855C128.887 27.9431 129.192 29.8387 129.23 31.7265C129.258 33.2986 129.095 34.8774 128.703 36.3944C127.726 40.4998 124.616 43.9657 120.55 45.4601C119.932 45.6933 119.298 45.8934 118.656 46.0181C119.309 45.9593 119.965 45.8196 120.609 45.6406C124.844 44.5324 128.474 41.0036 129.61 36.6418C130.067 35.0372 130.26 33.3681 130.23 31.708C130.189 29.714 129.84 27.7153 129.081 25.8507C127.29 21.9618 123.783 19.5682 120.394 17.4771C119.831 17.1448 119.235 16.8097 118.656 16.5181Z" fill="#6C772B"/>
<path d="M142.488 11.4487C141.708 11.2436 140.946 11.072 140.198 10.9407C137.253 10.3668 133.268 10.4805 132.437 13.5917C131.633 16.4789 132.536 19.6553 133.308 22.644C133.491 23.3181 133.766 23.9734 134.101 24.6012C135.4 26.992 137.444 28.992 139.738 30.527C143.118 32.8603 147.623 33.3941 151.552 31.8912C152.282 31.6199 152.999 31.2986 153.663 30.8916C153.035 31.3545 152.341 31.7362 151.624 32.0668C147.79 33.9016 142.928 33.6349 139.269 31.259C136.819 29.7221 134.637 27.6732 133.219 25.0723C132.854 24.388 132.551 23.6626 132.35 22.9001C131.607 19.8576 130.693 16.5971 131.726 13.3459C132.248 11.717 133.854 10.5359 135.473 10.3443C137.11 10.0981 138.693 10.3686 140.238 10.755C140.98 10.9463 141.727 11.1799 142.488 11.4487Z" fill="#6C772B"/>
<path d="M131.568 18.0504C131.577 18.0733 131.594 18.092 131.617 18.1023C131.639 18.1126 131.664 18.1137 131.688 18.1053C131.711 18.0969 131.729 18.0796 131.74 18.0572C131.75 18.0349 131.752 18.0093 131.744 17.986C131.744 17.986 131.744 17.986 131.744 17.986C131.459 17.1179 131.208 16.2133 130.995 15.3142C130.525 12.9489 129.705 9.95629 131.306 8.20564C132.137 7.58241 133.391 7.77767 134.475 8.03558C137.311 8.79471 139.956 10.2577 142.534 11.728C146.552 14.1695 151.151 16.6538 152.965 21.0818C153.866 24.0665 153.115 27.5374 151.04 29.9181C149.768 31.4362 147.889 32.3957 145.914 32.5795C145.002 32.67 144.062 32.631 143.181 32.4277C143.157 32.4213 143.131 32.4245 143.11 32.4368C143.088 32.449 143.072 32.4693 143.066 32.4932C143.059 32.5171 143.062 32.5426 143.074 32.5642C143.087 32.5858 143.107 32.6017 143.131 32.6084C143.131 32.6084 143.131 32.6084 143.131 32.6084C144.048 32.8345 144.995 32.8853 145.936 32.8062C147.963 32.6479 149.935 31.6773 151.271 30.118C153.44 27.6787 154.271 24.1198 153.347 20.9546C151.444 16.2536 146.806 13.7899 142.778 11.3083C140.184 9.82025 137.542 8.34155 134.595 7.55031C133.462 7.29796 132.124 7.01199 131.006 7.83059C129.072 10.1181 130.192 12.9853 130.705 15.3884C130.952 16.2887 131.239 17.1854 131.568 18.0504Z" fill="#6C772B"/>
<path d="M129.828 33.593C129.714 33.543 129.599 33.4931 129.484 33.4432C129.272 33.8788 129.049 34.3037 128.812 34.7224C126.774 38.5739 123.027 41.1873 118.79 41.8009C118.234 41.8973 117.679 41.9699 117.111 42.0245C113.51 42.2977 109.974 40.3736 106.928 38.2502C106.538 37.971 106.15 37.6806 105.783 37.3798C105.746 37.3485 105.698 37.3317 105.649 37.3342C105.6 37.3367 105.554 37.3582 105.521 37.3941C105.488 37.4299 105.471 37.4775 105.472 37.5265C105.474 37.5756 105.495 37.6218 105.53 37.6563C105.53 37.6563 105.53 37.6563 105.53 37.6563C105.885 38.0034 106.25 38.3248 106.625 38.6403C109.557 41.0212 113.09 43.2519 117.201 43.0116C117.793 42.9607 118.375 42.8876 118.961 42.7861C123.432 42.1735 127.515 39.0447 129.251 34.9491C129.46 34.5025 129.651 34.0521 129.828 33.593Z" fill="#6C772B"/>
<path d="M121.656 13.018C121.653 11.7605 120.156 11.5181 118.656 11.5181C114.656 11.5181 108.656 23.518 106.156 30.018C109.156 25.518 112.656 20.018 115.656 18.0166L115.74 17.9609C118.712 15.9784 121.659 14.0124 121.656 13.018Z" fill="#4C5236"/>
<path d="M105.656 37.518C105.656 37.518 105.156 37.018 105.156 36.518C105.156 34.2819 105.656 31.018 106.156 30.018M106.156 30.018C108.656 23.518 114.656 11.5181 118.656 11.5181C120.156 11.5181 121.653 11.7605 121.656 13.018C121.659 14.0217 118.656 16.0153 115.656 18.0166C112.656 20.018 109.156 25.518 106.156 30.018Z" stroke="#6C772B" stroke-width="0.5" stroke-linecap="round"/>
<path d="M60.658 126.476C60.9902 126.504 61.3223 126.532 61.6545 126.56C61.7329 125.603 61.84 124.624 61.9599 123.652C62.539 119.231 63.2841 114.753 64.9858 110.665C69.6383 98.1287 81.1465 89.9256 86.6725 77.8016C87.0475 76.8887 87.3722 75.9691 87.6562 75.0181C87.3563 75.9642 87.0161 76.8773 86.6265 77.7822C80.9349 89.7566 69.263 97.774 64.3267 110.372C62.4973 114.572 61.6823 119.064 61.0181 123.527C60.8801 124.51 60.7561 125.487 60.658 126.476Z" fill="#6C772B"/>
<path d="M66.9943 135.111C67.1024 135.049 67.2105 134.986 67.3186 134.923C66.0004 132.612 64.5446 130.376 62.9559 128.237C53.9479 115.891 39.4177 106.503 23.6441 107.05C19.3701 107.163 15.066 107.432 10.8462 108.417C6.81904 109.393 1.85929 111.281 0.746154 116.021C0.715248 116.156 0.687751 116.294 0.66372 116.433C-0.775228 123.99 6.33767 128.551 9.76147 133.79C13.5 139.464 18.4485 144.353 23.9013 148.35C32.5206 154.52 43.0384 156.659 53.2253 158.301C55.8464 158.685 58.5176 159.008 61.1427 159.205C61.1519 159.08 61.1611 158.955 61.1703 158.831C58.5689 158.594 55.9048 158.233 53.3008 157.813C43.185 156.047 32.7151 153.746 24.4117 147.686C18.9985 143.642 14.2503 138.894 10.5515 133.246C6.9167 127.783 0.266719 123.371 1.64908 116.603C1.67012 116.481 1.69413 116.362 1.72106 116.244C2.62311 112.193 7.12164 110.324 11.0752 109.373C15.1709 108.406 19.4289 108.117 23.6687 107.985C39.067 107.371 53.435 116.401 62.5616 128.534C64.1681 130.634 65.6475 132.834 66.9943 135.111Z" fill="#6C772B"/>
<path d="M47.7307 157.19C47.6811 157.075 47.6316 156.961 47.5821 156.846C46.7455 157.164 45.8463 157.42 44.9662 157.644C43.0422 158.127 41.0829 158.455 39.1131 158.667C32.966 159.298 26.7465 159.482 20.5662 160.526C20.4654 160.545 20.3648 160.564 20.2645 160.583C14.0909 161.821 8.00973 164.319 3.40405 168.766C2.50392 169.606 2.32996 171.105 2.88041 172.142C3.34246 172.828 3.91307 172.759 4.4044 172.861C4.90581 172.921 5.40203 172.929 5.8945 172.922C6.82872 172.903 7.75818 172.824 8.67792 172.704C8.66347 172.58 8.64903 172.456 8.63458 172.332C7.73071 172.408 6.80334 172.447 5.89584 172.428C5.41782 172.416 4.9387 172.388 4.48078 172.316C4.04562 172.254 3.49537 172.08 3.43233 171.894C3.01381 170.978 3.18588 169.928 3.90854 169.27C8.45011 165.14 14.4439 162.764 20.4523 161.565C20.5501 161.546 20.6481 161.528 20.7463 161.51C26.8014 160.482 33.0339 160.194 39.1995 159.369C41.1918 159.092 43.1661 158.689 45.0966 158.12C45.9829 157.855 46.8701 157.563 47.7307 157.19Z" fill="#6C772B"/>
<path d="M51.2334 165.188C51.1817 165.075 51.1299 164.961 51.0782 164.847C49.7337 165.436 48.4012 166.049 47.0689 166.658C43.7832 168.16 40.4858 169.645 37.0479 170.667C31.1939 172.515 26.2449 176.488 22.5983 181.384C21.7468 182.52 22.2255 184.139 23.0505 184.995C24.9249 186.466 26.9884 186.12 28.8467 185.479C29.4509 185.23 30.0383 184.98 30.6365 184.717C42.8137 179.393 53.4826 171.419 65.6502 166.338C67.0004 165.76 68.344 165.217 69.7198 164.694C69.6771 164.577 69.6344 164.459 69.5917 164.342C68.1964 164.827 66.8326 165.336 65.4617 165.882C53.0933 170.683 42.2612 178.552 30.2351 183.802C29.6432 184.061 29.0622 184.309 28.4648 184.556C26.9864 185.156 24.8118 185.212 23.7841 184.342C23.1284 183.63 22.8711 182.643 23.3914 181.93C26.8408 177.22 31.6733 173.234 37.2636 171.368C40.7455 170.261 44.0317 168.691 47.28 167.104C48.5971 166.461 49.9103 165.813 51.2334 165.188Z" fill="#6C772B"/>
<path d="M37.179 163.204C37.1638 163.08 37.1485 162.956 37.1333 162.832C35.9461 162.958 34.7552 163.12 33.575 163.298C28.5011 164.098 23.4586 165.075 18.5199 166.609C13.1088 168.389 8.15353 171.336 3.77045 174.934C2.91588 175.644 2.09287 176.377 1.30443 177.166C0.347761 178.216 -0.376782 179.635 0.211415 181.218C0.934661 182.412 2.06073 182.293 2.92145 182.349C3.82407 182.343 4.7003 182.207 5.55904 181.965C10.6647 180.544 15.0776 177.56 20.2023 176.826C21.6317 176.598 23.1077 176.551 24.578 176.556C25.7635 176.564 26.9607 176.612 28.1367 176.705C28.1496 176.58 28.1626 176.456 28.1756 176.332C26.9861 176.196 25.7877 176.108 24.5886 176.062C23.1014 176.011 21.6074 176.013 20.11 176.21C14.8081 176.832 10.2485 179.776 5.30792 181.072C4.53479 181.281 3.71623 181.398 2.92388 181.395C2.16509 181.403 1.24096 181.2 1.10082 180.818C0.730347 179.953 1.2552 178.634 2.00783 177.87C2.76903 177.113 3.57384 176.398 4.40917 175.703C8.70005 172.18 13.5443 169.248 18.7923 167.427C23.6145 165.84 28.6369 164.738 33.6567 163.785C34.8255 163.571 36.0049 163.37 37.179 163.204Z" fill="#6C772B"/>
<path d="M68.4981 156.492C68.6237 156.535 68.7608 156.526 68.8795 156.466C68.9981 156.407 69.0884 156.303 69.1306 156.176C69.1727 156.05 69.1632 155.912 69.1039 155.793C69.0446 155.675 68.9404 155.585 68.8144 155.544C68.8144 155.544 68.8144 155.544 68.8144 155.544C67.8194 155.218 66.8483 154.918 65.851 154.628C55.5015 151.807 44.7359 150.415 35.8276 144.246C29.1281 140.284 24.0303 134.17 17.3745 129.989C16.516 129.428 15.6454 128.887 14.7527 128.357C14.7102 128.332 14.6592 128.325 14.6111 128.337C14.563 128.349 14.5217 128.38 14.4963 128.422C14.4708 128.465 14.4633 128.515 14.4752 128.563C14.4871 128.612 14.5175 128.653 14.5598 128.679C14.5598 128.679 14.5598 128.679 14.5598 128.679C15.4427 129.215 16.3029 129.761 17.1504 130.328C23.7062 134.532 28.7361 140.698 35.4849 144.79C44.3754 151.099 55.4464 152.682 65.5762 155.557C66.56 155.854 67.5173 156.16 68.4981 156.492Z" fill="#6C772B"/>
<path d="M84.8294 96.0902C84.8481 96.0443 84.8481 95.9928 84.8291 95.947C84.8102 95.9012 84.7739 95.8647 84.7282 95.8457C84.6824 95.8266 84.631 95.8265 84.5851 95.8453C84.5392 95.8642 84.5027 95.9004 84.4833 95.946C84.4833 95.946 84.4833 95.946 84.4833 95.946C83.4707 98.3217 82.409 100.678 81.3222 103.022C77.7994 110.796 73.6318 118.259 70.7754 126.401C67.5635 138.055 68.0895 150.21 69.1639 162.08C69.518 164.912 70.1057 167.703 70.8573 170.448C71.1106 171.366 71.3758 172.268 71.6843 173.182L71.7002 172.814C70.1173 176.235 68.4117 179.676 66.2604 182.73C63.3595 186.759 60.2737 190.763 55.9351 193.12C54.6141 193.35 52.3963 193.494 50.8955 194.666C48.8295 196.05 46.7465 199.074 48.2918 201.7C49.8595 203.682 52.1365 203.25 54.0213 203.094C55.9498 202.797 57.8877 202.134 59.3928 200.777C60.5873 199.421 60.8604 197.81 61.8848 196.747C64.5876 194.026 66.9539 190.987 70.0764 188.842C71.3579 187.957 72.7536 187.239 74.2256 186.718C75.1021 186.461 76.1606 186.579 77.1258 186.703C77.1747 186.711 77.2248 186.699 77.2651 186.67C77.3054 186.641 77.3325 186.597 77.3406 186.549C77.3487 186.5 77.337 186.45 77.3082 186.409C77.2794 186.369 77.2357 186.342 77.1869 186.333C77.1869 186.333 77.1869 186.333 77.1869 186.333C76.1729 186.194 75.1635 186.031 74.0871 186.318C72.5732 186.828 71.127 187.544 69.7993 188.433C66.5619 190.592 64.1319 193.637 61.4278 196.29C60.2369 197.533 59.8586 199.258 58.9199 200.259C56.2904 202.454 51.3267 203.447 49.0208 201.336C47.7717 199.137 49.4205 196.746 51.4172 195.37C52.7833 194.355 54.298 194.364 56.3776 193.916C60.9235 191.482 64.1405 187.323 67.0522 183.306C69.2978 180.133 70.9983 176.701 72.6124 173.222L72.6932 173.041L72.6283 172.854C72.3356 171.985 72.0696 171.083 71.8215 170.183C71.0813 167.481 70.5004 164.73 70.1488 161.957C69.0605 150.228 68.4925 138.052 71.5372 126.635C74.2606 118.629 78.3615 111.047 81.7716 103.227C82.8259 100.863 83.8532 98.4868 84.8294 96.0902Z" fill="#6C772B"/>
<path d="M79.1562 179.518C76.6562 186.518 75.1562 196.518 75.1562 196.518C75.1562 196.518 68.1562 201.518 68.1562 205.018C68.1563 207.503 70.1846 210.278 72.6562 210.018C82.1562 209.018 80.1562 198.018 80.1562 198.018C80.1562 198.018 83.3023 183.947 91.6562 182.018C100.01 180.089 102.156 190.018 108.656 190.518C111.577 190.743 114.848 189.441 114.656 186.518C114.361 182.018 107.826 184.808 105.656 182.518C96.6563 173.018 92.1562 169.018 92.1562 169.018C92.1562 169.018 91.4262 154.191 89.6562 144.518C88.3614 137.442 87.0063 133.403 85.1562 127.346C84.8383 126.305 84.5057 125.204 84.1562 124.018" stroke="#6C772B" stroke-linecap="round"/>
<path d="M67.5033 182.136C67.4931 182.011 67.4828 181.886 67.4725 181.762C66.3662 181.831 65.2633 182.043 64.2077 182.393C61.5309 183.281 59.2606 184.931 56.8195 186.121C55.0232 187.05 54.3192 188.995 52.8248 189.555C50.0686 190.584 46.3759 191.992 44.3572 190.129C43.4693 189.001 43.6466 187.057 44.4243 185.692C44.5842 185.406 44.7774 185.143 45.0024 184.911C46.5326 183.36 49.1335 183.41 51.4787 183.433C52.336 183.455 53.1583 183.39 53.9734 183.421C58.8166 182.757 62.3074 179.532 65.2532 176.17C66.6186 174.495 67.8719 172.723 68.9852 170.877C69.5554 169.939 70.1 168.993 70.6483 168.046C70.5413 167.981 70.4343 167.916 70.3273 167.852C69.7432 168.778 69.1655 169.702 68.5678 170.613C67.4001 172.407 66.1171 174.107 64.7227 175.728C61.8674 178.899 58.0498 181.995 54.0021 182.477C53.1483 182.435 52.3097 182.492 51.4976 182.464C49.1486 182.452 46.3228 182.232 44.2845 184.215C43.9964 184.511 43.7503 184.848 43.5516 185.205C42.6624 186.86 42.3081 189.033 43.6187 190.768C44.9867 192.241 46.9739 192.041 48.5298 191.797C50.146 191.505 51.6737 190.966 53.1511 190.343C55.0719 189.484 55.6986 187.506 57.1563 186.777C59.6271 185.491 61.827 183.797 64.3702 182.859C65.376 182.487 66.4299 182.244 67.5033 182.136Z" fill="#6C772B"/>
<path d="M84.6932 126.829C84.6419 126.952 84.6416 127.089 84.6931 127.211C84.7445 127.333 84.8435 127.431 84.9676 127.481C85.0917 127.532 85.2304 127.531 85.3526 127.48C85.4749 127.428 85.5705 127.33 85.6193 127.207C85.6193 127.207 85.6193 127.207 85.6193 127.207C85.8098 126.719 85.9811 126.257 86.1608 125.765C89.2757 117.084 91.6455 108.155 93.1104 99.0632C93.1903 98.5602 93.2674 98.055 93.3415 97.547C93.3486 97.4983 93.3359 97.4485 93.3066 97.4087C93.2772 97.3689 93.2335 97.3423 93.1849 97.3347C93.1363 97.3271 93.0866 97.3391 93.0465 97.3681C93.0063 97.397 92.9791 97.4406 92.971 97.4891C92.971 97.4891 92.971 97.4891 92.971 97.4891C92.8869 97.9939 92.7998 98.4958 92.7099 98.9954C91.0663 108.023 88.5207 116.874 85.2541 125.424C85.0672 125.905 84.8851 126.366 84.6932 126.829Z" fill="#6C772B"/>
<path d="M91.4835 105.417C91.4559 105.463 91.4478 105.517 91.4613 105.568C91.4748 105.619 91.5088 105.664 91.5555 105.691C91.6021 105.718 91.6574 105.726 91.7087 105.712C91.76 105.699 91.8031 105.665 91.829 105.619C91.829 105.619 91.829 105.619 91.829 105.619C91.8855 105.518 91.9421 105.417 91.9986 105.316C93.0162 103.497 94.0338 101.678 95.0514 99.859C95.108 99.758 95.1645 99.6569 95.221 99.5559C95.2306 99.5388 95.2329 99.5185 95.2277 99.4995C95.2225 99.4804 95.2102 99.4643 95.1934 99.4544C95.1765 99.4446 95.1564 99.4418 95.1373 99.4467C95.1182 99.4515 95.1016 99.4636 95.0915 99.4803C95.0915 99.4803 95.0915 99.4803 95.0915 99.4803C95.0313 99.5792 94.9712 99.6782 94.9111 99.7771C93.8287 101.558 92.7463 103.339 91.6639 105.12C91.6038 105.219 91.5436 105.318 91.4835 105.417Z" fill="#6C772B"/>
<path d="M77.6032 169.465C77.5909 169.48 77.5837 169.498 77.584 169.518C77.5843 169.537 77.592 169.555 77.6054 169.569C77.6189 169.582 77.6373 169.59 77.6566 169.59C77.676 169.591 77.6946 169.583 77.7093 169.571C77.7093 169.571 77.7093 169.571 77.7093 169.571C77.7817 169.51 77.8578 169.45 77.9353 169.391C78.6309 168.87 79.3795 168.418 80.1257 167.97C80.8755 167.526 81.6299 167.086 82.4156 166.709C82.5039 166.667 82.5927 166.627 82.68 166.589C82.6975 166.582 82.7123 166.568 82.7207 166.551C82.7291 166.533 82.7305 166.513 82.7244 166.495C82.7184 166.477 82.7054 166.462 82.6882 166.453C82.671 166.444 82.6511 166.442 82.6325 166.447C82.6325 166.447 82.6325 166.447 82.6325 166.447C82.5377 166.47 82.4412 166.496 82.3454 166.525C81.4904 166.783 80.6847 167.174 79.921 167.626C79.1607 168.083 78.4306 168.603 77.8037 169.244C77.7339 169.316 77.6663 169.39 77.6032 169.465Z" fill="#6C772B"/>
<path d="M92.2342 160.024C92.1033 160.003 91.9696 160.035 91.8623 160.113C91.7551 160.191 91.6831 160.309 91.6624 160.44C91.6416 160.572 91.6737 160.706 91.7517 160.813C91.8297 160.92 91.9472 160.992 92.0783 161.012C92.0783 161.012 92.0783 161.012 92.0783 161.012C94.373 161.366 96.702 161.461 99.0127 161.33C106.448 160.896 113.602 158.246 119.864 154.354C143.518 137.444 141.917 105.092 158.236 83.0718C161.826 77.6794 165.702 72.4586 168.682 66.6936C169.745 64.6708 170.724 62.6106 171.656 60.5181C170.708 62.6038 169.715 64.6564 168.638 66.6702C165.618 72.4093 161.709 77.5941 158.077 82.9644C141.616 104.907 142.714 137.443 119.448 153.682C113.256 157.471 106.203 160.013 98.9626 160.382C96.7123 160.492 94.4527 160.383 92.2342 160.024Z" fill="#6C772B"/>
<path d="M140.208 159.838C140.16 159.825 140.109 159.832 140.066 159.856C140.023 159.88 139.992 159.92 139.978 159.967C139.965 160.014 139.97 160.065 139.994 160.108C140.018 160.152 140.058 160.184 140.105 160.198C140.105 160.198 140.105 160.198 140.105 160.198C140.983 160.471 141.822 160.767 142.646 161.101C150.377 163.881 154.709 171.788 162.423 175.167C165.65 176.797 169.046 177.987 172.532 178.952C174.274 179.434 176.054 179.399 177.748 179.43C179.397 179.46 181.289 179.589 181.866 181.134C182.331 182.089 181.895 183.144 180.994 183.758C180.302 184.262 179.455 184.611 178.617 184.835C178.569 184.846 178.527 184.875 178.501 184.917C178.474 184.958 178.465 185.009 178.475 185.057C178.485 185.105 178.514 185.147 178.555 185.174C178.597 185.201 178.647 185.211 178.695 185.201C178.695 185.201 178.695 185.201 178.695 185.201C179.603 185.003 180.483 184.689 181.279 184.161C182.301 183.58 183.01 182.083 182.446 180.902C181.759 178.905 179.381 178.715 177.776 178.644C176.052 178.569 174.353 178.553 172.78 178.084C169.35 177.068 166.024 175.865 162.875 174.275C155.428 171.064 150.916 163.228 142.822 160.64C141.97 160.336 141.107 160.073 140.208 159.838Z" fill="#6C772B"/>
<path d="M151.773 171.372C151.734 171.341 151.685 171.327 151.636 171.333C151.587 171.339 151.542 171.363 151.511 171.402C151.48 171.44 151.466 171.49 151.471 171.539C151.477 171.588 151.501 171.633 151.539 171.664C151.539 171.664 151.539 171.664 151.539 171.664C152.512 172.469 153.492 173.265 154.484 174.047C159.831 178.358 165.816 181.867 171.951 184.93C174.068 185.971 176.35 185.578 178.336 185.783C180.454 185.815 181.601 187.49 181.658 189.556C181.674 189.776 181.654 189.982 181.595 190.184C179.937 193.195 174.549 192.807 171.384 191.109C165.286 187.385 159.554 182.279 152.393 180.219C151.178 179.848 149.941 179.551 148.691 179.334C148.643 179.325 148.593 179.336 148.552 179.364C148.511 179.392 148.483 179.435 148.474 179.483C148.464 179.532 148.475 179.582 148.502 179.623C148.53 179.664 148.573 179.692 148.621 179.702C148.621 179.702 148.621 179.702 148.621 179.702C149.848 179.957 151.057 180.288 152.241 180.689C159.244 182.937 164.65 187.992 170.929 191.927C172.781 192.958 174.894 193.407 176.991 193.353C178.984 193.226 181.579 192.918 182.555 190.466C182.65 190.142 182.68 189.81 182.655 189.48C182.561 188.379 182.351 187.214 181.576 186.241C180.792 185.247 179.509 184.902 178.433 184.81C176.254 184.625 174.117 184.967 172.362 184.106C166.203 181.12 160.24 177.79 154.784 173.654C153.773 172.906 152.77 172.142 151.773 171.372Z" fill="#6C772B"/>
<path d="M144.294 173.39C144.26 173.355 144.213 173.333 144.163 173.332C144.114 173.33 144.066 173.348 144.029 173.381C143.993 173.415 143.972 173.462 143.97 173.511C143.968 173.561 143.986 173.609 144.019 173.646C144.019 173.646 144.019 173.646 144.019 173.646C145.395 175.156 146.648 176.754 147.757 178.458C149.853 181.522 151.222 185.623 155.004 187.323C157.086 188.396 159.135 189.595 160.879 191.112C161.725 191.868 162.557 192.751 162.823 193.737C163.117 194.725 162.404 195.6 161.436 196.151C156.423 199.638 152.134 193.512 149.57 189.264C147.125 185.48 143.971 182.258 140.363 179.604C138.095 177.981 135.574 176.582 132.749 176.032C125.856 174.411 123.21 182.634 117.583 183.078C116.255 183.296 114.829 183.197 113.56 182.76C112.299 182.349 111.18 181.351 111.548 180.116C111.804 178.858 112.816 178.022 114.11 177.892C115.438 177.659 116.588 178.184 118.321 177.829C122.561 175.802 123.812 171.003 126.226 167.611C127.396 165.978 128.966 164.645 130.745 163.684C130.788 163.66 130.821 163.62 130.835 163.573C130.849 163.525 130.844 163.474 130.821 163.43C130.798 163.387 130.758 163.354 130.711 163.339C130.663 163.325 130.612 163.33 130.568 163.353C128.731 164.296 127.071 165.649 125.829 167.317C123.257 170.84 122 175.378 117.992 177.207C117.041 177.376 115.414 176.936 114.012 177.139C112.55 177.216 111.035 178.425 110.764 179.92C110.536 180.707 110.743 181.681 111.303 182.298C111.847 182.929 112.56 183.301 113.272 183.564C114.711 184.07 116.232 184.187 117.73 183.958C124.014 183.243 126.623 175.348 132.564 177.004C135.166 177.514 137.586 178.843 139.778 180.416C143.265 182.973 146.398 186.17 148.743 189.773C150.195 192.081 151.698 194.425 153.852 196.274C155.902 198.283 159.552 198.556 161.876 196.885C162.933 196.312 164.074 194.949 163.614 193.531C163.225 192.215 162.29 191.327 161.391 190.526C159.534 188.953 157.443 187.775 155.309 186.713C151.755 185.2 150.365 181.303 148.168 178.185C147.012 176.479 145.712 174.885 144.294 173.39Z" fill="#6C772B"/>
<path d="M130.34 143.557C130.347 143.509 130.337 143.459 130.31 143.419C130.283 143.378 130.241 143.35 130.194 143.34C130.147 143.33 130.097 143.339 130.056 143.365C130.015 143.392 129.985 143.433 129.973 143.479C129.973 143.479 129.973 143.479 129.973 143.479C129.876 143.837 129.786 144.176 129.695 144.531C128.884 147.683 128.263 150.899 127.976 154.16C127.68 157.42 127.742 160.69 127.91 163.934C127.928 164.297 127.948 164.652 127.969 165.018C127.972 165.066 127.992 165.113 128.027 165.147C128.061 165.181 128.108 165.2 128.156 165.2C128.205 165.2 128.251 165.181 128.286 165.147C128.321 165.113 128.341 165.066 128.344 165.018C128.365 164.652 128.384 164.297 128.403 163.934C128.573 160.688 128.681 157.457 128.972 154.249C129.255 151.038 129.7 147.838 130.179 144.629C130.233 144.268 130.284 143.922 130.34 143.557Z" fill="#6C772B"/>
<path d="M149.047 116.366C149.007 116.395 148.98 116.439 148.972 116.488C148.964 116.537 148.976 116.587 149.005 116.627C149.034 116.667 149.077 116.695 149.126 116.703C149.175 116.711 149.225 116.699 149.266 116.67C149.266 116.67 149.266 116.67 149.266 116.67C151.761 114.902 154.245 113.161 156.824 111.553C164.535 106.291 173.944 104.701 183.156 104.907C186.735 104.936 190.343 105.378 193.769 106.374C197.002 107.366 201.095 109.071 201.196 112.518C201.195 113.189 201.193 113.847 201.192 114.518C201.446 118.405 197.607 120.732 195.142 123.656C192.481 126.506 190.03 129.565 187.752 132.727C186.327 134.705 184.626 136.483 182.76 138.065C174.026 145.27 162.71 148.84 151.603 150.565C151.06 150.629 151.163 151.532 151.707 151.471C161.783 150.504 172.064 149.95 182.102 151.357C187.777 152.307 193.332 154.23 198.47 156.858C200.16 157.828 202.383 158.838 202.949 160.518C202.929 161.372 201.926 161.985 201.09 162.342C201.044 162.36 201.007 162.395 200.986 162.441C200.966 162.486 200.964 162.537 200.981 162.584C200.999 162.63 201.034 162.668 201.079 162.688C201.124 162.709 201.176 162.711 201.222 162.694C201.222 162.694 201.222 162.694 201.222 162.694C202.124 162.294 203.256 161.768 203.364 160.518C202.602 158.232 200.419 157.502 198.704 156.423C193.531 153.699 187.984 151.707 182.21 150.68C172.055 149.159 161.764 149.644 151.606 150.565L151.709 151.471C163.009 149.769 174.411 146.23 183.406 138.827C185.326 137.2 187.083 135.363 188.56 133.309C190.816 130.17 193.233 127.143 195.855 124.318C198.201 121.453 202.342 119.026 202.121 114.518C202.119 113.847 202.118 113.189 202.116 112.518C201.822 108.118 197.296 106.598 194.009 105.55C190.472 104.549 186.809 104.13 183.156 104.129C173.916 103.984 164.245 105.733 156.56 111.135C153.985 112.786 151.52 114.562 149.047 116.366Z" fill="#6C772B"/>
<path d="M169.156 154.331C169.107 154.332 169.06 154.351 169.025 154.387C168.99 154.422 168.971 154.469 168.971 154.518C168.971 154.567 168.99 154.615 169.025 154.65C169.06 154.685 169.107 154.705 169.156 154.706C169.156 154.706 169.156 154.706 169.156 154.706C170.169 154.727 171.155 154.766 172.162 154.824C181.119 155.377 190.126 157.245 198.156 161.134C199.287 161.702 200.376 162.311 201.402 163.031C201.898 163.382 202.399 163.776 202.797 164.194C202.997 164.405 203.174 164.625 203.279 164.84C203.327 164.936 203.354 165.04 203.353 165.086C203.35 165.14 203.352 165.137 203.317 165.179C201.126 167.073 197.419 165.768 194.362 165.293C191.185 164.672 187.938 164.12 184.667 164.145C183.656 164.151 182.643 164.21 181.638 164.332C181.589 164.337 181.544 164.362 181.513 164.4C181.481 164.439 181.467 164.488 181.472 164.537C181.477 164.585 181.501 164.631 181.539 164.662C181.577 164.693 181.626 164.709 181.675 164.705C181.675 164.705 181.675 164.705 181.675 164.705C182.67 164.626 183.667 164.607 184.661 164.639C187.876 164.735 191.046 165.373 194.203 166.069C197.285 166.532 200.823 168.29 203.996 165.857C204.201 165.659 204.321 165.365 204.317 165.085C204.318 164.832 204.235 164.594 204.153 164.423C203.97 164.046 203.746 163.783 203.509 163.524C203.039 163.025 202.502 162.601 201.975 162.224C200.889 161.453 199.767 160.825 198.604 160.24C190.376 156.256 181.217 154.552 172.181 154.33C171.166 154.31 170.174 154.31 169.156 154.331Z" fill="#6C772B"/>
<path d="M155.192 156.334C155.144 156.325 155.093 156.336 155.052 156.364C155.011 156.391 154.983 156.434 154.974 156.482C154.964 156.531 154.974 156.581 155.002 156.622C155.029 156.663 155.072 156.692 155.12 156.702C155.12 156.702 155.12 156.702 155.12 156.702C156.364 156.966 157.596 157.242 158.816 157.531C163.946 158.75 169.008 160.197 173.94 162.03C176.38 162.944 178.83 163.965 181.126 165.174C182.272 165.783 183.41 166.45 184.407 167.225C185.356 167.94 186.461 169.167 185.804 169.665C185.398 170.071 184.596 170.228 183.826 170.27C172.725 169.485 161.975 164.659 150.911 162.131C149.673 161.835 148.43 161.561 147.193 161.334C147.144 161.325 147.094 161.336 147.053 161.363C147.012 161.391 146.984 161.433 146.974 161.482C146.964 161.53 146.974 161.58 147.001 161.621C147.029 161.663 147.071 161.691 147.119 161.702C147.119 161.702 147.119 161.702 147.119 161.702C148.339 161.967 149.566 162.278 150.789 162.61C161.785 165.451 172.184 170.432 183.881 171.268C184.744 171.201 185.707 171.118 186.509 170.371C186.835 170.063 187.049 169.543 186.985 169.071C186.931 168.604 186.728 168.247 186.517 167.94C186.077 167.325 185.555 166.877 185.01 166.45C183.928 165.619 182.75 164.945 181.567 164.33C179.203 163.112 176.711 162.111 174.232 161.227C169.225 159.456 164.104 158.119 158.923 157.049C157.691 156.796 156.447 156.558 155.192 156.334Z" fill="#6C772B"/>
<path d="M128.138 158.071C128.152 158.075 128.168 158.074 128.181 158.067C128.194 158.06 128.203 158.049 128.208 158.035C128.212 158.022 128.211 158.007 128.205 157.993C128.199 157.98 128.187 157.97 128.174 157.965C128.174 157.965 128.174 157.965 128.174 157.965C127.996 157.892 127.808 157.821 127.626 157.755C126.889 157.49 126.13 157.279 125.367 157.11C122.689 156.525 119.968 156.192 117.241 155.997C117.05 155.985 116.846 155.972 116.66 155.962C116.646 155.961 116.631 155.966 116.62 155.976C116.609 155.986 116.602 155.999 116.601 156.014C116.6 156.029 116.605 156.043 116.614 156.055C116.624 156.066 116.638 156.073 116.652 156.074C116.652 156.074 116.652 156.074 116.652 156.074C116.836 156.092 117.04 156.113 117.229 156.134C119.941 156.436 122.644 156.822 125.302 157.403C126.06 157.571 126.819 157.741 127.574 157.927C127.76 157.973 127.953 158.023 128.138 158.071Z" fill="#6C772B"/>
<path d="M145.156 17.0181C146.892 17.0181 148.505 17.3859 149.851 18.0161C150.362 18.8993 150.656 19.9241 150.656 21.0181C150.656 24.3318 147.97 27.0181 144.656 27.0181C141.343 27.0181 138.656 24.3318 138.656 21.0181C138.656 20.2467 138.803 19.5099 139.068 18.8325C140.612 17.7139 142.769 17.0181 145.156 17.0181Z" fill="#A98C4A"/>
<path d="M119.7 25.3005C121.207 24.8292 122.712 24.6871 124.084 24.8282C125.123 25.5524 125.944 26.6095 126.362 27.9087C127.378 31.0628 125.645 34.4433 122.491 35.4594C119.337 36.4754 115.956 34.7422 114.94 31.5881C114.601 30.5351 114.569 29.4569 114.793 28.4498C115.937 27.0874 117.642 25.9439 119.7 25.3005Z" fill="#A98C4A"/>
<circle cx="144.656" cy="21.0181" r="4" fill="black"/>
<circle cx="120.651" cy="29.7488" r="4" transform="rotate(-17.8556 120.651 29.7488)" fill="black"/>
<path d="M133.368 24.3338C133.316 24.4128 133.29 24.5083 133.301 24.6037C133.311 24.6991 133.357 24.7859 133.429 24.8461C133.502 24.9063 133.595 24.9358 133.691 24.929C133.787 24.9223 133.876 24.8793 133.944 24.8139C133.944 24.8139 133.944 24.8139 133.944 24.8139C134.212 24.5572 134.479 24.3011 134.746 24.0454C137.145 21.7713 139.529 19.43 142.294 18.2261C145.032 16.9579 148.178 17.5787 150.985 19.2426C151.303 19.4254 151.601 19.6044 151.92 19.8093C151.999 19.8603 152.095 19.8854 152.191 19.8736C152.286 19.8618 152.372 19.8148 152.431 19.7418C152.491 19.6689 152.519 19.5748 152.511 19.4792C152.503 19.3835 152.459 19.2948 152.393 19.2273C152.393 19.2273 152.393 19.2273 152.393 19.2273C152.116 18.9487 151.853 18.6969 151.561 18.4407C149.127 16.1274 144.947 14.7511 141.509 16.3866C138.127 17.8909 135.912 20.681 133.995 23.4051C133.782 23.7128 133.574 24.0222 133.368 24.3338Z" fill="#6C772B"/>
<path d="M105.365 36.7822C105.311 36.8616 105.286 36.958 105.297 37.054C105.309 37.1499 105.357 37.237 105.43 37.2968C105.504 37.3566 105.599 37.385 105.696 37.3764C105.792 37.3679 105.881 37.3226 105.947 37.2541C105.947 37.2541 105.947 37.2541 105.947 37.2541C106.275 36.9154 106.593 36.5893 106.916 36.2583C109.827 33.2986 112.695 30.3045 115.966 28.0401C119.195 25.7297 123.117 24.7749 127.089 25.8287C127.531 25.9342 127.96 26.052 128.404 26.1894C128.495 26.2176 128.595 26.2147 128.683 26.1761C128.772 26.1375 128.842 26.067 128.878 25.9791C128.914 25.8912 128.914 25.792 128.878 25.7022C128.843 25.6123 128.774 25.54 128.689 25.4959C128.689 25.4959 128.689 25.4959 128.689 25.4959C128.262 25.275 127.84 25.0755 127.397 24.8905C123.483 23.0473 118.337 23.7918 114.84 26.3878C111.245 28.8863 108.574 32.2148 106.155 35.6286C105.888 36.0105 105.629 36.3891 105.365 36.7822Z" fill="#6C772B"/>
<circle cx="117.988" cy="28.9487" r="1.5" fill="white"/>
<circle cx="141.988" cy="20.9487" r="1.5" fill="white"/>
<path d="M137.988 40.9489C138.23 40.8998 138.488 40.8416 138.731 40.7881C140.946 40.3013 143.05 39.6435 145.067 38.9291C145.622 38.7349 146.178 38.5368 146.717 38.3589C148.144 37.8933 149.663 37.4961 151.25 37.1152C151.496 37.0578 151.74 37.0004 151.988 36.949C151.747 36.8673 151.503 36.7979 151.254 36.7352C149.64 36.3348 147.945 36.2325 146.26 36.5389C145.62 36.6575 145.001 36.8336 144.406 37.0415C142.251 37.8055 140.314 38.9862 138.562 40.4475C138.371 40.6092 138.169 40.7811 137.988 40.9489Z" fill="#CDCC62"/>
<defs>
<radialGradient id="paint0_radial_101_11574" cx="0" cy="0" r="1" gradientUnits="userSpaceOnUse" gradientTransform="translate(162.488 -13.5513) rotate(109.154) scale(188.961 123.347)">
<stop offset="0.867346" stop-color="#AEB05C"/>
<stop offset="0.931321" stop-color="#A0A24F"/>
<stop offset="1" stop-color="#8A8C41"/>
</radialGradient>
</defs>
</svg>
