<svg width="377" height="79" viewBox="0 0 377 79" fill="none" xmlns="http://www.w3.org/2000/svg">
<path d="M0.913086 32.5C0.913086 17.036 13.4491 4.5 28.9131 4.5H346.913C362.377 4.5 374.913 17.036 374.913 32.5V48.5C374.913 63.964 362.377 76.5 346.913 76.5H28.9131C13.4491 76.5 0.913086 63.964 0.913086 48.5V32.5Z" fill="#F9F2D6"/>
<path d="M36.9516 0.045764C41.6808 -0.0714731 47.88 0.0538816 52.5913 0.225939C54.0678 0.279303 53.3202 0.517839 54.3394 0.565416C56.3329 0.658162 58.1901 0.541174 60.16 0.651658C60.8129 0.689441 60.0002 1.06728 60.6848 1.09825C64.4361 1.26524 67.985 1.16899 71.7852 1.24931C90.5035 1.64558 108.903 1.78742 127.85 1.95958C134.098 2.01602 141.692 2.35893 148.145 2.20897C148.899 2.19112 148.45 1.85947 148.593 1.83214C150.841 1.41367 150.093 2.08321 151.561 2.17216C157.386 2.52339 163.864 2.55394 169.47 2.42594C171.856 2.37052 169.464 1.71178 171.866 2.08152C172.032 2.10651 171.427 2.45869 172.081 2.49626C173.565 2.58074 176.379 2.51779 177.529 2.5457C179.744 2.60126 180.111 2.59771 182.206 2.60173C185.071 2.61028 188.478 2.78535 191.552 2.70555C192.208 2.68747 191.34 2.32643 192.386 2.265C193.433 2.20366 196.204 2.23427 197.138 2.31938C198.072 2.40453 197.674 2.68829 197.84 2.75334C199.2 3.30232 202.405 2.54198 202.817 2.52317C210.335 2.20278 216.782 2.63592 223.839 2.63468C229.197 2.63283 234.925 2.48983 240.023 2.50944C246.096 2.5342 251.243 2.72984 257.143 2.69621C257.766 2.69307 257.036 2.26858 257.797 2.2639C265.877 2.2145 273.9 2.26077 281.945 2.54734C282.752 2.57646 281.713 2.94916 282.519 3.00053C287.454 3.30682 295.263 4.04261 298.194 2.4199C301.537 2.48327 305.595 2.54873 308.586 2.87583C310.514 3.08636 308.641 3.49238 311.01 3.31913C311.544 3.28053 310.849 2.92496 311.651 2.89396C315.024 2.76379 318.709 2.87937 322.046 2.69566C322.725 2.65745 322.539 2.33885 322.732 2.28147C324.348 1.81684 327.039 2.58491 327.625 2.64073C332.092 3.05692 335.353 2.89314 339.514 2.9033C340.48 2.90584 339.338 2.47788 340.268 2.46495C342.461 2.43703 344.69 2.42944 346.913 2.44736C349.77 2.46649 352.606 2.93612 355.214 3.79945C356.272 4.16042 355.185 4.21385 355.679 4.40585C357.819 5.2906 358.566 4.85924 360.535 5.99632C360.943 6.24276 360.559 6.39545 360.62 6.46575C361.541 7.55699 362.897 7.53111 363.206 7.71502C366.998 10.0277 368.478 12.6367 370.971 15.9388C371.265 16.3478 370.956 15.1763 371.761 16.3539C374.88 20.9861 376.62 26.7847 376.512 32.5C376.453 36.3042 376.358 40.0838 376.227 43.7595C376.179 45.1429 375.882 44.1554 375.846 44.2424C375.274 45.6613 376.04 46.5794 376.069 47.0304C376.098 47.5254 376.11 48.0159 376.112 48.5C376.13 51.6559 375.253 54.37 375.401 56.6824C371.801 68.9962 359.69 78.3383 346.913 77.8569C343.955 77.7826 341 77.6731 338.046 77.5117C337.856 77.5022 338.197 77.1252 337.818 77.1079C333.253 76.8962 334.129 77.4822 331.109 78.1989C330.348 78.3788 328.033 77.5136 327.828 77.4502C327.082 77.2164 327.856 76.6555 327.606 76.6103C325.538 76.2548 325.875 78.1098 323.086 78.1104C322.999 78.1073 323.365 77.7659 323.131 77.732C322.404 77.6254 321.682 77.761 320.971 77.6435C319.342 77.3716 318.762 76.4702 316.274 76.9948C315.959 77.0629 316.44 78.1151 313.949 78.0654C312.957 78.0447 308.562 78.0627 307.33 77.9945C306.1 77.9264 306.945 77.5873 306.857 77.5727C303.543 77.1243 304.799 76.9384 303.139 76.2746C301.478 75.6133 301.939 77.1906 301.262 77.3667C300.584 77.5422 298.154 77.1723 297.556 77.0437C296.959 76.915 297.704 76.6995 297.173 76.6267C293.654 76.151 295.629 77.4097 294.469 77.66C291.735 78.2528 289.606 77.083 287.103 76.9684C286.426 76.9375 286.978 77.2039 286.375 77.2288C283.987 77.3239 282.551 76.9589 279.834 77.2936C279.389 77.3481 277.193 78.0514 275.771 77.5353C275.569 77.4609 276.142 77.1694 275.124 77.1041C273.603 77.0061 270.864 76.9424 269.229 77.0398C268.022 77.1119 269.406 77.5922 267.887 77.443C267.212 77.3764 268.463 77.0954 267.194 76.9937C265.933 76.892 262.707 76.9043 261.48 76.914C260.255 76.9239 260.926 77.2883 260.827 77.3128C260.227 77.4534 257.876 77.6291 257.668 77.6287C247.188 77.6732 237.523 77.059 227.319 77.2623C226.519 77.2777 227.052 77.6619 226.93 77.6682C224.188 77.8292 226.35 76.8077 224.435 76.4658C224.712 77.2454 223.581 77.1043 221.65 77.1898C220.719 77.2316 221.226 77.5335 221.141 77.5644C219.761 78.0229 218.801 77.4307 218.553 77.3095C217.639 76.8639 216.645 77.3905 216.023 77.0926C215.401 76.7969 216.832 76.3586 214.98 76.3642C214.46 76.6433 215.835 77.3726 214.429 77.4908C209.124 77.9379 199.221 77.3657 194.955 77.3062C190.698 77.2468 189.323 77.2983 186.842 77.1975C182.361 77.0151 184.004 77.5562 181.221 77.8039C178.431 78.0516 179.787 76.7201 179.386 76.4339C178.992 76.1478 178.562 76.4423 178.073 76.2851C177.584 76.1278 178.641 75.9332 177.493 75.8742C176.344 75.8152 173.203 76.3242 172.796 76.6234C171.935 77.2575 173.351 77.9229 170.311 77.6891C170.136 77.6752 170.703 77.3251 170.034 77.2898C164.717 77.0202 159.193 77.0035 153.882 76.7652C153.152 76.7318 153.805 76.3424 153.38 76.3186C148.954 76.0695 150.536 76.7262 148.11 77.4557C148.655 76.4848 147.313 75.8909 143.954 75.8852C141.934 75.8814 142.282 76.3054 140.976 76.6042C140.584 76.6943 139.155 76.4032 138.896 76.6026C138.042 77.2544 139.388 77.984 135.925 77.6935C135.773 77.6797 136.257 77.3229 135.732 77.3013C132.337 77.1599 131.931 77.8417 128.263 77.9242C125.387 77.989 120.273 77.5733 116.998 77.5056C117.067 76.4142 113.974 76.6641 112.72 77.4166C110.594 77.3858 108.299 77.4284 106.245 77.3244C105.539 77.2889 106.003 76.9729 105.914 76.9387C104.547 76.4031 103.623 77.1353 103.164 77.164C98.1932 77.443 94.1428 76.8881 89.3984 77.4304C89.2301 77.4499 88.9572 78.2081 87.689 77.6545C87.6069 77.6163 89.1738 77.2714 86.9421 77.2447C84.7099 77.218 80.502 76.8115 77.4031 77.1629C76.6532 77.2474 74.7564 77.8629 73.234 77.382C73.0312 77.3167 73.2531 77.0993 72.9604 76.9783C72.0139 76.5927 71.4972 77.3591 70.3848 76.708C69.2725 76.057 66.9586 75.5695 63.8334 76.0186C63.7339 76.0317 62.9941 76.6391 62.0113 76.6295C60.4423 76.6136 58.2152 76.4871 56.577 76.4911C55.7926 76.4932 56.2947 76.8703 56.1585 76.8772C50.8846 77.0886 47.1311 76.7523 41.4814 76.6064C40.4457 76.5789 37.4694 77.0932 35.4644 76.6866C33.2628 76.2415 35.5251 74.3899 30.4647 74.831C29.9805 74.8729 29.4657 75.037 28.9131 75.2468C27.2584 75.9215 24.8348 76.9136 22.3198 75.3483C15.3546 73.9047 10.0335 69.4128 5.79535 63.8536C5.60442 63.607 4.50113 63.096 4.13329 62.4152C3.5913 61.4129 3.59865 60.7155 3.28685 59.9806C2.00874 56.8888 1.00777 53.9205 0.792307 50.6635C0.731072 49.4572 1.04274 49.8278 1.0579 48.5C1.05877 48.464 1.05944 48.4268 1.05991 48.3882C1.07732 46.9266 0.660106 45.952 0.861607 43.9713C1.0152 42.4754 1.86798 40.9797 1.96738 38.9941C1.12621 38.9184 1.14353 37.5547 0.921482 35.1309C0.8784 34.665 0.585627 35.1646 0.550146 34.9442C0.407206 34.0945 0.617402 33.3048 0.500342 32.5C0.493826 32.4543 0.486405 32.4085 0.477961 32.3627C0.439853 32.1514 0.152935 32.1379 0.107373 31.9624C-0.317469 30.4524 0.64347 28.068 0.841099 27.6995C1.53681 26.2221 1.36142 25.4312 1.86506 24.3111C2.38486 23.2142 2.04407 24.9831 2.56733 23.6892C3.64468 21.0247 5.35103 17.7533 7.18127 15.4927C7.90632 14.5917 7.11648 14.9654 7.21305 14.8309C8.67722 12.8621 10.7669 11.55 11.3642 10.1235C13.9095 10.705 12.36 8.98461 15.6505 7.57064C15.9148 7.46898 16.631 8.13858 15.8048 8.74193C14.9861 9.34485 13.5143 9.9221 12.5204 10.9555C12.2617 11.1936 11.3901 13.0711 11.2641 13.2824C10.1332 14.9139 8.96807 14.211 8.82429 14.2359C7.34575 14.5895 6.65411 17.0984 6.40743 17.6337C5.12488 20.1238 3.98493 22.2107 3.48227 24.4931C3.17582 25.988 4.04436 26.3453 3.77947 27.4522C3.30695 29.6147 2.78166 30.976 2.61958 32.5C2.51332 33.6433 2.56238 34.8418 3.02096 36.4637C3.2568 37.3023 4.25599 36.4689 3.4703 39.4738C3.42077 39.6626 2.70201 41.8936 3.15664 43.1825C3.21397 43.3444 3.50517 43.3393 3.52963 43.5528C3.68786 44.9836 3.45587 45.9378 3.56698 47.4965C3.58995 47.8187 3.61526 48.1544 3.64007 48.5C3.73387 49.7046 3.9133 51.0092 4.02553 52.2733C4.10193 53.2303 3.85102 54.5668 3.84905 55.0644C3.81744 56.4791 4.90666 57.6301 4.80055 58.564C4.71836 59.5371 3.35415 58.2448 4.05134 60.4888C4.7706 60.2388 5.55229 60.0691 6.28927 59.8409C8.36544 64.0395 11.4585 67.7866 15.5462 70.2661C16.0528 70.5676 15.7485 69.9113 16.2927 70.2151C18.5872 71.4627 20.6482 72.6014 23.3486 73.1062C25.1113 73.427 27.0649 73.3297 28.9131 73.1635C29.3025 73.1332 29.6903 73.1083 30.0752 73.0913C31.5764 73.9571 35.2232 73.6632 37.8725 73.7423C38.8005 73.7696 38.7384 74.0008 39.3984 74.0763C41.8883 74.3552 40.7215 73.5902 41.4041 73.4698C44.3326 72.956 44.5833 74.6876 48.036 74.6448C48.219 74.6431 50.4548 73.7201 50.7628 73.6626C52.7196 73.2878 51.0867 73.9839 52.3113 74.0521C54.5472 74.1767 56.101 74.3972 58.7243 74.1268C59.4893 74.0467 61.3242 73.4714 62.8097 73.9164C63.0052 73.9747 62.8971 74.2798 63.0543 74.2976C65.9015 74.5955 65.9764 73.6368 67.6033 73.3122C69.2306 72.9876 71.7438 73.6493 72.2553 73.8401C73.5934 74.3335 71.23 74.0509 71.1575 74.0993C70.3063 74.6755 72.1393 74.5763 73.5398 74.625C73.7426 75.565 75.7012 75.5086 74.9918 74.6717C74.911 74.5803 73.8211 74.668 73.5398 74.625C74.7692 73.7028 76.9218 73.5847 79.2993 74.4465C80.4122 74.8504 79.3601 75.3214 82.7408 75.1491C84.2751 75.0713 83.6822 74.4241 85.0362 74.2477C88.1295 73.8451 92.1491 74.4488 95.3382 74.3537C96.4955 74.3191 95.3681 73.9649 96.1591 73.9291C98.2583 73.8329 100.11 74.0987 102.218 73.9626C102.409 73.9498 101.942 73.5789 102.598 73.5742C107.568 73.5311 111.896 73.7687 117.085 73.7752C119.592 73.7783 124.075 73.5737 126.672 73.6148C131.174 73.6839 136.712 74.2232 140.557 74.0922C143.066 74.0083 142.515 73.6374 143.59 73.3847C145.664 72.8948 149.335 73.7723 149.829 73.9082C149.844 73.9127 147.686 74.0001 148.838 74.1905C149.507 74.5873 149.805 73.9099 149.829 73.9082C150.154 73.996 154.465 74.0802 155.321 74.0092C155.787 73.9705 155.526 73.6191 155.769 73.6055C161.534 73.291 167.309 73.2017 173.157 73.366C173.26 73.3731 173.105 73.7662 173.347 73.778C176.732 73.9528 178.899 73.4719 181.691 73.1864C184.483 72.901 186.697 72.9966 188.349 73.6714C190.455 73.5865 193.477 73.8848 195.216 74.0658C196.955 74.2469 197.197 73.4817 197.35 73.4665C202.122 72.9823 204.881 73.4203 209.832 73.4885C212.186 73.5222 216.854 73.4112 219.403 73.3276C221.417 73.2601 222.63 73.4395 224.486 73.3248C224.737 73.3095 224.484 72.9688 224.56 72.9557C226.632 72.548 225.636 73.3809 226.064 73.5297C227.614 74.0707 228.572 74.3588 231.224 74.1043C231.836 74.046 233.618 72.8467 234.734 72.7766C236.184 72.6876 235.636 73.1175 237.155 73.0133C237.284 73.0048 237.257 72.7396 238.194 72.7513C242.544 72.8021 247.286 72.9564 251.806 72.9298C252.423 72.9272 251.632 72.5066 252.524 72.4959C256.71 72.446 261.298 72.4616 265.376 72.6585C266.379 72.7083 265.75 73.0028 265.968 73.0902C267.306 73.6194 269.203 72.8506 269.516 72.8359C276.982 72.4665 282.696 73.1622 290.306 72.831C290.721 72.8115 293.909 71.9873 295.332 72.6942C295.429 72.7412 296.837 73.4644 298.081 72.9699C298.158 72.939 297.281 72.5667 298.812 72.6047C300.342 72.6425 302.806 72.3939 304.909 72.803C305.575 72.9318 307.15 73.6532 309.136 73.0782C309.266 73.038 312.333 71.7377 313.428 72.6349C313.605 72.7825 313.419 73.7319 315.791 73.2452C316.244 73.1508 315.421 72.939 316.615 72.8068C318.444 72.603 320.867 72.8573 323.115 72.4344C323.507 72.3595 325.176 71.7151 326.515 72.2042C326.724 72.2808 326.326 72.5977 327.033 72.6332C330.395 72.8034 333.915 72.5914 337.328 72.8106C338.537 72.8877 337.919 73.4001 339.18 73.5374C340.44 73.6747 342.979 73.8067 344.298 73.5725C345.617 73.3383 344.176 72.5217 346.153 72.4563C346.406 72.448 346.66 72.4403 346.913 72.4332C354.005 72.2437 361.099 69.36 365.737 63.7444C366.424 62.8845 365.656 63.4362 366.589 62.1325C368.874 58.9868 370.818 53.452 370.802 48.5C370.851 45.4682 370.958 42.6929 371.173 40.6239C371.67 35.8176 372.049 41.866 372.251 38.1933C372.348 36.4209 371.398 34.5035 371.368 34.0757C371.329 33.5303 371.301 33.0067 371.284 32.5C371.142 29.5678 371.05 27.2368 370.036 24.5512C369.786 23.9229 369.645 24.6733 369.434 24.1462C368.705 22.3594 367.908 20.4674 366.828 18.9473C366.339 18.2707 366.191 18.5695 365.752 17.9524C364.677 16.4896 363.65 15.2486 362.45 13.8795C362.336 13.7528 363.436 14.192 362.376 13.2957C360.661 11.8649 358.342 10.1477 355.808 9.48489C355.05 9.29691 354.833 9.89527 353.41 8.99999C353.108 8.82962 353.729 8.10683 351.695 8.38321C351.355 8.39818 348.512 8.81241 346.913 8.46443C346.788 8.43818 346.67 8.40655 346.558 8.36898C346.084 8.20951 344.873 7.5495 343.825 7.65322C343.683 7.66977 344.252 8.03057 343.384 8.06576C340.324 8.18351 337.117 8.14501 333.974 8.25802C333.134 8.28891 334.385 8.66226 333.133 8.69637C329.693 8.79074 325.397 8.69568 322.033 8.57882C320.793 8.53503 321.65 8.22576 321.56 8.1921C320.108 7.64468 319.25 8.38357 318.769 8.42666C315.773 8.68464 313.491 8.33755 310.73 8.4294C309.968 8.45382 310.508 8.80613 310.356 8.83755C308.783 9.14449 309.955 8.51178 308.959 8.44204C306.169 8.24456 303.059 8.27287 300.238 8.31789C299.202 8.33495 300.366 8.74346 299.436 8.75405C293.932 8.82444 288.209 8.78535 282.837 8.56014C281.826 8.51699 282.462 8.20243 282.251 8.13058C280.798 7.62791 278.669 8.31355 278.179 8.37887C275.951 8.67709 275.086 8.39891 273.118 8.45083C263.506 8.70934 251.639 8.5251 242.566 8.41128C230.744 8.26479 221.569 7.96553 210.295 8.04324C209.579 8.04778 210.301 8.46626 209.684 8.47555C201.709 8.57643 193.858 8.41291 185.867 8.53377C185.211 8.54295 186.156 8.93967 185.104 8.96773C182.945 9.02808 180.21 9.00652 178.028 8.87984C176.963 8.81881 178.391 8.47839 177.319 8.42391C174.824 8.29628 172.149 8.26803 169.586 8.33163C168.496 8.35956 170.141 8.7653 168.724 8.76998C159.066 8.81023 149.582 8.88011 139.823 8.3547C139.154 8.31861 138.567 7.49399 137.145 7.65212C137.038 7.88098 137.043 8.15019 136.997 8.3948C122.938 8.52657 109.024 8.24069 94.926 8.1965C94.3316 8.19473 95.3588 8.63165 94.2081 8.63045C87.5477 8.62399 81.0801 8.74504 74.2673 8.31075C73.5913 8.26828 73.9382 7.49962 71.9461 7.61587C71.5948 7.63708 68.5946 7.7396 67.8189 7.90646C67.7136 7.93163 68.2609 8.29041 67.2942 8.30086C61.676 8.35535 55.7885 8.27344 50.18 8.05422C49.2748 8.01816 50.2388 7.63608 49.5941 7.60708C45.0209 7.40426 40.0466 7.6947 35.6768 7.3478C32.7517 7.11423 33.8346 6.45378 32.2803 5.80368C32.0605 5.71196 30.2492 5.69743 30.1555 5.31918C29.9151 4.36806 30.7924 3.32659 30.4324 2.31279C30.3563 2.09442 27.9306 2.32961 29.3668 1.80192C29.4671 1.76661 31.2258 1.59147 31.659 1.41246C31.9606 1.28869 31.4171 0.904022 32.0324 0.745591C32.6477 0.587308 33.3238 0.90976 34.3439 0.723619C35.3636 0.535173 34.9152 0.0975661 36.9516 0.045764ZM203.045 74.875C204.655 75.2424 204.893 73.8965 203.152 74.2185C203.067 74.2357 202.962 74.8569 203.045 74.875ZM11.0179 68.164C12.132 69.9683 13.8028 70.043 12.9673 68.8472C12.1899 67.6576 10.7041 67.6224 11.0179 68.164ZM1.92932 49.9306C1.64339 52.368 3.5888 52.4524 2.99363 50.0734C2.96336 49.9349 1.94947 49.7908 1.92932 49.9306ZM39.4885 5.61856C39.4663 5.60069 38.1642 5.58327 38.1331 5.60098C37.4398 6.02845 40.0433 6.06298 39.4885 5.61856ZM1.72219 28.411C1.33042 29.1219 1.47012 31.3252 1.86021 30.4128C2.14893 29.6977 2.17778 27.5426 1.72219 28.411ZM287.035 76.3114C287.061 76.3315 287.994 76.3495 287.975 76.2362C287.912 75.871 286.613 75.9741 287.035 76.3114ZM25.9765 5.14003C20.7493 5.75405 16.9671 5.64013 22.9448 4.13C24.0225 3.91859 20.7503 5.15894 22.1422 4.97356C24.6239 4.65531 26.2239 3.46073 28.8651 3.95912C29.3101 4.02688 26.2492 5.07241 25.9672 5.14322C25.9703 5.14216 25.9734 5.14109 25.9765 5.14003ZM203.973 76.4916C204.005 76.5094 205.297 76.5263 205.328 76.5086C206.028 76.0813 203.424 76.0471 203.973 76.4916ZM341.504 77.1436C341.575 77.1816 344.574 77.217 344.672 77.1821C346.236 76.4834 340.173 76.4096 341.504 77.1436ZM116.947 77.4765C115.537 77.9064 113.85 77.957 112.726 77.4172C114.127 77.4459 115.538 77.4501 116.947 77.4765Z" fill="#F9F2D6"/>
</svg>
