<svg width="178" height="70" viewBox="0 0 178 70" fill="none" xmlns="http://www.w3.org/2000/svg">
<g filter="url(#filter0_d_60_9982)">
<rect x="9.59961" y="9.6001" width="158" height="50" rx="10" fill="#F9F2D6"/>
</g>
<path d="M57.2285 31.9614V51.3677H52.4648V31.9263C52.4648 30.1099 52.0723 28.8442 51.2871 28.1294C50.5137 27.4028 49.207 27.0396 47.3672 27.0396H40.0547V22.7856H47.6484C49.957 22.7856 51.8086 23.0962 53.2031 23.7173C54.6094 24.3267 55.6289 25.3052 56.2617 26.6528C56.9062 27.9888 57.2285 29.7583 57.2285 31.9614ZM81.6094 42.438C80.6484 42.9771 79.4648 43.4224 78.0586 43.7739C76.6641 44.1138 74.9238 44.3657 72.8379 44.5298C70.7637 44.6938 68.2266 44.7759 65.2266 44.7759L61.1133 22.7856H66.0879L68.0039 33.2974L69.2871 33.0513C70.084 32.8989 70.6699 32.6411 71.0449 32.2778C71.4316 31.9028 71.7246 31.3462 71.9238 30.6079C72.0176 30.2446 72.1055 29.7407 72.1875 29.0962C72.2812 28.4399 72.3691 27.6431 72.4512 26.7056L72.7148 22.7856H77.5664L77.0391 28.7974C76.9688 29.6177 76.8691 30.356 76.7402 31.0122C76.6113 31.6685 76.4473 32.2368 76.248 32.7173C75.8613 33.6782 75.3164 34.4282 74.6133 34.9673C73.9219 35.5063 72.8203 35.9575 71.3086 36.3208L68.6719 36.936L69.3926 40.5396H69.8145C71.2793 40.5396 72.5742 40.481 73.6992 40.3638C74.8359 40.2349 75.8027 40.0415 76.5996 39.7837C77.666 39.4556 78.5449 38.9985 79.2363 38.4126C79.9277 37.8149 80.4727 37.0239 80.8711 36.0396C81.2695 35.0435 81.5508 33.7837 81.7148 32.2603L82.8223 22.7856H87.7266L86.6016 32.1372C86.3672 34.1528 86.0391 35.8228 85.6172 37.147C85.207 38.4712 84.6738 39.5493 84.0176 40.3813C83.373 41.2017 82.5703 41.8872 81.6094 42.438ZM103.459 22.6802C106.447 22.6802 108.621 23.5591 109.98 25.3169C111.34 27.063 112.02 29.7935 112.02 33.5083V44.6001H100.682V40.3462H107.238V33.8774C107.238 31.4048 106.939 29.6353 106.342 28.5688C105.756 27.4907 104.719 26.9517 103.23 26.9517C101.859 26.9517 100.705 27.6372 99.7676 29.0083C98.8301 30.4146 97.957 32.7583 97.1484 36.0396L95.0215 44.6001H89.959L92.332 35.4946C92.625 34.3931 92.9062 33.4087 93.1758 32.5415C93.457 31.6743 93.7266 30.9302 93.9844 30.3091L89.625 23.0317H94.8809L96.5332 26.1255C97.2363 25.0474 98.1973 24.2036 99.416 23.5942C100.646 22.9849 101.994 22.6802 103.459 22.6802ZM136.734 31.9614V44.6001H131.971V31.9263C131.971 30.1333 131.59 28.8735 130.828 28.147C130.066 27.4087 128.742 27.0396 126.855 27.0396H117.943V22.7856H127.154C129.463 22.7856 131.314 23.0962 132.709 23.7173C134.115 24.3384 135.135 25.3228 135.768 26.6704C136.412 28.0063 136.734 29.77 136.734 31.9614ZM123.041 31.3462V44.6001H118.295V31.3462H123.041Z" fill="#5F523F"/>
<defs>
<filter id="filter0_d_60_9982" x="-0.00039053" y="9.77516e-05" width="177.2" height="69.2" filterUnits="userSpaceOnUse" color-interpolation-filters="sRGB">
<feFlood flood-opacity="0" result="BackgroundImageFix"/>
<feColorMatrix in="SourceAlpha" type="matrix" values="0 0 0 0 0 0 0 0 0 0 0 0 0 0 0 0 0 0 127 0" result="hardAlpha"/>
<feMorphology radius="2" operator="dilate" in="SourceAlpha" result="effect1_dropShadow_60_9982"/>
<feOffset/>
<feGaussianBlur stdDeviation="3.8"/>
<feComposite in2="hardAlpha" operator="out"/>
<feColorMatrix type="matrix" values="0 0 0 0 0.423529 0 0 0 0 0.466667 0 0 0 0 0.168627 0 0 0 0.47 0"/>
<feBlend mode="normal" in2="BackgroundImageFix" result="effect1_dropShadow_60_9982"/>
<feBlend mode="normal" in="SourceGraphic" in2="effect1_dropShadow_60_9982" result="shape"/>
</filter>
</defs>
</svg>
