<svg width="378" height="308" viewBox="0 0 378 308" fill="none" xmlns="http://www.w3.org/2000/svg">
<path d="M92.0235 197.8C122.441 188.531 156.848 182.955 195.044 181.802C233.239 180.649 269.117 184.175 295.917 191.716C322.716 199.258 340.654 209.28 342.604 221.73C344.554 234.181 330.319 251.471 306.441 262.58C282.562 273.689 249.006 280.708 211.084 284.05C173.88 286.15 119.189 285.046 86.5631 280.215C73.643 278.302 67.3662 275.835 54.9556 267.515C54.8018 267.412 54.7397 267.238 54.7889 267.035L56.8333 258.644C56.9396 258.208 57.506 257.76 58.074 257.662L156.052 240.874C157.175 240.682 157.81 239.412 156.83 239.317L45.0121 228.541C44.5659 228.498 44.3916 228.153 44.4945 227.758C45.1536 225.233 44.5841 219.303 45.2308 218.185C46.0406 217.261 46.2646 217.683 46.5553 218.092L48.2118 217.975C58.82 208.619 75.7203 202.768 92.0235 197.8Z" fill="#8D9E12"/>
<path d="M44.9192 219.781C44.4875 219.73 44.3362 219.387 44.5824 218.986C52.1976 206.605 69.8821 197.256 92.2566 190.438C122.674 181.169 157.081 175.593 195.277 174.44C233.472 173.287 269.35 176.813 296.15 184.354C322.949 191.896 340.887 201.918 342.836 214.368C344.786 226.819 330.552 244.109 306.673 255.218C282.795 266.327 249.239 273.346 211.317 276.688C174.113 278.788 119.422 277.684 86.7962 272.853C79.8508 271.825 63.8947 268.359 52.764 257.696C52.3599 257.309 53.0181 256.479 53.8548 256.314L160.537 235.259C161.636 235.042 162.238 233.823 161.301 233.711L44.9192 219.781Z" fill="#A6B52B"/>
<path d="M202.69 232.513L149.893 269.436L192.754 231.775L88.4268 221.694L193.929 227.343L125.902 212.461L201.161 223.738L163.61 194.605L206.769 220.06L210.027 190.104L212.153 218.869L233.47 192.855L215.38 221.402L267.079 196.964L220.882 222.711L306.307 204.883L220.999 225.212L317.998 238.748L213.458 230.129L260.798 261.878L209.747 233.838L222.156 266.462L202.69 232.513Z" fill="#8D9E12"/>
<path d="M203 37.5384C203 37.5384 200 38.0384 198 36.5384C196.56 35.4584 196.001 33.5387 197.5 32.0384C198.887 30.6505 200.5 30.5384 202.5 32.0384C204 33.5384 204 35.5384 204 35.5384L215.5 39.5384L208.5 24.5384C208.5 24.5384 204.98 24.6103 204 23.0384C202.946 21.3489 203.343 19.143 205 18.0384C206.657 16.9339 208.771 17.4712 210 19.0384C210.971 20.2774 210.5 23.0384 210.5 23.0384L220.5 30.3717L219.5 25.0383C219.5 25.0383 217.383 24.2285 217 23.0383C216.545 21.6227 217.106 20.0556 218.5 19.5383C219.976 18.9907 221.466 20.0574 222 21.5383C222.403 22.6557 221.5 24.5384 221.5 24.5384L225.85 28.3223L227 9.53845C227 9.53845 223.942 7.92024 223.5 6.03845C222.941 3.65655 224.08 0.897805 226.5 0.538449C228.826 0.193098 230.572 2.22649 231 4.53845C231.337 6.3599 229.5 9.03845 229.5 9.03845L238.5 23.7982L239.5 18.5383C239.5 18.5383 237.995 16.8482 238 15.5383C238.007 13.8586 238.827 12.1866 240.5 12.0383C242.293 11.8794 243.467 13.7384 243.5 15.5383C243.524 16.8479 242 18.5383 242 18.5383L244.71 23.5383L249 14.0384C249 14.0384 246.639 11.4274 247 9.53845C247.39 7.49965 248.944 5.75465 251 6.03845C252.934 6.30543 254.025 8.08599 254 10.0384C253.973 12.1139 250.5 14.0384 250.5 14.0384C250.5 14.0384 249.788 21.9622 250 27.0383C250.205 31.9507 251.5 39.5384 251.5 39.5384C251.5 39.5384 252.455 39.3249 253 39.5383C253.766 39.8381 254.873 41.6651 254 42.5383C253.5 43.0383 248.64 48.462 242 52.0383C235.705 55.4289 222.5 59.0383 221 59.0383C219.32 59.0383 219 57.0383 219 56.0383C219 55.0383 219.5 54.5384 219.5 54.5384C219.5 54.5384 215.572 48.7613 212.5 45.5383C209.153 42.0277 203 37.5384 203 37.5384Z" fill="#E4B01E"/>
<path d="M219.5 54.5384C219.5 54.5384 227.661 48.3932 233.5 45.5383C240.157 42.2837 251.5 39.5384 251.5 39.5384M225.85 28.3223L225.5 34.0384L220.5 30.3717L210.5 23.0384C210.5 23.0384 210.971 20.2774 210 19.0384C208.771 17.4712 206.657 16.9339 205 18.0384C203.343 19.143 202.946 21.3489 204 23.0384C204.98 24.6103 208.5 24.5384 208.5 24.5384L215.5 39.5384L204 35.5384C204 35.5384 204 33.5384 202.5 32.0384C200.5 30.5384 198.887 30.6505 197.5 32.0384C196.001 33.5387 196.56 35.4584 198 36.5384C200 38.0384 203 37.5384 203 37.5384C203 37.5384 209.153 42.0277 212.5 45.5383C215.572 48.7613 219.5 54.5384 219.5 54.5384M219.5 54.5384C219.5 54.5384 219 55.0383 219 56.0383C219 57.0383 219.32 59.0383 221 59.0383C222.5 59.0383 235.705 55.4289 242 52.0383C248.64 48.462 253.5 43.0383 254 42.5383C254.873 41.6651 253.766 39.8381 253 39.5383C252.455 39.3249 251.5 39.5384 251.5 39.5384M225.85 28.3223L227 9.53845C227 9.53845 223.942 7.92024 223.5 6.03845C222.941 3.65655 224.08 0.897805 226.5 0.538449C228.826 0.193098 230.572 2.22649 231 4.53845C231.337 6.3599 229.5 9.03845 229.5 9.03845L238.5 23.7982L242 29.5384L244.71 23.5383L249 14.0384C249 14.0384 246.639 11.4274 247 9.53845C247.39 7.49965 248.944 5.75465 251 6.03845C252.934 6.30543 254.025 8.08599 254 10.0384C253.973 12.1139 250.5 14.0384 250.5 14.0384C250.5 14.0384 249.788 21.9622 250 27.0383C250.205 31.9507 251.5 39.5384 251.5 39.5384M220.5 30.3717L219.5 25.0383C219.5 25.0383 217.383 24.2285 217 23.0383C216.545 21.6227 217.106 20.0556 218.5 19.5383C219.976 18.9907 221.466 20.0574 222 21.5383C222.403 22.6557 221.5 24.5384 221.5 24.5384L225.85 28.3223M238.5 23.7982L239.5 18.5383C239.5 18.5383 237.995 16.8482 238 15.5383C238.007 13.8586 238.827 12.1866 240.5 12.0383C242.293 11.8794 243.467 13.7384 243.5 15.5383C243.524 16.8479 242 18.5383 242 18.5383L244.71 23.5383" stroke="#785E23"/>
<path d="M245.5 198.125C245.167 197.459 234 196.125 234 196.125L209 200.625L209.5 209.125L223.5 223.125L229 224.125L231.5 225.125L232 227.625L230 230.125L225 230.625L221 228.125L216 223.625L212.5 221.625L206.5 223.125L202.5 227.125L197.5 237.625V244.625L194 249.125L189 250.125L186 247.625V243.125L192.5 236.625L194.5 226.625H192L189.5 227.625L186.5 229.625L182 233.625L178.5 237.625L176.5 240.625L173 242.625L168.5 243.125L165.5 240.625L167 236.625L170.5 234.125L173.5 233.625L179 229.625L185 222.125L179.5 223.625L174 227.125L171.5 229.625L164 231.625L160.5 229.625L161.5 225.125L165 223.125H170.5L175.5 222.125L179 219.625L185 213.125L188 208.125L187.5 204.625L182 206.625L171 212.125L147.5 224.625L143 225.625L141 224.625L140 222.625L145 216.625H137.5L130.5 218.625L123.5 221.625H118.5L118 219.625L120.5 216.125L125 212.625H121L120.5 210.625L122 208.125L130.5 203.125L144 200.125L157 199.125L164 197.625L165 197.125L156 195.125L144 190.125L135.5 183.125L128 174.125L123 167.625L119 162.625L118.5 156.125L121 152.625L125 150.125L135 148.125L151.5 148.625L161.5 152.125L166.5 155.125L171.5 159.125L178.5 166.125L180.5 155.125L183.5 148.125L186.5 142.625L189.5 138.625L193 134.125L199 126.625L201 123.625C203 120.625 205 115.125 205 115.125C205 115.125 202.338 111.468 201 108.125L200 105.125L199.5 103.625C199.5 103.625 199 99.625 199.5 96.625C199.628 95.8546 199.5 94.625 199.5 94.625L201.5 89.625L205 84.125L212.5 76.125L218 69.625L219.5 65.625L221.5 60.125L225 52.625C225 52.625 227.57 49.9686 229.5 48.625C231.15 47.4762 234 46.125 234 46.125L237.5 47.125L242.5 50.625V47.125L243.5 44.125L246 41.625L249.5 40.625L254.5 42.125L266 50.625L273 55.625L286 59.625L290.5 61.125L294.5 65.125L297 72.125V79.125C294.622 93.3426 284.555 110.043 278.5 119.125C271.5 129.625 273 126.125 270 132.625C265.725 141.887 266.5 156.625 266.5 156.625C266.5 156.625 281 145.125 293 145.125C301.453 145.125 308.5 144.125 314.5 147.125C316.723 148.236 319 151.125 319 151.125C319 151.125 320.223 153.68 319 156.125C316.5 161.125 310 168.125 310 168.125C310 168.125 301.677 178.716 294.5 183.125C287.449 187.457 274.5 190.125 274.5 190.125L296 190.625C296 190.625 304.873 191.785 310 194.125C314.483 196.171 322 198.125 320.5 201.125C320.063 201.998 319 202.625 319 202.625C319 202.625 321.504 204.134 321 205.625C320.424 207.33 318.246 207.062 316.5 206.625C312.5 205.625 311.348 205.516 308 205.125C304.504 204.716 299 204.625 299 204.625C299 204.625 305.587 207.849 304 210.125C303.349 211.059 302 210.625 302 210.625C302 210.625 294.031 211.033 289.5 209.125C280 205.125 264.5 201.625 264.5 201.625L264 202.625L275.5 212.125C275.5 212.125 284.318 217.236 290.5 219.125C293.943 220.177 298.119 218.1 299.5 221.125C300.149 222.546 299.781 222.272 299 223.625C298.213 224.988 295.5 225.625 295.5 225.625L299 226.625C299 226.625 299.788 228.541 299.5 230.125C298.856 233.667 291.424 233.726 288.5 231.625C272.5 220.125 266.5 219.625 266.5 219.625C266.5 219.625 267.067 221.318 268 222.625C273 229.625 284 231.625 280 236.125C278.236 238.11 276.52 237.965 274 237.125C270.246 235.874 267.208 229.702 262.5 224.625C257.802 219.559 251.433 215.586 249 216.125C244.128 217.204 238 222.625 238 222.625C238 222.625 231.889 225.114 230 222.625C229.141 221.493 228.384 220.406 229 219.125C229.568 217.945 230.709 217.845 232 217.625C233.361 217.393 233.126 217.762 234.5 217.625C239.5 217.125 242.5 208.125 245.5 205.625C246.043 205.172 246 199.125 245.5 198.125Z" fill="#808731"/>
<path d="M248 49.1255C246.919 51.4957 249 57.1256 249 57.1256C249 57.1256 249.09 53.154 251 51.6255C253.5 49.6252 260 51.6254 260 51.6254C260 51.6254 256.5 49.1252 252 48.1253C250.243 47.7348 248.747 47.4875 248 49.1255Z" fill="#4C5236"/>
<path d="M246.5 67.1245C248.693 70.6 247.251 76.4959 241.5 80.1245C238.678 81.9051 235.421 82.6122 232.727 82.2613C230 82.125 224.452 79.1344 223.5 77.6251C222.5 76.125 226.979 74.4488 228.71 71.7815C229.722 70.2223 231.192 68.7587 233.033 67.5975C238.021 64.45 244.307 63.6489 246.5 67.1245Z" fill="#F8E498"/>
<path d="M270.868 62.037C271.931 66.0066 269.632 71.2508 264.5 72.6251C261.982 73.2995 259.419 72.5427 257.393 71.2901C255.301 70.2247 251.962 66.8492 251.5 65.1252C251 63.3935 254.367 62.085 256.202 60.2148C257.274 59.1215 258.685 58.2745 260.327 57.8347C264.778 56.6426 269.805 58.0673 270.868 62.037Z" fill="#F8E498"/>
<path d="M215 97.125C216.413 94.0773 218.5 93.125 218.5 93.125C218.5 93.125 231.627 100.8 260 95.125C277.5 91.625 285 72.125 285 72.125C285 72.125 287.448 72.522 288.5 74.625C290.5 78.625 289.168 87.4517 287.5 94.125C284.5 106.125 280.975 111.751 275 123.125C271.869 129.086 268.468 134.361 266 140.625C259.5 157.125 259.755 164.278 249.5 181.125C235.5 204.125 209.5 200.625 209.5 200.625L205.5 177.125C205.5 177.125 206.641 172.477 207.5 169.125C212.5 149.625 221.138 144.873 221 128.625C220.9 116.877 210.057 107.783 215 97.125Z" fill="url(#paint0_radial_104_10623)"/>
<path d="M143.5 147.625C146.668 147.879 149.564 147.104 151.5 149.625C151.884 150.125 151.995 153.157 151 156.125C149.376 160.97 145.819 168.326 141 166.625C137.034 165.225 139.779 160.436 138 156.625C136.411 153.221 133.797 148.203 134.5 148.125C139 147.625 139.602 147.313 143.5 147.625Z" fill="#5F5F21"/>
<path d="M297.041 144.747C293.581 144.996 290.647 144.747 288 146.125C287.428 146.423 287.763 150.172 288.849 153.083C290.624 157.834 294.508 165.048 299.772 163.379C304.104 162.006 302.56 157.837 302.5 153.625C302.451 150.177 302.768 144.824 302 144.747C297.085 144.257 301.299 144.441 297.041 144.747Z" fill="#5F5F21" fill-opacity="0.7"/>
<path d="M174 161.625C177 164.625 177 164.125 178.5 166.625C178.824 167.166 177.999 169.877 176.5 172.625C173.5 178.125 167.437 182.884 163.5 179.625C160.26 176.943 163.12 173.118 164.681 169.212C166.073 165.726 169.924 158.214 170.5 158.625C174 161.125 171.235 158.86 174 161.625Z" fill="#5F5F21"/>
<path d="M267 156.625C266 157.625 266.5 159.71 266.5 162.625L266.5 168.125C266.5 174.39 274.138 177.622 278.075 174.363C281.315 171.681 279.06 165.531 277.5 161.625C276.107 158.139 274.576 151.214 274 151.625C270.5 154.125 269.85 153.775 267 156.625Z" fill="#5F5F21" fill-opacity="0.7"/>
<path d="M263.679 202.589C263.65 202.718 263.674 202.854 263.746 202.965C263.818 203.076 263.932 203.155 264.063 203.183C264.193 203.211 264.329 203.187 264.441 203.115C264.552 203.043 264.63 202.93 264.657 202.8C264.657 202.8 264.657 202.8 264.657 202.8C264.891 201.672 265.1 200.58 265.297 199.448C269.159 179.218 264.598 158.676 268.038 138.53C268.227 137.409 268.434 136.311 268.668 135.194C268.418 136.307 268.194 137.403 267.989 138.521C264.252 158.639 268.494 179.319 264.362 199.278C264.15 200.397 263.928 201.476 263.679 202.589Z" fill="#6C772B"/>
<path d="M207.668 118.194C204.811 115.099 202.363 111.575 200.878 107.636C199.308 103.538 198.941 99.0074 199.848 94.7301C202.212 84.3259 212.28 78.6433 217.961 69.8829C222.164 63.8702 221.668 55.9656 226.988 50.9762C228.768 49.19 230.951 47.3924 233.283 46.6283C236.68 46.0143 239.897 48.9955 242.312 51.5065L243.457 52.8125L243.133 51.1056C242.853 49.3604 242.665 47.4457 243.127 45.8419C243.834 43.4184 245.731 41.4447 248.237 41.1817C253.249 40.7511 257.586 44.6912 261.653 47.7237C265.017 50.3742 268.339 53.1255 271.884 55.5997C279.767 59.7915 290.508 58.2836 294.759 66.3867C300.383 80.2915 291.641 94.8477 285.417 107.561C280.438 116.442 272.976 123.712 265.798 130.94C262.797 133.9 259.744 136.809 256.668 139.694C259.789 136.858 262.886 133.994 265.931 131.076C273.219 123.938 280.762 116.793 285.919 107.827C292.241 95.1338 301.34 80.6996 295.577 66.0017C290.878 57.1572 279.586 58.7416 272.451 54.7889C268.952 52.3386 265.651 49.6012 262.27 46.9374C258.142 43.9202 253.912 39.779 248.098 40.2069C245.244 40.4784 242.923 42.9303 242.208 45.5464C241.664 47.5231 241.907 49.4035 242.202 51.2827L243.024 50.8818C240.421 48.2864 237.357 45.079 233.052 45.7602C230.321 46.6963 228.293 48.4588 226.347 50.4122C220.895 55.6266 221.384 63.7666 217.374 69.5056C211.922 78.1352 201.794 83.9902 199.488 94.6582C198.622 99.0109 199.06 103.599 200.701 107.704C202.254 111.651 204.763 115.144 207.668 118.194Z" fill="#6C772B"/>
<path d="M224.691 90.8804C224.736 90.8673 224.777 90.8411 224.805 90.8029C224.833 90.7647 224.845 90.7183 224.84 90.6727C224.834 90.6271 224.81 90.5852 224.774 90.5552C224.737 90.5251 224.691 90.5099 224.645 90.5083C224.645 90.5083 224.645 90.5083 224.645 90.5083C224.372 90.5038 224.107 90.5155 223.84 90.5365C222.774 90.6226 221.722 90.8671 220.726 91.2506C219.374 91.7722 218.077 92.4547 216.903 93.3197C215.047 94.6969 213.558 96.4718 212.392 98.407C212.256 98.6362 212.127 98.8639 212.005 99.1021C211.983 99.1455 211.978 99.1958 211.991 99.2428C212.005 99.2898 212.036 99.3295 212.078 99.3533C212.12 99.3771 212.17 99.3833 212.218 99.3706C212.265 99.358 212.305 99.3275 212.331 99.2866C212.331 99.2866 212.331 99.2866 212.331 99.2866C212.467 99.0804 212.619 98.8666 212.772 98.6588C214.092 96.8912 215.647 95.2894 217.433 94.069C218.568 93.2992 219.802 92.6792 221.086 92.1836C222.032 91.8198 222.987 91.4637 223.962 91.124C224.204 91.0399 224.453 90.9552 224.691 90.8804Z" fill="#6C772B"/>
<path d="M291.551 72.3409C291.592 72.3614 291.639 72.3716 291.685 72.3648C291.731 72.3579 291.772 72.335 291.8 72.3C291.828 72.2649 291.841 72.2198 291.838 72.1734C291.834 72.1269 291.814 72.0834 291.785 72.048C291.785 72.048 291.785 72.048 291.785 72.048C291.646 71.8865 291.505 71.7405 291.354 71.598C290.753 71.0312 290.053 70.5681 289.275 70.2544C288.464 69.9299 287.586 69.7044 286.668 69.7186C284.633 69.7531 282.595 70.3907 281.006 71.6421C280.844 71.7722 280.692 71.9019 280.54 72.0575C280.507 72.0928 280.487 72.1391 280.486 72.1877C280.485 72.2363 280.503 72.2831 280.536 72.3182C280.569 72.3532 280.614 72.3739 280.663 72.3761C280.711 72.3783 280.759 72.3616 280.796 72.3312C280.796 72.3312 280.796 72.3312 280.796 72.3312C280.936 72.2246 281.103 72.1144 281.267 72.0155C282.906 71.0437 284.802 70.6314 286.668 70.6701C287.416 70.687 288.174 70.89 288.902 71.1822C289.6 71.4637 290.301 71.7717 291.018 72.0947C291.196 72.1751 291.379 72.2589 291.551 72.3409Z" fill="#6C772B"/>
<path d="M285.668 70.6943C285.668 70.6943 280.623 89.1283 262.168 94.1943C236.668 101.194 218.168 93.1943 218.168 93.1943" stroke="#6C772B" stroke-linecap="round"/>
<path d="M276.668 97.6943C276.507 98.0322 276.338 98.3737 276.171 98.7063C274.71 101.564 273.221 104.445 271.281 106.879C271.184 106.997 271.08 107.119 270.977 107.237C268.777 109.684 266.143 111.827 263.543 113.986C263.252 114.224 262.956 114.464 262.668 114.694C262.993 114.52 263.325 114.331 263.651 114.142C266.571 112.415 269.402 110.48 271.73 107.895C271.84 107.769 271.951 107.638 272.055 107.51C274.108 104.885 275.351 101.845 276.347 98.7776C276.459 98.4213 276.569 98.0556 276.668 97.6943Z" fill="#6C772B"/>
<path d="M269.168 76.1943C268.835 76.0627 268.475 75.9806 268.117 75.9122C265.079 75.4023 261.971 75.9107 259.031 76.7153C258.815 76.7758 258.593 76.8452 258.38 76.9177C255.224 78.0466 252.509 79.9293 249.989 81.9887C249.711 82.2199 249.431 82.458 249.168 82.6944C249.47 82.5116 249.786 82.3257 250.098 82.1444C252.911 80.5353 255.738 78.921 258.703 77.8643C258.901 77.7966 259.107 77.7311 259.305 77.6732C262.179 76.8553 265.086 76.1022 268.097 76.1012C268.455 76.1093 268.818 76.1272 269.168 76.1943Z" fill="#6C772B"/>
<path d="M236.168 56.6943C236.713 57.0437 237.274 57.4315 237.802 57.8123C240.973 60.1709 244.264 62.8236 245.743 66.3617C246.399 68.1193 246.704 70.0149 246.742 71.9028C246.77 73.4749 246.606 75.0536 246.214 76.5706C245.237 80.6761 242.128 84.142 238.062 85.6364C237.444 85.8696 236.81 86.0697 236.168 86.1943C236.82 86.1356 237.476 85.9959 238.121 85.8169C242.355 84.7086 245.986 81.1798 247.121 76.818C247.578 75.2135 247.771 73.5444 247.742 71.8843C247.701 69.8903 247.352 67.8916 246.593 66.0269C244.801 62.1381 241.294 59.7445 237.906 57.6533C237.342 57.321 236.747 56.986 236.168 56.6943Z" fill="#6C772B"/>
<path d="M260 51.625C259.219 51.4199 258.458 51.2482 257.71 51.117C254.765 50.5431 250.78 50.6568 249.948 53.768C249.145 56.6551 250.048 59.8316 250.819 62.8203C251.003 63.4944 251.277 64.1497 251.613 64.7775C252.912 67.1683 254.956 69.1682 257.249 70.7032C260.629 73.0366 265.135 73.5704 269.063 72.0674C269.794 71.7961 270.511 71.4749 271.175 71.0678C270.547 71.5307 269.853 71.9124 269.136 72.2431C265.302 74.0779 260.439 73.8111 256.781 71.4353C254.33 69.8984 252.148 67.8495 250.73 65.2486C250.365 64.5643 250.063 63.8389 249.862 63.0763C249.118 60.0339 248.205 56.7733 249.237 53.5222C249.76 51.8933 251.366 50.7122 252.985 50.5206C254.622 50.2744 256.204 50.5449 257.75 50.9313C258.492 51.1226 259.239 51.3562 260 51.625Z" fill="#6C772B"/>
<path d="M249.08 58.2266C249.089 58.2495 249.106 58.2683 249.129 58.2786C249.151 58.2889 249.177 58.29 249.2 58.2816C249.223 58.2731 249.242 58.2558 249.252 58.2335C249.263 58.2112 249.264 58.1856 249.256 58.1623C249.256 58.1623 249.256 58.1623 249.256 58.1623C248.971 57.2942 248.721 56.3896 248.507 55.4905C248.038 53.1252 247.217 50.1326 248.818 48.3819C249.649 47.7587 250.903 47.9539 251.987 48.2118C254.824 48.971 257.469 50.434 260.046 51.9043C264.065 54.3458 268.663 56.8301 270.477 61.2581C271.378 64.2428 270.627 67.7137 268.552 70.0944C267.281 71.6125 265.402 72.572 263.427 72.7557C262.514 72.8462 261.574 72.8073 260.693 72.604C260.669 72.5976 260.643 72.6008 260.622 72.613C260.6 72.6253 260.584 72.6456 260.578 72.6695C260.571 72.6933 260.574 72.7189 260.587 72.7405C260.599 72.7621 260.619 72.7779 260.643 72.7847C260.643 72.7847 260.643 72.7847 260.643 72.7847C261.56 73.0108 262.508 73.0615 263.448 72.9825C265.476 72.8241 267.447 71.8535 268.783 70.2943C270.952 67.855 271.783 64.2961 270.859 61.1309C268.957 56.4299 264.318 53.9662 260.29 51.4846C257.697 49.9965 255.054 48.5178 252.108 47.7266C250.975 47.4742 249.636 47.1883 248.518 48.0069C246.584 50.2944 247.704 53.1616 248.217 55.5646C248.465 56.465 248.752 57.3617 249.08 58.2266Z" fill="#6C772B"/>
<path d="M247.34 73.7692C247.225 73.7193 247.111 73.6694 246.996 73.6194C246.784 74.055 246.561 74.48 246.324 74.8987C244.286 78.7501 240.539 81.3636 236.301 81.9771C235.745 82.0735 235.19 82.1462 234.623 82.2008C231.022 82.474 227.486 80.5498 224.44 78.4265C224.05 78.1473 223.661 77.8569 223.295 77.5561C223.257 77.5248 223.209 77.508 223.16 77.5105C223.111 77.513 223.066 77.5345 223.033 77.5703C223 77.6062 222.982 77.6538 222.984 77.7028C222.986 77.7518 223.007 77.7981 223.041 77.8326C223.041 77.8326 223.041 77.8326 223.041 77.8326C223.397 78.1796 223.762 78.501 224.137 78.8166C227.069 81.1975 230.601 83.4282 234.713 83.1879C235.305 83.1369 235.887 83.0639 236.472 82.9624C240.943 82.3497 245.027 79.221 246.762 75.1254C246.972 74.6788 247.163 74.2283 247.34 73.7692Z" fill="#6C772B"/>
<path d="M239.168 53.1943C239.165 51.9367 237.668 51.6943 236.168 51.6943C232.168 51.6943 226.168 63.6943 223.668 70.1943C226.668 65.6943 230.168 60.1943 233.168 58.1929L233.252 58.1372C236.223 56.1546 239.17 54.1887 239.168 53.1943Z" fill="#4C5236"/>
<path d="M223.168 77.6943C223.168 77.6943 222.668 77.1943 222.668 76.6943C222.668 74.4582 223.168 71.1943 223.668 70.1943M223.668 70.1943C226.168 63.6943 232.168 51.6943 236.168 51.6943C237.668 51.6943 239.165 51.9367 239.168 53.1943C239.17 54.198 236.168 56.1915 233.168 58.1929C230.168 60.1943 226.668 65.6943 223.668 70.1943Z" stroke="#6C772B" stroke-width="0.5" stroke-linecap="round"/>
<path d="M178.17 166.652C178.502 166.68 178.834 166.708 179.166 166.737C179.245 165.78 179.352 164.8 179.472 163.828C180.051 159.407 180.796 154.929 182.498 150.841C187.15 138.305 198.658 130.102 204.184 117.978C204.559 117.065 204.884 116.145 205.168 115.194C204.868 116.14 204.528 117.054 204.138 117.958C198.447 129.933 186.775 137.95 181.838 150.548C180.009 154.749 179.194 159.241 178.53 163.703C178.392 164.687 178.268 165.664 178.17 166.652Z" fill="#6C772B"/>
<path d="M184.506 175.288C184.614 175.225 184.722 175.162 184.83 175.099C183.512 172.788 182.056 170.552 180.467 168.413C171.459 156.067 156.929 146.679 141.155 147.227C136.881 147.339 132.577 147.608 128.357 148.593C124.33 149.569 119.371 151.457 118.257 156.197C118.226 156.333 118.199 156.47 118.175 156.609C116.736 164.166 123.849 168.728 127.273 173.966C131.011 179.64 135.96 184.53 141.413 188.526C150.032 194.696 160.55 196.835 170.737 198.477C173.358 198.862 176.029 199.184 178.654 199.381C178.663 199.256 178.672 199.132 178.681 199.007C176.08 198.771 173.416 198.409 170.812 197.989C160.696 196.223 150.226 193.923 141.923 187.862C136.51 183.819 131.762 179.071 128.063 173.422C124.428 167.959 117.778 163.547 119.16 156.779C119.181 156.658 119.205 156.538 119.232 156.42C120.134 152.369 124.633 150.5 128.586 149.55C132.682 148.582 136.94 148.294 141.18 148.162C156.578 147.547 170.946 156.577 180.073 168.71C181.679 170.811 183.159 173.01 184.506 175.288Z" fill="#6C772B"/>
<path d="M165.242 197.366C165.193 197.252 165.143 197.137 165.094 197.022C164.257 197.34 163.358 197.596 162.478 197.82C160.554 198.303 158.595 198.631 156.625 198.843C150.478 199.474 144.258 199.658 138.078 200.703C137.977 200.721 137.877 200.74 137.776 200.759C131.603 201.997 125.521 204.496 120.916 208.942C120.016 209.782 119.842 211.281 120.392 212.319C120.854 213.004 121.425 212.935 121.916 213.038C122.418 213.097 122.914 213.106 123.406 213.098C124.34 213.08 125.27 213 126.19 212.881C126.175 212.756 126.161 212.632 126.146 212.508C125.242 212.584 124.315 212.624 123.408 212.604C122.93 212.592 122.45 212.564 121.993 212.492C121.557 212.43 121.007 212.256 120.944 212.07C120.526 211.154 120.698 210.105 121.42 209.447C125.962 205.316 131.956 202.941 137.964 201.741C138.062 201.722 138.16 201.704 138.258 201.686C144.313 200.658 150.546 200.371 156.711 199.546C158.703 199.269 160.678 198.865 162.608 198.296C163.495 198.032 164.382 197.739 165.242 197.366Z" fill="#6C772B"/>
<path d="M168.746 205.365C168.694 205.251 168.642 205.137 168.59 205.023C167.246 205.612 165.913 206.225 164.581 206.834C161.295 208.337 157.998 209.821 154.56 210.844C148.706 212.691 143.757 216.664 140.111 221.56C139.259 222.696 139.738 224.315 140.563 225.171C142.437 226.642 144.501 226.296 146.359 225.656C146.963 225.406 147.551 225.156 148.149 224.894C160.326 219.569 170.995 211.595 183.162 206.514C184.513 205.936 185.856 205.393 187.232 204.87C187.189 204.753 187.147 204.635 187.104 204.518C185.709 205.003 184.345 205.512 182.974 206.058C170.606 210.859 159.773 218.728 147.747 223.978C147.155 224.237 146.574 224.485 145.977 224.733C144.499 225.333 142.324 225.388 141.296 224.518C140.641 223.807 140.383 222.819 140.904 222.106C144.353 217.397 149.186 213.41 154.776 211.545C158.258 210.438 161.544 208.867 164.792 207.281C166.109 206.637 167.422 205.989 168.746 205.365Z" fill="#6C772B"/>
<path d="M154.691 203.38C154.675 203.256 154.66 203.132 154.645 203.008C153.458 203.134 152.267 203.296 151.087 203.475C146.013 204.274 140.97 205.251 136.032 206.786C130.62 208.566 125.665 211.512 121.282 215.11C120.428 215.821 119.605 216.553 118.816 217.343C117.859 218.392 117.135 219.811 117.723 221.394C118.446 222.588 119.572 222.47 120.433 222.526C121.336 222.52 122.212 222.383 123.071 222.141C128.176 220.72 132.589 217.736 137.714 217.003C139.143 216.774 140.619 216.727 142.09 216.732C143.275 216.74 144.472 216.788 145.648 216.881C145.661 216.756 145.674 216.632 145.687 216.508C144.498 216.372 143.299 216.284 142.1 216.239C140.613 216.187 139.119 216.189 137.622 216.386C132.32 217.009 127.76 219.952 122.82 221.248C122.047 221.457 121.228 221.575 120.436 221.571C119.677 221.58 118.753 221.376 118.613 220.994C118.242 220.129 118.767 218.81 119.52 218.046C120.281 217.289 121.086 216.574 121.921 215.88C126.212 212.357 131.056 209.424 136.304 207.603C141.126 206.016 146.149 204.914 151.168 203.962C152.337 203.747 153.517 203.546 154.691 203.38Z" fill="#6C772B"/>
<path d="M186.01 196.669C186.135 196.711 186.273 196.702 186.391 196.643C186.51 196.583 186.6 196.479 186.642 196.352C186.684 196.226 186.675 196.088 186.616 195.97C186.556 195.851 186.452 195.761 186.326 195.72C186.326 195.72 186.326 195.72 186.326 195.72C185.331 195.394 184.36 195.094 183.363 194.804C173.013 191.983 162.248 190.591 153.339 184.422C146.64 180.461 141.542 174.346 134.886 170.166C134.028 169.604 133.157 169.063 132.264 168.534C132.222 168.508 132.171 168.501 132.123 168.513C132.075 168.525 132.033 168.556 132.008 168.598C131.983 168.641 131.975 168.692 131.987 168.74C131.999 168.788 132.029 168.829 132.072 168.855C132.072 168.855 132.072 168.855 132.072 168.855C132.954 169.391 133.815 169.938 134.662 170.505C141.218 174.709 146.248 180.875 152.997 184.967C161.887 191.275 172.958 192.858 183.088 195.733C184.072 196.03 185.029 196.336 186.01 196.669Z" fill="#6C772B"/>
<path d="M202.341 136.266C202.36 136.221 202.36 136.169 202.341 136.123C202.322 136.077 202.286 136.041 202.24 136.022C202.194 136.003 202.143 136.003 202.097 136.022C202.051 136.04 202.014 136.077 201.995 136.122C201.995 136.122 201.995 136.122 201.995 136.122C200.982 138.498 199.921 140.854 198.834 143.198C195.311 150.973 191.144 158.435 188.287 166.577C185.075 178.231 185.601 190.386 186.676 202.256C187.03 205.088 187.617 207.88 188.369 210.625C188.622 211.542 188.888 212.444 189.196 213.358L189.212 212.991C187.629 216.411 185.923 219.852 183.772 222.907C180.871 226.935 177.785 230.939 173.447 233.296C172.126 233.527 169.908 233.67 168.407 234.842C166.341 236.226 164.258 239.25 165.804 241.877C167.371 243.858 169.648 243.427 171.533 243.27C173.461 242.973 175.399 242.31 176.905 240.953C178.099 239.597 178.372 237.987 179.397 236.923C182.099 234.202 184.466 231.163 187.588 229.018C188.87 228.133 190.265 227.416 191.737 226.894C192.614 226.637 193.672 226.755 194.638 226.879C194.686 226.887 194.737 226.875 194.777 226.846C194.817 226.817 194.844 226.774 194.852 226.725C194.86 226.676 194.849 226.626 194.82 226.585C194.791 226.545 194.747 226.518 194.699 226.509C194.699 226.509 194.699 226.509 194.699 226.509C193.685 226.37 192.675 226.207 191.599 226.495C190.085 227.005 188.639 227.721 187.311 228.609C184.074 230.768 181.644 233.813 178.94 236.466C177.749 237.709 177.37 239.434 176.432 240.435C173.802 242.631 168.838 243.623 166.533 241.512C165.283 239.313 166.932 236.922 168.929 235.546C170.295 234.531 171.81 234.54 173.889 234.093C178.435 231.658 181.652 227.5 184.564 223.482C186.809 220.309 188.51 216.877 190.124 213.398L190.205 213.217L190.14 213.031C189.847 212.162 189.581 211.259 189.333 210.36C188.593 207.657 188.012 204.906 187.66 202.133C186.572 190.405 186.004 178.228 189.049 166.812C191.772 158.806 195.873 151.223 199.283 143.403C200.338 141.039 201.365 138.663 202.341 136.266Z" fill="#6C772B"/>
<path d="M196.668 219.694C194.168 226.694 192.668 236.694 192.668 236.694C192.668 236.694 185.668 241.694 185.668 245.194C185.668 247.68 187.696 250.455 190.168 250.194C199.668 249.194 197.668 238.194 197.668 238.194C197.668 238.194 200.814 224.123 209.168 222.194C217.522 220.266 219.668 230.194 226.168 230.694C229.088 230.919 232.36 229.617 232.168 226.694C231.872 222.194 225.337 224.984 223.168 222.694C214.168 213.194 209.668 209.194 209.668 209.194C209.668 209.194 208.938 194.367 207.168 184.694C205.873 177.618 204.518 173.579 202.668 167.522C202.35 166.481 202.017 165.38 201.668 164.194" stroke="#6C772B" stroke-linecap="round"/>
<path d="M185.016 222.312C185.005 222.187 184.995 222.063 184.985 221.938C183.878 222.007 182.776 222.219 181.72 222.569C179.043 223.457 176.773 225.107 174.332 226.297C172.535 227.227 171.831 229.171 170.337 229.731C167.581 230.76 163.888 232.168 161.869 230.306C160.982 229.177 161.159 227.233 161.936 225.868C162.096 225.582 162.29 225.319 162.515 225.087C164.045 223.536 166.646 223.586 168.991 223.61C169.848 223.631 170.67 223.566 171.486 223.597C176.329 222.933 179.82 219.708 182.765 216.346C184.131 214.671 185.384 212.899 186.497 211.053C187.068 210.116 187.612 209.169 188.16 208.222C188.053 208.157 187.947 208.093 187.84 208.028C187.255 208.954 186.678 209.879 186.08 210.79C184.912 212.583 183.629 214.283 182.235 215.904C179.38 219.075 175.562 222.171 171.514 222.653C170.661 222.612 169.822 222.668 169.01 222.64C166.661 222.628 163.835 222.408 161.797 224.391C161.509 224.688 161.262 225.024 161.064 225.382C160.175 227.036 159.82 229.209 161.131 230.944C162.499 232.417 164.486 232.217 166.042 231.973C167.658 231.682 169.186 231.142 170.663 230.519C172.584 229.66 173.211 227.683 174.669 226.953C177.139 225.667 179.339 223.973 181.882 223.035C182.888 222.663 183.942 222.42 185.016 222.312Z" fill="#6C772B"/>
<path d="M202.205 167.006C202.154 167.128 202.153 167.265 202.205 167.387C202.256 167.51 202.355 167.607 202.479 167.657C202.603 167.708 202.742 167.708 202.864 167.656C202.987 167.605 203.082 167.506 203.131 167.383C203.131 167.383 203.131 167.383 203.131 167.383C203.322 166.895 203.493 166.433 203.672 165.942C206.787 157.261 209.157 148.331 210.622 139.239C210.702 138.736 210.779 138.231 210.853 137.723C210.86 137.675 210.848 137.625 210.818 137.585C210.789 137.545 210.745 137.519 210.697 137.511C210.648 137.503 210.598 137.515 210.558 137.544C210.518 137.573 210.491 137.617 210.483 137.665C210.483 137.665 210.483 137.665 210.483 137.665C210.399 138.17 210.311 138.672 210.222 139.172C208.578 148.199 206.032 157.05 202.766 165.6C202.579 166.082 202.397 166.543 202.205 167.006Z" fill="#6C772B"/>
<path d="M208.995 145.594C208.968 145.639 208.959 145.693 208.973 145.744C208.986 145.796 209.021 145.84 209.067 145.867C209.114 145.894 209.169 145.902 209.22 145.889C209.272 145.875 209.315 145.841 209.341 145.795C209.341 145.795 209.341 145.795 209.341 145.795C209.397 145.694 209.454 145.593 209.51 145.492C210.528 143.673 211.546 141.854 212.563 140.035C212.62 139.934 212.676 139.833 212.733 139.732C212.742 139.715 212.745 139.695 212.739 139.676C212.734 139.657 212.722 139.641 212.705 139.631C212.688 139.621 212.668 139.618 212.649 139.623C212.63 139.628 212.613 139.64 212.603 139.657C212.603 139.657 212.603 139.657 212.603 139.657C212.543 139.755 212.483 139.854 212.423 139.953C211.34 141.735 210.258 143.516 209.176 145.297C209.115 145.396 209.055 145.495 208.995 145.594Z" fill="#6C772B"/>
<path d="M195.115 209.641C195.103 209.656 195.095 209.675 195.096 209.694C195.096 209.713 195.104 209.732 195.117 209.745C195.131 209.759 195.149 209.766 195.168 209.767C195.188 209.767 195.206 209.76 195.221 209.747C195.221 209.747 195.221 209.747 195.221 209.747C195.293 209.687 195.37 209.626 195.447 209.567C196.143 209.046 196.891 208.595 197.637 208.146C198.387 207.702 199.142 207.262 199.927 206.885C200.016 206.844 200.104 206.803 200.192 206.765C200.209 206.758 200.224 206.744 200.232 206.727C200.241 206.71 200.242 206.69 200.236 206.672C200.23 206.654 200.217 206.638 200.2 206.63C200.183 206.621 200.163 206.619 200.144 206.623C200.144 206.623 200.144 206.623 200.144 206.623C200.049 206.646 199.953 206.672 199.857 206.701C199.002 206.96 198.196 207.35 197.433 207.802C196.672 208.259 195.942 208.779 195.315 209.42C195.246 209.492 195.178 209.566 195.115 209.641Z" fill="#6C772B"/>
<path d="M209.746 200.2C209.615 200.179 209.481 200.211 209.374 200.289C209.267 200.367 209.195 200.485 209.174 200.616C209.153 200.748 209.185 200.882 209.263 200.989C209.341 201.097 209.459 201.168 209.59 201.188C209.59 201.188 209.59 201.188 209.59 201.188C211.885 201.542 214.214 201.637 216.524 201.507C223.96 201.072 231.114 198.423 237.376 194.53C261.029 177.62 259.429 145.268 275.747 123.248C279.338 117.856 283.214 112.635 286.194 106.87C287.257 104.847 288.235 102.787 289.168 100.694C288.22 102.78 287.227 104.833 286.15 106.847C283.13 112.586 279.221 117.77 275.588 123.141C259.128 145.083 260.226 177.619 236.96 193.859C230.768 197.648 223.715 200.19 216.474 200.558C214.224 200.669 211.964 200.559 209.746 200.2Z" fill="#6C772B"/>
<path d="M257.719 200.014C257.672 200.002 257.621 200.008 257.578 200.032C257.535 200.056 257.503 200.096 257.49 200.143C257.476 200.191 257.482 200.241 257.506 200.285C257.53 200.328 257.57 200.36 257.616 200.375C257.616 200.375 257.616 200.375 257.616 200.375C258.495 200.647 259.333 200.944 260.158 201.277C267.889 204.057 272.221 211.964 279.935 215.344C283.162 216.973 286.558 218.163 290.044 219.128C291.786 219.611 293.565 219.575 295.26 219.606C296.908 219.637 298.801 219.766 299.378 221.31C299.842 222.265 299.407 223.32 298.506 223.934C297.814 224.439 296.966 224.788 296.129 225.011C296.081 225.022 296.039 225.052 296.012 225.093C295.986 225.135 295.976 225.185 295.987 225.233C295.997 225.281 296.026 225.323 296.067 225.35C296.108 225.377 296.159 225.387 296.207 225.378C296.207 225.378 296.207 225.378 296.207 225.378C297.115 225.179 297.995 224.865 298.791 224.337C299.813 223.756 300.522 222.259 299.958 221.078C299.271 219.082 296.893 218.891 295.287 218.821C293.563 218.745 291.864 218.729 290.292 218.26C286.862 217.244 283.536 216.042 280.386 214.451C272.94 211.24 268.428 203.404 260.333 200.816C259.481 200.512 258.619 200.249 257.719 200.014Z" fill="#6C772B"/>
<path d="M269.285 211.548C269.246 211.518 269.197 211.504 269.148 211.509C269.098 211.515 269.054 211.54 269.023 211.578C268.992 211.617 268.978 211.666 268.983 211.715C268.988 211.764 269.013 211.809 269.051 211.841C269.051 211.841 269.051 211.841 269.051 211.841C270.023 212.645 271.004 213.442 271.996 214.223C277.343 218.534 283.328 222.044 289.462 225.106C291.58 226.147 293.862 225.755 295.848 225.959C297.966 225.992 299.112 227.666 299.17 229.733C299.186 229.952 299.166 230.159 299.107 230.361C297.449 233.371 292.061 232.983 288.895 231.285C282.798 227.561 277.066 222.455 269.904 220.395C268.69 220.024 267.453 219.727 266.203 219.51C266.154 219.502 266.104 219.512 266.063 219.54C266.023 219.568 265.995 219.611 265.985 219.66C265.976 219.708 265.986 219.758 266.014 219.799C266.042 219.84 266.085 219.868 266.133 219.879C266.133 219.879 266.133 219.879 266.133 219.879C267.36 220.133 268.569 220.464 269.753 220.865C276.755 223.114 282.162 228.169 288.441 232.104C290.292 233.134 292.406 233.583 294.503 233.529C296.495 233.402 299.091 233.094 300.067 230.642C300.162 230.319 300.192 229.986 300.166 229.656C300.072 228.555 299.863 227.39 299.088 226.417C298.304 225.423 297.021 225.078 295.944 224.986C293.765 224.802 291.629 225.143 289.874 224.283C283.715 221.296 277.752 217.966 272.296 213.83C271.285 213.082 270.282 212.319 269.285 211.548Z" fill="#6C772B"/>
<path d="M261.805 213.567C261.771 213.531 261.725 213.51 261.675 213.508C261.626 213.506 261.577 213.524 261.541 213.558C261.505 213.591 261.483 213.638 261.481 213.688C261.48 213.737 261.497 213.785 261.531 213.822C261.531 213.822 261.531 213.822 261.531 213.822C262.906 215.333 264.159 216.931 265.269 218.635C267.364 221.698 268.733 225.8 272.516 227.5C274.598 228.572 276.647 229.771 278.391 231.288C279.237 232.045 280.068 232.927 280.334 233.913C280.629 234.901 279.916 235.776 278.948 236.328C273.935 239.814 269.646 233.689 267.081 229.44C264.637 225.656 261.483 222.434 257.875 219.781C255.607 218.157 253.086 216.758 250.261 216.209C243.368 214.587 240.722 222.81 235.095 223.254C233.767 223.472 232.34 223.373 231.072 222.937C229.811 222.525 228.692 221.527 229.06 220.292C229.316 219.034 230.327 218.198 231.622 218.068C232.949 217.835 234.099 218.361 235.833 218.005C240.073 215.978 241.323 211.179 243.738 207.787C244.908 206.154 246.478 204.821 248.256 203.86C248.3 203.836 248.332 203.796 248.347 203.749C248.361 203.701 248.356 203.65 248.333 203.607C248.309 203.563 248.27 203.53 248.222 203.516C248.175 203.501 248.124 203.506 248.08 203.529C246.243 204.473 244.582 205.825 243.341 207.493C240.769 211.017 239.512 215.554 235.503 217.383C234.552 217.553 232.926 217.113 231.524 217.316C230.062 217.392 228.547 218.601 228.276 220.096C228.048 220.883 228.255 221.857 228.815 222.474C229.359 223.105 230.071 223.477 230.784 223.74C232.222 224.247 233.743 224.363 235.241 224.135C241.525 223.42 244.134 215.524 250.076 217.18C252.678 217.69 255.098 219.02 257.29 220.592C260.777 223.149 263.909 226.346 266.255 229.949C267.707 232.257 269.21 234.601 271.364 236.45C273.414 238.459 277.064 238.733 279.388 237.061C280.445 236.488 281.586 235.125 281.126 233.707C280.736 232.391 279.802 231.504 278.902 230.703C277.045 229.129 274.955 227.951 272.82 226.889C269.266 225.376 267.877 221.479 265.68 218.361C264.524 216.655 263.224 215.062 261.805 213.567Z" fill="#6C772B"/>
<path d="M247.851 183.733C247.859 183.685 247.849 183.636 247.821 183.595C247.794 183.554 247.753 183.526 247.705 183.516C247.658 183.506 247.609 183.515 247.568 183.542C247.526 183.568 247.497 183.609 247.484 183.656C247.484 183.656 247.484 183.656 247.484 183.656C247.388 184.013 247.298 184.353 247.206 184.708C246.395 187.859 245.775 191.076 245.487 194.336C245.192 197.596 245.254 200.866 245.421 204.11C245.44 204.474 245.46 204.829 245.48 205.194C245.483 205.243 245.503 205.289 245.538 205.323C245.573 205.357 245.62 205.377 245.668 205.377C245.716 205.377 245.763 205.357 245.798 205.323C245.833 205.289 245.853 205.243 245.855 205.194C245.876 204.829 245.896 204.474 245.915 204.11C246.085 200.864 246.192 197.633 246.483 194.425C246.766 191.214 247.212 188.014 247.69 184.806C247.744 184.444 247.796 184.098 247.851 183.733Z" fill="#6C772B"/>
<path d="M266.558 156.542C266.518 156.571 266.491 156.615 266.483 156.664C266.476 156.713 266.487 156.763 266.516 156.804C266.545 156.844 266.589 156.871 266.638 156.879C266.687 156.887 266.737 156.875 266.778 156.847C266.778 156.847 266.778 156.847 266.778 156.847C269.273 155.078 271.757 153.338 274.335 151.729C282.046 146.468 291.456 144.877 300.668 145.083C304.247 145.112 307.855 145.555 311.281 146.55C314.514 147.542 318.607 149.247 318.708 152.694C318.706 153.366 318.705 154.023 318.703 154.694C318.958 158.581 315.119 160.908 312.654 163.832C309.993 166.682 307.542 169.741 305.264 172.903C303.839 174.881 302.138 176.659 300.271 178.241C291.538 185.446 280.222 189.016 269.115 190.741C268.571 190.805 268.674 191.708 269.218 191.648C279.294 190.68 289.575 190.126 299.614 191.533C305.289 192.483 310.844 194.406 315.982 197.034C317.671 198.005 319.895 199.014 320.46 200.694C320.441 201.548 319.438 202.161 318.602 202.519C318.556 202.536 318.518 202.572 318.498 202.617C318.477 202.662 318.476 202.714 318.493 202.76C318.51 202.806 318.546 202.844 318.591 202.865C318.636 202.885 318.687 202.887 318.734 202.87C318.734 202.87 318.734 202.87 318.734 202.87C319.636 202.47 320.768 201.944 320.876 200.694C320.114 198.409 317.931 197.678 316.216 196.599C311.043 193.876 305.495 191.883 299.722 190.856C289.567 189.336 279.276 189.82 269.118 190.741L269.221 191.647C280.521 189.945 291.923 186.406 300.918 179.004C302.838 177.377 304.595 175.54 306.072 173.485C308.328 170.346 310.744 167.319 313.367 164.494C315.713 161.629 319.854 159.203 319.633 154.694C319.631 154.023 319.63 153.366 319.628 152.694C319.334 148.294 314.808 146.775 311.521 145.727C307.984 144.725 304.32 144.306 300.668 144.305C291.428 144.16 281.756 145.91 274.072 151.312C271.497 152.962 269.032 154.739 266.558 156.542Z" fill="#6C772B"/>
<path d="M286.668 194.507C286.619 194.508 286.572 194.528 286.537 194.563C286.502 194.598 286.482 194.645 286.482 194.694C286.482 194.744 286.502 194.791 286.537 194.826C286.572 194.861 286.619 194.881 286.668 194.882C286.668 194.882 286.668 194.882 286.668 194.882C287.681 194.903 288.666 194.942 289.674 195C298.631 195.554 307.638 197.421 315.668 201.31C316.799 201.879 317.888 202.487 318.913 203.207C319.41 203.558 319.911 203.952 320.309 204.37C320.509 204.582 320.685 204.802 320.791 205.016C320.839 205.113 320.866 205.217 320.864 205.262C320.861 205.316 320.864 205.313 320.829 205.355C318.637 207.249 314.93 205.944 311.874 205.47C308.697 204.849 305.449 204.297 302.179 204.321C301.167 204.327 300.155 204.386 299.149 204.508C299.1 204.514 299.055 204.538 299.024 204.577C298.993 204.615 298.978 204.664 298.983 204.713C298.988 204.762 299.012 204.807 299.05 204.838C299.089 204.87 299.138 204.885 299.187 204.881C299.187 204.881 299.187 204.881 299.187 204.881C300.181 204.802 301.178 204.784 302.173 204.815C305.388 204.911 308.557 205.549 311.715 206.245C314.796 206.708 318.335 208.467 321.507 206.034C321.712 205.835 321.833 205.542 321.829 205.261C321.83 205.009 321.746 204.77 321.665 204.599C321.481 204.222 321.258 203.959 321.02 203.701C320.551 203.201 320.013 202.778 319.487 202.4C318.401 201.63 317.279 201.001 316.116 200.416C307.887 196.433 298.728 194.728 289.693 194.507C288.678 194.486 287.686 194.486 286.668 194.507Z" fill="#6C772B"/>
<path d="M272.704 196.51C272.655 196.502 272.605 196.512 272.564 196.54C272.523 196.568 272.495 196.61 272.485 196.659C272.476 196.707 272.486 196.757 272.514 196.798C272.541 196.84 272.584 196.868 272.632 196.878C272.632 196.878 272.632 196.878 272.632 196.878C273.876 197.142 275.108 197.419 276.328 197.708C281.458 198.926 286.52 200.373 291.451 202.206C293.892 203.12 296.342 204.141 298.637 205.35C299.784 205.959 300.922 206.626 301.918 207.401C302.868 208.116 303.972 209.344 303.315 209.842C302.91 210.247 302.108 210.404 301.338 210.446C290.237 209.661 279.486 204.836 268.423 202.307C267.185 202.011 265.942 201.737 264.705 201.51C264.656 201.502 264.606 201.512 264.565 201.539C264.524 201.567 264.495 201.61 264.486 201.658C264.476 201.706 264.486 201.756 264.513 201.798C264.541 201.839 264.583 201.868 264.631 201.878C264.631 201.878 264.631 201.878 264.631 201.878C265.851 202.144 267.078 202.455 268.3 202.786C279.297 205.628 289.695 210.609 301.393 211.444C302.255 211.377 303.218 211.294 304.021 210.547C304.346 210.239 304.561 209.719 304.497 209.247C304.443 208.78 304.239 208.423 304.028 208.116C303.589 207.502 303.067 207.053 302.521 206.626C301.44 205.795 300.262 205.121 299.079 204.506C296.715 203.288 294.223 202.287 291.744 201.404C286.737 199.632 281.616 198.295 276.435 197.225C275.202 196.972 273.959 196.734 272.704 196.51Z" fill="#6C772B"/>
<path d="M245.65 198.248C245.664 198.251 245.679 198.25 245.692 198.243C245.705 198.237 245.715 198.225 245.72 198.212C245.724 198.198 245.723 198.183 245.717 198.17C245.71 198.157 245.699 198.146 245.686 198.141C245.686 198.141 245.686 198.141 245.686 198.141C245.508 198.068 245.319 197.997 245.138 197.931C244.401 197.667 243.642 197.456 242.879 197.286C240.201 196.701 237.48 196.368 234.753 196.174C234.562 196.161 234.358 196.148 234.172 196.138C234.157 196.137 234.143 196.142 234.132 196.152C234.12 196.162 234.114 196.176 234.112 196.19C234.111 196.205 234.116 196.22 234.126 196.231C234.136 196.242 234.149 196.249 234.164 196.25C234.164 196.25 234.164 196.25 234.164 196.25C234.348 196.268 234.551 196.289 234.741 196.31C237.453 196.612 240.156 196.998 242.814 197.579C243.571 197.747 244.331 197.917 245.085 198.104C245.271 198.15 245.465 198.199 245.65 198.248Z" fill="#6C772B"/>
<path d="M262.668 57.1943C264.403 57.1943 266.017 57.5621 267.362 58.1924C267.874 59.0755 268.168 60.1003 268.168 61.1943C268.168 64.508 265.482 67.1943 262.168 67.1943C258.854 67.1943 256.168 64.508 256.168 61.1943C256.168 60.423 256.315 59.6862 256.58 59.0088C258.124 57.8901 260.281 57.1943 262.668 57.1943Z" fill="#A98C4A"/>
<path d="M237.211 65.4763C238.718 65.0052 240.223 64.8625 241.594 65.0034C242.635 65.7276 243.456 66.7855 243.874 68.0854C244.89 71.2394 243.157 74.6201 240.003 75.6361C236.849 76.6521 233.468 74.9188 232.452 71.7648C232.113 70.7116 232.081 69.6329 232.305 68.6256C233.449 67.2632 235.154 66.1197 237.211 65.4763Z" fill="#A98C4A"/>
<circle cx="262.168" cy="61.1943" r="4" fill="black"/>
<circle cx="238.163" cy="69.9251" r="4" transform="rotate(-17.8556 238.163 69.9251)" fill="black"/>
<path d="M250.88 64.51C250.828 64.5891 250.802 64.6846 250.812 64.78C250.823 64.8754 250.869 64.9622 250.941 65.0224C251.013 65.0826 251.107 65.1121 251.203 65.1053C251.298 65.0986 251.388 65.0556 251.456 64.9902C251.456 64.9902 251.456 64.9902 251.456 64.9902C251.724 64.7335 251.991 64.4773 252.258 64.2216C254.656 61.9475 257.041 59.6063 259.805 58.4023C262.544 57.1342 265.69 57.755 268.496 59.4189C268.815 59.6016 269.113 59.7806 269.431 59.9856C269.511 60.0366 269.607 60.0617 269.702 60.0498C269.797 60.038 269.884 59.9911 269.943 59.9181C270.002 59.8451 270.031 59.7511 270.023 59.6554C270.015 59.5598 269.971 59.4711 269.904 59.4035C269.904 59.4035 269.904 59.4035 269.904 59.4035C269.627 59.125 269.364 58.8732 269.073 58.617C266.638 56.3037 262.459 54.9274 259.02 56.5628C255.639 58.0672 253.424 60.8573 251.506 63.5814C251.294 63.889 251.085 64.1984 250.88 64.51Z" fill="#6C772B"/>
<path d="M222.876 76.9585C222.823 77.0378 222.797 77.1343 222.809 77.2302C222.821 77.3262 222.868 77.4133 222.942 77.4731C223.016 77.5329 223.111 77.5613 223.207 77.5527C223.304 77.5442 223.393 77.4989 223.459 77.4304C223.459 77.4304 223.459 77.4304 223.459 77.4304C223.787 77.0917 224.105 76.7656 224.428 76.4346C227.339 73.4748 230.207 70.4808 233.478 68.2164C236.707 65.906 240.628 64.9511 244.601 66.005C245.042 66.1105 245.472 66.2283 245.915 66.3656C246.007 66.3939 246.106 66.391 246.195 66.3523C246.284 66.3137 246.353 66.2433 246.39 66.1554C246.426 66.0675 246.426 65.9683 246.39 65.8785C246.354 65.7886 246.286 65.7163 246.201 65.6721C246.201 65.6721 246.201 65.6721 246.201 65.6721C245.774 65.4512 245.352 65.2518 244.909 65.0667C240.995 63.2236 235.849 63.9681 232.351 66.5641C228.757 69.0626 226.085 72.391 223.667 75.8049C223.399 76.1868 223.141 76.5654 222.876 76.9585Z" fill="#6C772B"/>
<circle cx="235.5" cy="69.125" r="1.5" fill="white"/>
<circle cx="259.5" cy="61.125" r="1.5" fill="white"/>
<path d="M255.5 81.1251C255.741 81.0761 255.999 81.0179 256.243 80.9644C258.458 80.4776 260.562 79.8198 262.579 79.1054C263.134 78.9112 263.69 78.7131 264.228 78.5352C265.656 78.0695 267.174 77.6723 268.762 77.2915C269.007 77.2341 269.251 77.1767 269.5 77.1252C269.259 77.0436 269.015 76.9741 268.765 76.9115C267.151 76.511 265.456 76.4088 263.772 76.7152C263.132 76.8338 262.513 77.0099 261.918 77.2178C259.763 77.9818 257.825 79.1624 256.074 80.6238C255.883 80.7854 255.681 80.9574 255.5 81.1251Z" fill="#CDCC62"/>
<path d="M220.557 45.841C219.033 43.909 220.053 39.9776 220.053 39.9776C220.053 39.9776 223.927 40.6443 225.173 42.9907C226.168 44.8619 225.169 48.2163 225.169 48.2163C225.169 48.2163 221.757 47.3633 220.557 45.841Z" fill="#496A3F"/>
<path d="M232.5 37.0386C231.011 34.0147 233.501 29.0386 233.501 29.0386C233.501 29.0386 238.5 31.0386 239.5 34.5386C240.297 37.3297 238.001 41.5386 238.001 41.5386C238.001 41.5386 233.674 39.4212 232.5 37.0386Z" fill="#7F2C2A"/>
<path d="M215.641 50.5569C214.494 49.6102 214.593 47.1569 214.593 47.1569C214.593 47.1569 216.968 47.0552 218.004 48.2821C218.831 49.2605 218.67 51.3703 218.67 51.3703C218.67 51.3703 216.545 51.3028 215.641 50.5569Z" fill="#804C31"/>
<path d="M246.965 33.8374C246.318 31.4636 248.793 28.2435 248.793 28.2435C248.793 28.2435 252.098 30.3711 252.329 33.0181C252.513 35.129 250.282 37.8261 250.282 37.8261C250.282 37.8261 247.475 35.7078 246.965 33.8374Z" fill="#496A3F"/>
<defs>
<radialGradient id="paint0_radial_104_10623" cx="0" cy="0" r="1" gradientUnits="userSpaceOnUse" gradientTransform="translate(280 26.625) rotate(109.154) scale(188.961 123.347)">
<stop offset="0.867346" stop-color="#AEB05C"/>
<stop offset="0.931321" stop-color="#A0A24F"/>
<stop offset="1" stop-color="#8A8C41"/>
</radialGradient>
</defs>
</svg>
