<svg width="205" height="251" viewBox="0 0 205 251" fill="none" xmlns="http://www.w3.org/2000/svg">
<path d="M85.4887 37.5384C85.4887 37.5384 82.4892 38.0384 80.4891 36.5384C79.0488 35.4584 78.4894 33.5387 79.9888 32.0384C81.3759 30.6505 82.9891 30.5384 84.9887 32.0384C86.4891 33.5384 86.4891 35.5384 86.4891 35.5384L97.9887 39.5384L90.9889 24.5384C90.9889 24.5384 87.4691 24.6103 86.4887 23.0384C85.4348 21.3489 85.8318 19.143 87.4887 18.0384C89.1455 16.9339 91.2602 17.4712 92.4887 19.0384C93.4599 20.2774 92.9889 23.0384 92.9889 23.0384L102.989 30.3717L101.989 25.0383C101.989 25.0383 99.8717 24.2285 99.4888 23.0383C99.0333 21.6227 99.5946 20.0556 100.989 19.5383C102.465 18.9907 103.955 20.0574 104.489 21.5383C104.892 22.6557 103.989 24.5384 103.989 24.5384L108.339 28.3223L109.489 9.53845C109.489 9.53845 106.431 7.92024 105.989 6.03845C105.43 3.65655 106.569 0.897805 108.989 0.538449C111.315 0.193098 113.061 2.22649 113.489 4.53845C113.826 6.3599 111.989 9.03845 111.989 9.03845L120.989 23.7982L121.989 18.5383C121.989 18.5383 120.484 16.8482 120.489 15.5383C120.495 13.8586 121.316 12.1866 122.989 12.0383C124.782 11.8794 125.956 13.7384 125.989 15.5383C126.013 16.8479 124.489 18.5383 124.489 18.5383L127.199 23.5383L131.489 14.0384C131.489 14.0384 129.128 11.4274 129.489 9.53845C129.878 7.49965 131.433 5.75465 133.489 6.03845C135.423 6.30543 136.514 8.08599 136.489 10.0384C136.462 12.1139 132.989 14.0384 132.989 14.0384C132.989 14.0384 132.277 21.9622 132.489 27.0383C132.694 31.9507 133.989 39.5384 133.989 39.5384C133.989 39.5384 134.943 39.3249 135.489 39.5383C136.255 39.8381 137.362 41.6651 136.489 42.5383C135.989 43.0383 131.129 48.462 124.489 52.0383C118.193 55.4289 104.989 59.0383 103.489 59.0383C101.809 59.0383 101.489 57.0383 101.489 56.0383C101.489 55.0383 101.989 54.5384 101.989 54.5384C101.989 54.5384 98.0611 48.7613 94.9888 45.5383C91.6421 42.0277 85.4887 37.5384 85.4887 37.5384Z" fill="#E4B01E"/>
<path d="M101.989 54.5384C101.989 54.5384 110.15 48.3932 115.989 45.5383C122.645 42.2837 133.989 39.5384 133.989 39.5384M108.339 28.3223L107.989 34.0384L102.989 30.3717L92.9889 23.0384C92.9889 23.0384 93.4599 20.2774 92.4887 19.0384C91.2602 17.4712 89.1455 16.9339 87.4887 18.0384C85.8318 19.143 85.4348 21.3489 86.4887 23.0384C87.4691 24.6103 90.9889 24.5384 90.9889 24.5384L97.9887 39.5384L86.4891 35.5384C86.4891 35.5384 86.4891 33.5384 84.9887 32.0384C82.9891 30.5384 81.3759 30.6505 79.9888 32.0384C78.4894 33.5387 79.0488 35.4584 80.4891 36.5384C82.4892 38.0384 85.4887 37.5384 85.4887 37.5384C85.4887 37.5384 91.6421 42.0277 94.9888 45.5383C98.0611 48.7613 101.989 54.5384 101.989 54.5384M101.989 54.5384C101.989 54.5384 101.489 55.0383 101.489 56.0383C101.489 57.0383 101.809 59.0383 103.489 59.0383C104.989 59.0383 118.193 55.4289 124.489 52.0383C131.129 48.462 135.989 43.0383 136.489 42.5383C137.362 41.6651 136.255 39.8381 135.489 39.5383C134.943 39.3249 133.989 39.5384 133.989 39.5384M108.339 28.3223L109.489 9.53845C109.489 9.53845 106.431 7.92024 105.989 6.03845C105.43 3.65655 106.569 0.897805 108.989 0.538449C111.315 0.193098 113.061 2.22649 113.489 4.53845C113.826 6.3599 111.989 9.03845 111.989 9.03845L120.989 23.7982L124.489 29.5384L127.199 23.5383L131.489 14.0384C131.489 14.0384 129.128 11.4274 129.489 9.53845C129.878 7.49965 131.433 5.75465 133.489 6.03845C135.423 6.30543 136.514 8.08599 136.489 10.0384C136.462 12.1139 132.989 14.0384 132.989 14.0384C132.989 14.0384 132.277 21.9622 132.489 27.0383C132.694 31.9507 133.989 39.5384 133.989 39.5384M102.989 30.3717L101.989 25.0383C101.989 25.0383 99.8717 24.2285 99.4888 23.0383C99.0333 21.6227 99.5946 20.0556 100.989 19.5383C102.465 18.9907 103.955 20.0574 104.489 21.5383C104.892 22.6557 103.989 24.5384 103.989 24.5384L108.339 28.3223M120.989 23.7982L121.989 18.5383C121.989 18.5383 120.484 16.8482 120.489 15.5383C120.495 13.8586 121.316 12.1866 122.989 12.0383C124.782 11.8794 125.956 13.7384 125.989 15.5383C126.013 16.8479 124.489 18.5383 124.489 18.5383L127.199 23.5383" stroke="#785E23"/>
<path d="M127.988 198.125C127.655 197.459 116.488 196.125 116.488 196.125L91.4883 200.625L91.9883 209.125L105.988 223.125L111.488 224.125L113.988 225.125L114.488 227.625L112.488 230.125L107.488 230.625L103.488 228.125L98.4883 223.625L94.9883 221.625L88.9883 223.125L84.9883 227.125L79.9883 237.625V244.625L76.4883 249.125L71.4883 250.125L68.4883 247.625V243.125L74.9883 236.625L76.9883 226.625H74.4883L71.9883 227.625L68.9883 229.625L64.4883 233.625L60.9883 237.625L58.9883 240.625L55.4883 242.625L50.9883 243.125L47.9883 240.625L49.4883 236.625L52.9883 234.125L55.9883 233.625L61.4883 229.625L67.4883 222.125L61.9883 223.625L56.4883 227.125L53.9883 229.625L46.4883 231.625L42.9883 229.625L43.9883 225.125L47.4883 223.125H52.9883L57.9883 222.125L61.4883 219.625L67.4883 213.125L70.4883 208.125L69.9883 204.625L64.4883 206.625L53.4883 212.125L29.9883 224.625L25.4883 225.625L23.4883 224.625L22.4883 222.625L27.4883 216.625H19.9883L12.9883 218.625L5.98828 221.625H0.988281L0.488281 219.625L2.98828 216.125L7.48828 212.625H3.48828L2.98828 210.625L4.48828 208.125L12.9883 203.125L26.4883 200.125L39.4883 199.125L46.4883 197.625L47.4883 197.125L38.4883 195.125L26.4883 190.125L17.9883 183.125L10.4883 174.125L5.48828 167.625L1.48828 162.625L0.988281 156.125L3.48828 152.625L7.48828 150.125L17.4883 148.125L33.9883 148.625L43.9883 152.125L48.9883 155.125L53.9883 159.125L60.9883 166.125L62.9883 155.125L65.9883 148.125L68.9883 142.625L71.9883 138.625L75.4883 134.125L81.4883 126.625L83.4883 123.625C85.4883 120.625 87.4883 115.125 87.4883 115.125C87.4883 115.125 84.8266 111.467 83.4883 108.125L82.4883 105.125L81.9883 103.625C81.9883 103.625 81.4883 99.6245 81.9883 96.6245C82.1167 95.8541 81.9883 94.6245 81.9883 94.6245L83.9883 89.6245L87.4883 84.1245L94.9883 76.1245L100.488 69.6245L101.988 65.6245L103.988 60.1245L107.488 52.6245C107.488 52.6245 110.059 49.9681 111.988 48.6245C113.638 47.4757 116.488 46.1245 116.488 46.1245L119.988 47.1245L124.988 50.6245V47.1245L125.988 44.1245L128.488 41.6245L131.988 40.6245L136.988 42.1245L148.488 50.6245L155.488 55.6245L168.488 59.6245L172.988 61.1245L176.988 65.1245L179.488 72.1245V79.1245C177.111 93.3421 167.043 110.042 160.988 119.125C153.988 129.625 155.488 126.125 152.488 132.625C148.214 141.886 148.988 156.625 148.988 156.625C148.988 156.625 163.488 145.125 175.488 145.125C183.941 145.125 190.988 144.125 196.988 147.125C199.211 148.236 201.488 151.125 201.488 151.125C201.488 151.125 202.711 153.679 201.488 156.125C198.988 161.125 192.488 168.125 192.488 168.125C192.488 168.125 184.166 178.715 176.988 183.125C169.937 187.456 156.988 190.125 156.988 190.125L178.488 190.625C178.488 190.625 187.361 191.785 192.488 194.125C196.972 196.17 204.488 198.125 202.988 201.125C202.552 201.998 201.488 202.625 201.488 202.625C201.488 202.625 203.992 204.133 203.488 205.625C202.912 207.33 200.735 207.061 198.988 206.625C194.988 205.625 193.836 205.516 190.488 205.125C186.992 204.716 181.488 204.625 181.488 204.625C181.488 204.625 188.076 207.848 186.488 210.125C185.837 211.058 184.488 210.625 184.488 210.625C184.488 210.625 176.52 211.032 171.988 209.125C162.488 205.125 146.988 201.625 146.988 201.625L146.488 202.625L157.988 212.125C157.988 212.125 166.806 217.236 172.988 219.125C176.432 220.177 180.608 218.099 181.988 221.125C182.637 222.546 182.269 222.272 181.488 223.625C180.701 224.988 177.988 225.625 177.988 225.625L181.488 226.625C181.488 226.625 182.276 228.54 181.988 230.125C181.344 233.667 173.912 233.726 170.988 231.625C154.988 220.125 148.988 219.625 148.988 219.625C148.988 219.625 149.555 221.318 150.488 222.625C155.488 229.625 166.488 231.625 162.488 236.125C160.724 238.11 159.008 237.964 156.488 237.125C152.734 235.873 149.696 229.701 144.988 224.625C140.29 219.558 133.922 215.586 131.488 216.125C126.617 217.203 120.488 222.625 120.488 222.625C120.488 222.625 114.377 225.113 112.488 222.625C111.629 221.492 110.872 220.406 111.488 219.125C112.056 217.944 113.197 217.845 114.488 217.625C115.849 217.392 115.614 217.762 116.988 217.625C121.988 217.125 124.988 208.125 127.988 205.625C128.532 205.172 128.488 199.125 127.988 198.125Z" fill="#808731"/>
<path d="M130.488 49.1245C129.407 51.4948 131.488 57.1246 131.488 57.1246C131.488 57.1246 131.578 53.153 133.488 51.6245C135.988 49.6243 142.488 51.6245 142.488 51.6245C142.488 51.6245 138.988 49.1242 134.488 48.1243C132.731 47.7338 131.235 47.4866 130.488 49.1245Z" fill="#4C5236"/>
<path d="M128.988 67.124C131.181 70.5995 129.739 76.4954 123.988 80.124C121.166 81.9046 117.909 82.6117 115.215 82.2608C112.488 82.1245 106.94 79.134 105.988 77.6246C104.988 76.1245 109.467 74.4484 111.198 71.781C112.21 70.2218 113.68 68.7582 115.521 67.5971C120.509 64.4495 126.795 63.6485 128.988 67.124Z" fill="#F8E498"/>
<path d="M153.356 62.036C154.419 66.0056 152.12 71.2498 146.988 72.6241C144.47 73.2985 141.907 72.5418 139.881 71.2892C137.789 70.2237 134.45 66.8482 133.988 65.1243C133.488 63.3925 136.855 62.084 138.69 60.2138C139.763 59.1205 141.173 58.2735 142.815 57.8337C147.266 56.6416 152.293 58.0664 153.356 62.036Z" fill="#F8E498"/>
<path d="M97.4883 97.1245C98.9016 94.0769 100.988 93.1245 100.988 93.1245C100.988 93.1245 114.115 100.799 142.488 95.1245C159.988 91.6245 167.488 72.1245 167.488 72.1245C167.488 72.1245 169.937 72.5215 170.988 74.6245C172.988 78.6245 171.657 87.4512 169.988 94.1245C166.988 106.125 163.463 111.751 157.488 123.125C154.357 129.085 150.956 134.36 148.488 140.625C141.988 157.125 142.243 164.277 131.988 181.125C117.988 204.125 91.9883 200.625 91.9883 200.625L87.9883 177.125C87.9883 177.125 89.1289 172.476 89.9883 169.125C94.9883 149.625 103.627 144.873 103.488 128.625C103.388 116.877 92.5457 107.782 97.4883 97.1245Z" fill="url(#paint0_radial_101_11631)"/>
<path d="M25.9886 147.624C29.1571 147.878 32.0529 147.103 33.9886 149.624C34.3724 150.124 34.4835 153.156 33.4886 156.124C31.8642 160.97 28.3075 168.326 23.4886 166.624C19.5225 165.224 22.2676 160.436 20.4886 156.624C18.9 153.221 16.2857 148.203 16.9886 148.125C21.4886 147.625 22.0909 147.312 25.9886 147.624Z" fill="#5F5F21"/>
<path d="M179.53 144.747C176.069 144.996 173.135 144.747 170.488 146.125C169.916 146.422 170.251 150.172 171.338 153.082C173.112 157.834 176.997 165.047 182.26 163.379C186.592 162.006 185.048 157.837 184.988 153.625C184.939 150.177 185.256 144.824 184.488 144.747C179.573 144.257 183.787 144.441 179.53 144.747Z" fill="#5F5F21" fill-opacity="0.7"/>
<path d="M56.4885 161.625C59.4885 164.625 59.4883 164.125 60.9883 166.625C61.3126 167.165 60.4871 169.876 58.9882 172.624C55.9882 178.124 49.9249 182.883 45.9881 179.624C42.7481 176.942 45.6086 173.118 47.1689 169.212C48.5617 165.725 52.4126 158.214 52.9881 158.625C56.4883 161.125 53.7236 158.86 56.4885 161.625Z" fill="#5F5F21"/>
<path d="M149.489 156.624C148.489 157.624 148.989 159.709 148.989 162.624L148.989 168.124C148.989 174.389 156.627 177.621 160.564 174.362C163.804 171.68 161.549 165.53 159.989 161.624C158.596 158.138 157.064 151.213 156.489 151.624C152.989 154.124 152.339 153.774 149.489 156.624Z" fill="#5F5F21" fill-opacity="0.7"/>
<path d="M146.167 202.588C146.139 202.718 146.162 202.853 146.234 202.965C146.306 203.076 146.42 203.154 146.551 203.183C146.681 203.211 146.818 203.186 146.929 203.114C147.041 203.042 147.118 202.929 147.145 202.799C147.145 202.799 147.145 202.799 147.145 202.799C147.38 201.672 147.588 200.58 147.785 199.447C151.647 179.218 147.087 158.676 150.526 138.529C150.715 137.409 150.922 136.31 151.156 135.194C150.906 136.307 150.682 137.403 150.477 138.52C146.74 158.639 150.982 179.319 146.85 199.278C146.639 200.397 146.416 201.475 146.167 202.588Z" fill="#6C772B"/>
<path d="M90.1554 118.194C87.2989 115.098 84.8507 111.574 83.3657 107.636C81.7962 103.537 81.4288 99.0069 82.3354 94.7297C84.6997 84.3254 94.7679 78.6428 100.449 69.8824C104.652 63.8698 104.155 55.9651 109.476 50.9758C111.256 49.1895 113.438 47.3919 115.771 46.6278C119.167 46.0138 122.385 48.995 124.8 51.506L125.944 52.812L125.621 51.1051C125.341 49.3599 125.152 47.4452 125.615 45.8415C126.322 43.4179 128.219 41.4442 130.725 41.1812C135.737 40.7506 140.074 44.6907 144.14 47.7232C147.505 50.3737 150.827 53.125 154.372 55.5992C162.255 59.791 172.996 58.2831 177.246 66.3862C182.871 80.291 174.129 94.8472 167.904 107.561C162.926 116.441 155.464 123.712 148.286 130.939C145.284 133.899 142.231 136.809 139.155 139.694C142.277 136.858 145.373 133.994 148.419 131.075C155.706 123.937 163.25 116.793 168.406 107.827C174.728 95.1333 183.828 80.6991 178.064 66.0012C173.366 57.1567 162.074 58.7411 154.939 54.7884C151.44 52.3381 148.139 49.6008 144.758 46.9369C140.63 43.9197 136.4 39.7785 130.586 40.2064C127.732 40.4779 125.41 42.9298 124.696 45.5459C124.152 47.5226 124.395 49.403 124.69 51.2822L125.511 50.8813C122.909 48.2859 119.845 45.0786 115.54 45.7597C112.809 46.6958 110.78 48.4583 108.835 50.4117C103.383 55.6261 103.872 63.7661 99.8617 69.5051C94.4095 78.1347 84.2813 83.9897 81.9755 94.6577C81.1094 99.0104 81.5482 103.599 83.1884 107.704C84.7414 111.65 87.2507 115.144 90.1554 118.194Z" fill="#6C772B"/>
<path d="M107.18 90.8799C107.224 90.8668 107.265 90.8406 107.293 90.8024C107.321 90.7643 107.334 90.7178 107.328 90.6722C107.322 90.6266 107.299 90.5847 107.262 90.5547C107.226 90.5246 107.179 90.5094 107.133 90.5078C107.133 90.5078 107.133 90.5078 107.133 90.5078C106.86 90.5033 106.595 90.515 106.328 90.536C105.262 90.6221 104.211 90.8666 103.214 91.2501C101.862 91.7718 100.565 92.4542 99.3909 93.3192C97.5349 94.6964 96.046 96.4713 94.8806 98.4065C94.7445 98.6357 94.6148 98.8634 94.493 99.1016C94.4715 99.145 94.4661 99.1953 94.4796 99.2423C94.4932 99.2893 94.5243 99.329 94.5664 99.3528C94.6086 99.3766 94.6586 99.3828 94.7058 99.3702C94.7531 99.3575 94.7934 99.327 94.8195 99.2861C94.8195 99.2861 94.8195 99.2861 94.8195 99.2861C94.9548 99.0799 95.1071 98.8661 95.2602 98.6583C96.5798 96.8907 98.135 95.2889 99.9216 94.0685C101.056 93.2987 102.29 92.6787 103.574 92.1831C104.52 91.8193 105.476 91.4632 106.45 91.1235C106.692 91.0395 106.942 90.9547 107.18 90.8799Z" fill="#6C772B"/>
<path d="M174.039 72.3404C174.08 72.361 174.127 72.3711 174.173 72.3643C174.219 72.3574 174.26 72.3345 174.288 72.2995C174.316 72.2644 174.329 72.2193 174.326 72.1729C174.323 72.1264 174.302 72.0829 174.273 72.0476C174.273 72.0476 174.273 72.0476 174.273 72.0476C174.135 71.886 173.993 71.74 173.843 71.5975C173.241 71.0307 172.541 70.5676 171.764 70.2539C170.952 69.9294 170.074 69.7039 169.156 69.7181C167.122 69.7526 165.083 70.3902 163.495 71.6416C163.332 71.7717 163.18 71.9015 163.028 72.0571C162.995 72.0923 162.976 72.1386 162.975 72.1872C162.974 72.2358 162.991 72.2826 163.024 72.3177C163.057 72.3527 163.102 72.3734 163.151 72.3756C163.2 72.3778 163.247 72.3611 163.284 72.3307C163.284 72.3307 163.284 72.3307 163.284 72.3307C163.424 72.2241 163.592 72.1139 163.756 72.015C165.394 71.0432 167.29 70.631 169.156 70.6696C169.904 70.6865 170.662 70.8896 171.391 71.1817C172.088 71.4632 172.789 71.7712 173.506 72.0942C173.684 72.1747 173.867 72.2584 174.039 72.3404Z" fill="#6C772B"/>
<path d="M168.156 70.6938C168.156 70.6938 163.111 89.1278 144.656 94.1938C119.156 101.194 100.656 93.1938 100.656 93.1938" stroke="#6C772B" stroke-linecap="round"/>
<path d="M159.156 97.6938C158.995 98.0317 158.826 98.3732 158.659 98.7058C157.198 101.563 155.71 104.444 153.77 106.878C153.672 106.997 153.568 107.119 153.465 107.237C151.265 109.683 148.631 111.826 146.031 113.985C145.741 114.223 145.444 114.464 145.156 114.694C145.481 114.519 145.814 114.331 146.14 114.141C149.06 112.414 151.89 110.479 154.219 107.895C154.328 107.769 154.439 107.638 154.543 107.509C156.596 104.885 157.839 101.845 158.836 98.7771C158.947 98.4208 159.058 98.0551 159.156 97.6938Z" fill="#6C772B"/>
<path d="M151.656 76.1939C151.323 76.0622 150.963 75.9801 150.605 75.9117C147.567 75.4018 144.46 75.9102 141.519 76.7148C141.303 76.7753 141.081 76.8448 140.869 76.9172C137.712 78.0461 134.997 79.9288 132.477 81.9882C132.199 82.2194 131.919 82.4575 131.656 82.6939C131.959 82.5112 132.275 82.3252 132.586 82.1439C135.399 80.5348 138.226 78.9205 141.191 77.8638C141.39 77.7961 141.595 77.7306 141.793 77.6727C144.668 76.8548 147.574 76.1017 150.586 76.1007C150.944 76.1088 151.306 76.1267 151.656 76.1939Z" fill="#6C772B"/>
<path d="M118.656 56.6938C119.202 57.0432 119.762 57.431 120.29 57.8118C123.462 60.1704 126.752 62.8231 128.231 66.3612C128.887 68.1188 129.192 70.0144 129.23 71.9023C129.258 73.4744 129.095 75.0532 128.703 76.5702C127.726 80.6756 124.616 84.1415 120.55 85.6359C119.932 85.8691 119.298 86.0692 118.656 86.1938C119.309 86.1351 119.965 85.9954 120.609 85.8164C124.844 84.7082 128.474 81.1793 129.61 76.8175C130.067 75.213 130.26 73.5439 130.23 71.8838C130.189 69.8898 129.84 67.8911 129.081 66.0265C127.29 62.1376 123.783 59.744 120.394 57.6528C119.831 57.3206 119.235 56.9855 118.656 56.6938Z" fill="#6C772B"/>
<path d="M142.488 51.6245C141.708 51.4194 140.946 51.2477 140.198 51.1165C137.253 50.5426 133.268 50.6563 132.437 53.7675C131.633 56.6546 132.536 59.8311 133.308 62.8198C133.491 63.4939 133.766 64.1492 134.101 64.777C135.4 67.1678 137.444 69.1677 139.738 70.7027C143.118 73.0361 147.623 73.5699 151.552 72.067C152.282 71.7957 152.999 71.4744 153.663 71.0673C153.035 71.5302 152.341 71.9119 151.624 72.2426C147.79 74.0774 142.928 73.8106 139.269 71.4348C136.819 69.8979 134.637 67.849 133.219 65.2481C132.854 64.5638 132.551 63.8384 132.35 63.0758C131.607 60.0334 130.693 56.7728 131.726 53.5217C132.248 51.8928 133.854 50.7117 135.473 50.5201C137.11 50.2739 138.693 50.5444 140.238 50.9308C140.98 51.1221 141.727 51.3557 142.488 51.6245Z" fill="#6C772B"/>
<path d="M131.568 58.2262C131.577 58.2491 131.594 58.2678 131.617 58.2781C131.639 58.2884 131.664 58.2895 131.688 58.2811C131.711 58.2726 131.729 58.2554 131.74 58.233C131.75 58.2107 131.752 58.1851 131.744 58.1618C131.744 58.1618 131.744 58.1618 131.744 58.1618C131.459 57.2937 131.208 56.3891 130.995 55.49C130.525 53.1247 129.705 50.1321 131.306 48.3814C132.137 47.7582 133.391 47.9535 134.475 48.2114C137.311 48.9705 139.956 50.4335 142.534 51.9038C146.552 54.3453 151.151 56.8296 152.965 61.2576C153.866 64.2423 153.115 67.7132 151.04 70.0939C149.768 71.612 147.889 72.5715 145.914 72.7552C145.002 72.8458 144.062 72.8068 143.181 72.6035C143.157 72.5971 143.131 72.6003 143.11 72.6126C143.088 72.6248 143.072 72.6451 143.066 72.669C143.059 72.6929 143.062 72.7184 143.074 72.74C143.087 72.7616 143.107 72.7774 143.131 72.7842C143.131 72.7842 143.131 72.7842 143.131 72.7842C144.048 73.0103 144.995 73.0611 145.936 72.982C147.963 72.8236 149.935 71.8531 151.271 70.2938C153.44 67.8545 154.271 64.2956 153.347 61.1304C151.444 56.4294 146.806 53.9657 142.778 51.4841C140.184 49.996 137.542 48.5173 134.595 47.7261C133.462 47.4737 132.124 47.1878 131.006 48.0064C129.072 50.2939 130.192 53.1611 130.705 55.5641C130.952 56.4645 131.239 57.3612 131.568 58.2262Z" fill="#6C772B"/>
<path d="M129.828 73.7687C129.714 73.7188 129.599 73.6689 129.484 73.619C129.272 74.0545 129.049 74.4795 128.812 74.8982C126.774 78.7496 123.027 81.3631 118.79 81.9766C118.234 82.0731 117.679 82.1457 117.111 82.2003C113.51 82.4735 109.974 80.5494 106.928 78.426C106.538 78.1468 106.15 77.8564 105.783 77.5556C105.746 77.5243 105.698 77.5075 105.649 77.51C105.6 77.5125 105.554 77.534 105.521 77.5698C105.488 77.6057 105.471 77.6533 105.472 77.7023C105.474 77.7513 105.495 77.7976 105.53 77.8321C105.53 77.8321 105.53 77.8321 105.53 77.8321C105.885 78.1791 106.25 78.5006 106.625 78.8161C109.557 81.197 113.09 83.4277 117.201 83.1874C117.793 83.1364 118.375 83.0634 118.961 82.9619C123.432 82.3493 127.515 79.2205 129.251 75.1249C129.46 74.6783 129.651 74.2278 129.828 73.7687Z" fill="#6C772B"/>
<path d="M121.656 53.1938C121.653 51.9363 120.156 51.6938 118.656 51.6938C114.656 51.6938 108.656 63.6938 106.156 70.1938C109.156 65.6938 112.656 60.1938 115.656 58.1924L115.74 58.1367C118.712 56.1541 121.659 54.1882 121.656 53.1938Z" fill="#4C5236"/>
<path d="M105.656 77.6938C105.656 77.6938 105.156 77.1938 105.156 76.6938C105.156 74.4577 105.656 71.1938 106.156 70.1938M106.156 70.1938C108.656 63.6938 114.656 51.6938 118.656 51.6938C120.156 51.6938 121.653 51.9363 121.656 53.1938C121.659 54.1975 118.656 56.191 115.656 58.1924C112.656 60.1938 109.156 65.6938 106.156 70.1938Z" stroke="#6C772B" stroke-width="0.5" stroke-linecap="round"/>
<path d="M60.658 166.652C60.9902 166.68 61.3223 166.708 61.6545 166.736C61.7329 165.779 61.84 164.8 61.9599 163.828C62.539 159.406 63.2841 154.929 64.9858 150.84C69.6383 138.304 81.1465 130.101 86.6725 117.977C87.0475 117.064 87.3722 116.145 87.6562 115.194C87.3563 116.14 87.0161 117.053 86.6265 117.958C80.9349 129.932 69.263 137.95 64.3267 150.547C62.4973 154.748 61.6823 159.24 61.0181 163.703C60.8801 164.686 60.7561 165.663 60.658 166.652Z" fill="#6C772B"/>
<path d="M66.9943 175.288C67.1024 175.225 67.2105 175.162 67.3186 175.099C66.0004 172.788 64.5446 170.552 62.9559 168.413C53.9479 156.067 39.4177 146.679 23.6441 147.227C19.3701 147.339 15.066 147.608 10.8462 148.593C6.81904 149.569 1.85929 151.457 0.746154 156.197C0.715248 156.333 0.687751 156.47 0.66372 156.609C-0.775228 164.166 6.33767 168.728 9.76147 173.966C13.5 179.64 18.4485 184.53 23.9013 188.526C32.5206 194.696 43.0384 196.835 53.2253 198.477C55.8464 198.862 58.5176 199.184 61.1427 199.381C61.1519 199.256 61.1611 199.132 61.1703 199.007C58.5689 198.771 55.9048 198.409 53.3008 197.989C43.185 196.223 32.7151 193.923 24.4117 187.862C18.9985 183.819 14.2503 179.071 10.5515 173.422C6.9167 167.959 0.266719 163.547 1.64908 156.779C1.67012 156.658 1.69413 156.538 1.72106 156.42C2.62311 152.369 7.12164 150.5 11.0752 149.55C15.1709 148.582 19.4289 148.294 23.6687 148.162C39.067 147.547 53.435 156.577 62.5616 168.71C64.1681 170.811 65.6475 173.01 66.9943 175.288Z" fill="#6C772B"/>
<path d="M47.7307 197.366C47.6811 197.251 47.6316 197.136 47.5821 197.022C46.7455 197.34 45.8463 197.596 44.9662 197.819C43.0422 198.303 41.0829 198.63 39.1131 198.843C32.966 199.474 26.7465 199.658 20.5662 200.702C20.4654 200.72 20.3648 200.739 20.2645 200.758C14.0909 201.996 8.00973 204.495 3.40405 208.942C2.50392 209.782 2.32996 211.281 2.88041 212.318C3.34246 213.003 3.91307 212.935 4.4044 213.037C4.90581 213.097 5.40203 213.105 5.8945 213.097C6.82872 213.079 7.75818 213 8.67792 212.88C8.66347 212.756 8.64903 212.632 8.63458 212.508C7.73071 212.584 6.80334 212.623 5.89584 212.604C5.41782 212.592 4.9387 212.564 4.48078 212.491C4.04562 212.429 3.49537 212.255 3.43233 212.07C3.01381 211.154 3.18588 210.104 3.90854 209.446C8.45011 205.316 14.4439 202.94 20.4523 201.741C20.5501 201.722 20.6481 201.704 20.7463 201.686C26.8014 200.657 33.0339 200.37 39.1995 199.545C41.1918 199.268 43.1661 198.865 45.0966 198.296C45.9829 198.031 46.8701 197.739 47.7307 197.366Z" fill="#6C772B"/>
<path d="M51.2334 205.365C51.1817 205.251 51.1299 205.137 51.0782 205.023C49.7337 205.612 48.4012 206.225 47.0689 206.834C43.7832 208.337 40.4858 209.821 37.0479 210.844C31.1939 212.691 26.2449 216.664 22.5983 221.56C21.7468 222.696 22.2255 224.315 23.0505 225.171C24.9249 226.642 26.9884 226.296 28.8467 225.656C29.4509 225.406 30.0383 225.156 30.6365 224.894C42.8137 219.569 53.4826 211.595 65.6502 206.514C67.0004 205.936 68.344 205.393 69.7198 204.87C69.6771 204.753 69.6344 204.635 69.5917 204.518C68.1964 205.003 66.8326 205.512 65.4617 206.058C53.0933 210.859 42.2612 218.728 30.2351 223.978C29.6432 224.237 29.0622 224.485 28.4648 224.733C26.9864 225.333 24.8118 225.388 23.7841 224.518C23.1284 223.807 22.8711 222.819 23.3914 222.106C26.8408 217.397 31.6733 213.41 37.2636 211.545C40.7455 210.438 44.0317 208.867 47.28 207.281C48.5971 206.637 49.9103 205.989 51.2334 205.365Z" fill="#6C772B"/>
<path d="M37.179 203.38C37.1638 203.256 37.1485 203.132 37.1333 203.008C35.9461 203.133 34.7552 203.296 33.575 203.474C28.5011 204.274 23.4586 205.251 18.5199 206.785C13.1088 208.565 8.15353 211.512 3.77045 215.11C2.91588 215.82 2.09287 216.553 1.30443 217.342C0.347761 218.392 -0.376782 219.811 0.211415 221.394C0.934661 222.588 2.06073 222.469 2.92145 222.525C3.82407 222.519 4.7003 222.383 5.55904 222.14C10.6647 220.72 15.0776 217.735 20.2023 217.002C21.6317 216.774 23.1077 216.727 24.578 216.732C25.7635 216.74 26.9607 216.788 28.1367 216.88C28.1496 216.756 28.1626 216.632 28.1756 216.507C26.9861 216.372 25.7877 216.284 24.5886 216.238C23.1014 216.187 21.6074 216.188 20.11 216.386C14.8081 217.008 10.2485 219.952 5.30792 221.248C4.53479 221.457 3.71623 221.574 2.92388 221.571C2.16509 221.579 1.24096 221.376 1.10082 220.994C0.730347 220.129 1.2552 218.809 2.00783 218.046C2.76903 217.288 3.57384 216.573 4.40917 215.879C8.70005 212.356 13.5443 209.423 18.7923 207.602C23.6145 206.016 28.6369 204.913 33.6567 203.961C34.8255 203.746 36.0049 203.546 37.179 203.38Z" fill="#6C772B"/>
<path d="M68.4981 196.668C68.6237 196.711 68.7608 196.702 68.8795 196.642C68.9981 196.583 69.0884 196.478 69.1306 196.352C69.1727 196.226 69.1632 196.088 69.1039 195.969C69.0446 195.85 68.9404 195.761 68.8144 195.72C68.8144 195.72 68.8144 195.72 68.8144 195.72C67.8194 195.393 66.8483 195.094 65.851 194.804C55.5015 191.983 44.7359 190.591 35.8276 184.422C29.1281 180.46 24.0303 174.345 17.3745 170.165C16.516 169.604 15.6454 169.063 14.7527 168.533C14.7102 168.508 14.6592 168.501 14.6111 168.513C14.563 168.525 14.5217 168.555 14.4963 168.598C14.4708 168.64 14.4633 168.691 14.4752 168.739C14.4871 168.787 14.5175 168.829 14.5598 168.855C14.5598 168.855 14.5598 168.855 14.5598 168.855C15.4427 169.39 16.3029 169.937 17.1504 170.504C23.7062 174.708 28.7361 180.874 35.4849 184.966C44.3754 191.274 55.4464 192.858 65.5762 195.733C66.56 196.029 67.5173 196.336 68.4981 196.668Z" fill="#6C772B"/>
<path d="M84.8294 136.266C84.8481 136.22 84.8481 136.169 84.8291 136.123C84.8102 136.077 84.7739 136.041 84.7282 136.021C84.6824 136.002 84.631 136.002 84.5851 136.021C84.5392 136.04 84.5027 136.076 84.4833 136.122C84.4833 136.122 84.4833 136.122 84.4833 136.122C83.4707 138.497 82.409 140.853 81.3222 143.198C77.7994 150.972 73.6318 158.435 70.7754 166.577C67.5635 178.231 68.0895 190.385 69.1639 202.255C69.518 205.087 70.1057 207.879 70.8573 210.624C71.1106 211.542 71.3758 212.443 71.6843 213.358L71.7002 212.99C70.1173 216.411 68.4117 219.852 66.2604 222.906C63.3595 226.934 60.2737 230.939 55.9351 233.296C54.6141 233.526 52.3963 233.669 50.8955 234.842C48.8295 236.226 46.7465 239.25 48.2918 241.876C49.8595 243.857 52.1365 243.426 54.0213 243.269C55.9498 242.972 57.8877 242.309 59.3928 240.953C60.5873 239.597 60.8604 237.986 61.8848 236.922C64.5876 234.201 66.9539 231.163 70.0764 229.018C71.3579 228.133 72.7536 227.415 74.2256 226.894C75.1021 226.637 76.1606 226.754 77.1258 226.879C77.1747 226.887 77.2248 226.875 77.2651 226.846C77.3054 226.817 77.3325 226.773 77.3406 226.724C77.3487 226.675 77.337 226.625 77.3082 226.585C77.2794 226.545 77.2357 226.517 77.1869 226.509C77.1869 226.509 77.1869 226.509 77.1869 226.509C76.1729 226.369 75.1635 226.206 74.0871 226.494C72.5732 227.004 71.127 227.72 69.7993 228.609C66.5619 230.768 64.1319 233.813 61.4278 236.465C60.2369 237.709 59.8586 239.434 58.9199 240.435C56.2904 242.63 51.3267 243.622 49.0208 241.512C47.7717 239.313 49.4205 236.922 51.4172 235.546C52.7833 234.53 54.298 234.539 56.3776 234.092C60.9235 231.658 64.1405 227.499 67.0522 223.482C69.2978 220.308 70.9983 216.876 72.6124 213.398L72.6932 213.217L72.6283 213.03C72.3356 212.161 72.0696 211.259 71.8215 210.359C71.0813 207.656 70.5004 204.906 70.1488 202.132C69.0605 190.404 68.4925 178.228 71.5372 166.811C74.2606 158.805 78.3615 151.223 81.7716 143.402C82.8259 141.039 83.8532 138.663 84.8294 136.266Z" fill="#6C772B"/>
<path d="M79.1562 219.694C76.6562 226.694 75.1562 236.694 75.1562 236.694C75.1562 236.694 68.1562 241.694 68.1562 245.194C68.1563 247.679 70.1846 250.454 72.6562 250.194C82.1562 249.194 80.1562 238.194 80.1562 238.194C80.1562 238.194 83.3023 224.123 91.6562 222.194C100.01 220.265 102.156 230.194 108.656 230.694C111.577 230.918 114.848 229.616 114.656 226.694C114.361 222.194 107.826 224.984 105.656 222.694C96.6563 213.194 92.1562 209.194 92.1562 209.194C92.1562 209.194 91.4262 194.366 89.6562 184.694C88.3614 177.618 87.0063 173.579 85.1562 167.522C84.8383 166.481 84.5057 165.38 84.1562 164.194" stroke="#6C772B" stroke-linecap="round"/>
<path d="M67.5033 222.311C67.4931 222.187 67.4828 222.062 67.4725 221.938C66.3662 222.006 65.2633 222.219 64.2077 222.569C61.5309 223.457 59.2606 225.107 56.8195 226.297C55.0232 227.226 54.3192 229.171 52.8248 229.73C50.0686 230.76 46.3759 232.168 44.3572 230.305C43.4693 229.176 43.6466 227.233 44.4243 225.868C44.5842 225.582 44.7774 225.319 45.0024 225.087C46.5326 223.535 49.1335 223.586 51.4787 223.609C52.336 223.631 53.1583 223.566 53.9734 223.597C58.8166 222.933 62.3074 219.708 65.2532 216.346C66.6186 214.671 67.8719 212.899 68.9852 211.053C69.5554 210.115 70.1 209.169 70.6483 208.221C70.5413 208.157 70.4343 208.092 70.3273 208.028C69.7432 208.954 69.1655 209.878 68.5678 210.789C67.4001 212.583 66.1171 214.283 64.7227 215.903C61.8674 219.075 58.0498 222.171 54.0021 222.652C53.1483 222.611 52.3097 222.668 51.4976 222.64C49.1486 222.628 46.3228 222.408 44.2845 224.391C43.9964 224.687 43.7503 225.024 43.5516 225.381C42.6624 227.036 42.3081 229.209 43.6187 230.944C44.9867 232.416 46.9739 232.217 48.5298 231.972C50.146 231.681 51.6737 231.141 53.1511 230.519C55.0719 229.66 55.6986 227.682 57.1563 226.952C59.6271 225.667 61.827 223.973 64.3702 223.035C65.376 222.663 66.4299 222.419 67.5033 222.311Z" fill="#6C772B"/>
<path d="M84.6932 167.005C84.6419 167.127 84.6416 167.265 84.6931 167.387C84.7445 167.509 84.8435 167.606 84.9676 167.657C85.0917 167.707 85.2304 167.707 85.3526 167.656C85.4749 167.604 85.5705 167.506 85.6193 167.382C85.6193 167.382 85.6193 167.382 85.6193 167.382C85.8098 166.895 85.9811 166.432 86.1608 165.941C89.2757 157.26 91.6455 148.331 93.1104 139.239C93.1903 138.736 93.2674 138.231 93.3415 137.723C93.3486 137.674 93.3359 137.624 93.3066 137.585C93.2772 137.545 93.2335 137.518 93.1849 137.51C93.1363 137.503 93.0866 137.515 93.0465 137.544C93.0063 137.573 92.9791 137.616 92.971 137.665C92.971 137.665 92.971 137.665 92.971 137.665C92.8869 138.17 92.7998 138.672 92.7099 139.171C91.0663 148.198 88.5207 157.05 85.2541 165.6C85.0672 166.081 84.8851 166.542 84.6932 167.005Z" fill="#6C772B"/>
<path d="M91.4835 145.593C91.4559 145.638 91.4478 145.693 91.4613 145.744C91.4748 145.795 91.5088 145.839 91.5555 145.867C91.6021 145.894 91.6574 145.902 91.7087 145.888C91.76 145.875 91.8031 145.841 91.829 145.795C91.829 145.795 91.829 145.795 91.829 145.795C91.8855 145.694 91.9421 145.593 91.9986 145.491C93.0162 143.673 94.0338 141.854 95.0514 140.035C95.108 139.934 95.1645 139.833 95.221 139.732C95.2306 139.715 95.2329 139.694 95.2277 139.675C95.2225 139.656 95.2102 139.64 95.1934 139.63C95.1765 139.62 95.1564 139.618 95.1373 139.622C95.1182 139.627 95.1016 139.639 95.0915 139.656C95.0915 139.656 95.0915 139.656 95.0915 139.656C95.0313 139.755 94.9712 139.854 94.9111 139.953C93.8287 141.734 92.7463 143.515 91.6639 145.296C91.6038 145.395 91.5436 145.494 91.4835 145.593Z" fill="#6C772B"/>
<path d="M77.6032 209.641C77.5909 209.655 77.5837 209.674 77.584 209.693C77.5843 209.713 77.592 209.731 77.6054 209.745C77.6189 209.758 77.6373 209.766 77.6566 209.766C77.676 209.766 77.6946 209.759 77.7093 209.747C77.7093 209.747 77.7093 209.747 77.7093 209.747C77.7817 209.686 77.8578 209.626 77.9353 209.567C78.6309 209.045 79.3795 208.594 80.1257 208.146C80.8755 207.702 81.6299 207.262 82.4156 206.885C82.5039 206.843 82.5927 206.803 82.68 206.765C82.6975 206.757 82.7123 206.744 82.7207 206.726C82.7291 206.709 82.7305 206.689 82.7244 206.671C82.7184 206.653 82.7054 206.638 82.6882 206.629C82.671 206.62 82.6511 206.618 82.6325 206.623C82.6325 206.623 82.6325 206.623 82.6325 206.623C82.5377 206.646 82.4412 206.672 82.3454 206.7C81.4904 206.959 80.6847 207.35 79.921 207.802C79.1607 208.259 78.4306 208.779 77.8037 209.419C77.7339 209.492 77.6663 209.566 77.6032 209.641Z" fill="#6C772B"/>
<path d="M92.2342 200.2C92.1033 200.179 91.9696 200.211 91.8623 200.289C91.7551 200.367 91.6831 200.484 91.6624 200.616C91.6416 200.747 91.6737 200.882 91.7517 200.989C91.8297 201.096 91.9472 201.167 92.0783 201.188C92.0783 201.188 92.0783 201.188 92.0783 201.188C94.373 201.542 96.702 201.637 99.0127 201.506C106.448 201.071 113.602 198.422 119.864 194.529C143.518 177.619 141.917 145.268 158.236 123.248C161.826 117.855 165.702 112.634 168.682 106.869C169.745 104.847 170.724 102.786 171.656 100.694C170.708 102.78 169.715 104.832 168.638 106.846C165.618 112.585 161.709 117.77 158.077 123.14C141.616 145.083 142.714 177.619 119.448 193.858C113.256 197.647 106.203 200.189 98.9626 200.557C96.7123 200.668 94.4527 200.559 92.2342 200.2Z" fill="#6C772B"/>
<path d="M140.208 200.014C140.16 200.001 140.109 200.007 140.066 200.031C140.023 200.056 139.992 200.096 139.978 200.143C139.965 200.19 139.97 200.241 139.994 200.284C140.018 200.327 140.058 200.36 140.105 200.374C140.105 200.374 140.105 200.374 140.105 200.374C140.983 200.647 141.822 200.943 142.646 201.277C150.377 204.057 154.709 211.964 162.423 215.343C165.65 216.973 169.046 218.163 172.532 219.128C174.274 219.61 176.054 219.575 177.748 219.606C179.397 219.636 181.289 219.765 181.866 221.31C182.331 222.265 181.895 223.32 180.994 223.933C180.302 224.438 179.455 224.787 178.617 225.01C178.569 225.022 178.527 225.051 178.501 225.093C178.474 225.134 178.465 225.184 178.475 225.232C178.485 225.28 178.514 225.323 178.555 225.35C178.597 225.377 178.647 225.386 178.695 225.377C178.695 225.377 178.695 225.377 178.695 225.377C179.603 225.178 180.483 224.864 181.279 224.337C182.301 223.756 183.01 222.259 182.446 221.078C181.759 219.081 179.381 218.89 177.776 218.82C176.052 218.744 174.353 218.729 172.78 218.26C169.35 217.244 166.024 216.041 162.875 214.451C155.428 211.24 150.916 203.403 142.822 200.816C141.97 200.511 141.107 200.249 140.208 200.014Z" fill="#6C772B"/>
<path d="M151.773 211.547C151.734 211.517 151.685 211.503 151.636 211.509C151.587 211.514 151.542 211.539 151.511 211.578C151.48 211.616 151.466 211.665 151.471 211.715C151.477 211.764 151.501 211.809 151.539 211.84C151.539 211.84 151.539 211.84 151.539 211.84C152.512 212.645 153.492 213.441 154.484 214.222C159.831 218.534 165.816 222.043 171.951 225.106C174.068 226.147 176.35 225.754 178.336 225.958C180.454 225.991 181.601 227.665 181.658 229.732C181.674 229.952 181.654 230.158 181.595 230.36C179.937 233.371 174.549 232.983 171.384 231.285C165.286 227.56 159.554 222.455 152.393 220.395C151.178 220.023 149.941 219.726 148.691 219.51C148.643 219.501 148.593 219.512 148.552 219.54C148.511 219.568 148.483 219.611 148.474 219.659C148.464 219.707 148.475 219.758 148.502 219.799C148.53 219.84 148.573 219.868 148.621 219.878C148.621 219.878 148.621 219.878 148.621 219.878C149.848 220.133 151.057 220.464 152.241 220.865C159.244 223.113 164.65 228.168 170.929 232.103C172.781 233.133 174.894 233.582 176.991 233.529C178.984 233.401 181.579 233.093 182.555 230.642C182.65 230.318 182.68 229.986 182.655 229.656C182.561 228.554 182.351 227.39 181.576 226.416C180.792 225.423 179.509 225.078 178.433 224.985C176.254 224.801 174.117 225.142 172.362 224.282C166.203 221.295 160.24 217.966 154.784 213.83C153.773 213.081 152.77 212.318 151.773 211.547Z" fill="#6C772B"/>
<path d="M144.294 213.566C144.26 213.53 144.213 213.509 144.163 213.507C144.114 213.506 144.066 213.523 144.029 213.557C143.993 213.591 143.972 213.638 143.97 213.687C143.968 213.737 143.986 213.785 144.019 213.821C144.019 213.821 144.019 213.821 144.019 213.821C145.395 215.332 146.648 216.93 147.757 218.634C149.853 221.698 151.222 225.799 155.004 227.499C157.086 228.572 159.135 229.771 160.879 231.288C161.725 232.044 162.557 232.927 162.823 233.913C163.117 234.9 162.404 235.776 161.436 236.327C156.423 239.814 152.134 233.688 149.57 229.439C147.125 225.656 143.971 222.434 140.363 219.78C138.095 218.157 135.574 216.757 132.749 216.208C125.856 214.586 123.21 222.81 117.583 223.253C116.255 223.471 114.829 223.373 113.56 222.936C112.299 222.525 111.18 221.527 111.548 220.292C111.804 219.034 112.816 218.198 114.11 218.068C115.438 217.835 116.588 218.36 118.321 218.005C122.561 215.978 123.812 211.179 126.226 207.787C127.396 206.153 128.966 204.82 130.745 203.859C130.788 203.836 130.821 203.796 130.835 203.748C130.849 203.701 130.844 203.65 130.821 203.606C130.798 203.562 130.758 203.53 130.711 203.515C130.663 203.501 130.612 203.506 130.568 203.528C128.731 204.472 127.071 205.825 125.829 207.492C123.257 211.016 122 215.554 117.992 217.383C117.041 217.552 115.414 217.112 114.012 217.315C112.55 217.391 111.035 218.601 110.764 220.096C110.536 220.882 110.743 221.857 111.303 222.474C111.847 223.104 112.56 223.477 113.272 223.74C114.711 224.246 116.232 224.363 117.73 224.134C124.014 223.419 126.623 215.524 132.564 217.179C135.166 217.69 137.586 219.019 139.778 220.591C143.265 223.149 146.398 226.346 148.743 229.948C150.195 232.256 151.698 234.601 153.852 236.45C155.902 238.459 159.552 238.732 161.876 237.061C162.933 236.488 164.074 235.125 163.614 233.707C163.225 232.39 162.29 231.503 161.391 230.702C159.534 229.129 157.443 227.951 155.309 226.889C151.755 225.376 150.365 221.479 148.168 218.36C147.012 216.655 145.712 215.061 144.294 213.566Z" fill="#6C772B"/>
<path d="M130.34 183.732C130.347 183.685 130.337 183.635 130.31 183.595C130.283 183.554 130.241 183.526 130.194 183.516C130.147 183.506 130.097 183.515 130.056 183.541C130.015 183.567 129.985 183.609 129.973 183.655C129.973 183.655 129.973 183.655 129.973 183.655C129.876 184.012 129.786 184.352 129.695 184.707C128.884 187.858 128.263 191.075 127.976 194.336C127.68 197.596 127.742 200.866 127.91 204.109C127.928 204.473 127.948 204.828 127.969 205.194C127.972 205.242 127.992 205.288 128.027 205.323C128.061 205.357 128.108 205.376 128.156 205.376C128.205 205.376 128.251 205.357 128.286 205.323C128.321 205.288 128.341 205.242 128.344 205.194C128.365 204.828 128.384 204.473 128.403 204.11C128.573 200.864 128.681 197.632 128.972 194.424C129.255 191.214 129.7 188.014 130.179 184.805C130.233 184.444 130.284 184.097 130.34 183.732Z" fill="#6C772B"/>
<path d="M149.047 156.542C149.007 156.571 148.98 156.615 148.972 156.664C148.964 156.713 148.976 156.763 149.005 156.803C149.034 156.843 149.077 156.87 149.126 156.878C149.175 156.886 149.225 156.875 149.266 156.846C149.266 156.846 149.266 156.846 149.266 156.846C151.761 155.078 154.245 153.337 156.824 151.729C164.535 146.467 173.944 144.877 183.156 145.083C186.735 145.112 190.343 145.554 193.769 146.549C197.002 147.542 201.095 149.247 201.196 152.694C201.195 153.365 201.193 154.023 201.192 154.694C201.446 158.581 197.607 160.908 195.142 163.832C192.481 166.682 190.03 169.741 187.752 172.903C186.327 174.881 184.626 176.658 182.76 178.24C174.026 185.445 162.71 189.016 151.603 190.741C151.06 190.804 151.163 191.708 151.707 191.647C161.783 190.68 172.064 190.126 182.102 191.532C187.777 192.483 193.332 194.406 198.47 197.034C200.16 198.004 202.383 199.014 202.949 200.694C202.929 201.548 201.926 202.161 201.09 202.518C201.044 202.536 201.007 202.571 200.986 202.616C200.966 202.662 200.964 202.713 200.981 202.759C200.999 202.806 201.034 202.843 201.079 202.864C201.124 202.885 201.176 202.886 201.222 202.869C201.222 202.869 201.222 202.869 201.222 202.869C202.124 202.47 203.256 201.943 203.364 200.694C202.602 198.408 200.419 197.678 198.704 196.599C193.531 193.875 187.984 191.882 182.21 190.855C172.055 189.335 161.764 189.819 151.606 190.741L151.709 191.647C163.009 189.945 174.411 186.405 183.406 179.003C185.326 177.376 187.083 175.539 188.56 173.485C190.816 170.346 193.233 167.319 195.855 164.493C198.201 161.629 202.342 159.202 202.121 154.694C202.119 154.023 202.118 153.365 202.116 152.694C201.822 148.294 197.296 146.774 194.009 145.726C190.472 144.725 186.809 144.305 183.156 144.305C173.916 144.16 164.245 145.909 156.56 151.311C153.985 152.962 151.52 154.738 149.047 156.542Z" fill="#6C772B"/>
<path d="M169.156 194.506C169.107 194.507 169.06 194.527 169.025 194.562C168.99 194.597 168.971 194.644 168.971 194.693C168.971 194.743 168.99 194.79 169.025 194.825C169.06 194.86 169.107 194.88 169.156 194.881C169.156 194.881 169.156 194.881 169.156 194.881C170.169 194.902 171.155 194.941 172.162 194.999C181.119 195.553 190.126 197.42 198.156 201.309C199.287 201.878 200.376 202.486 201.402 203.206C201.898 203.557 202.399 203.951 202.797 204.369C202.997 204.581 203.174 204.801 203.279 205.015C203.327 205.112 203.354 205.216 203.353 205.262C203.35 205.315 203.352 205.312 203.317 205.354C201.126 207.248 197.419 205.943 194.362 205.469C191.185 204.848 187.938 204.296 184.667 204.32C183.656 204.326 182.643 204.385 181.638 204.507C181.589 204.513 181.544 204.537 181.513 204.576C181.481 204.614 181.467 204.663 181.472 204.712C181.477 204.761 181.501 204.806 181.539 204.837C181.577 204.869 181.626 204.884 181.675 204.88C181.675 204.88 181.675 204.88 181.675 204.88C182.67 204.801 183.667 204.783 184.661 204.814C187.876 204.91 191.046 205.548 194.203 206.244C197.285 206.707 200.823 208.466 203.996 206.033C204.201 205.835 204.321 205.541 204.317 205.26C204.318 205.008 204.235 204.769 204.153 204.598C203.97 204.221 203.746 203.958 203.509 203.7C203.039 203.2 202.502 202.777 201.975 202.399C200.889 201.629 199.767 201 198.604 200.415C190.376 196.432 181.217 194.727 172.181 194.506C171.166 194.485 170.174 194.485 169.156 194.506Z" fill="#6C772B"/>
<path d="M155.192 196.51C155.144 196.501 155.093 196.512 155.052 196.539C155.011 196.567 154.983 196.61 154.974 196.658C154.964 196.707 154.974 196.757 155.002 196.798C155.029 196.839 155.072 196.868 155.12 196.878C155.12 196.878 155.12 196.878 155.12 196.878C156.364 197.142 157.596 197.418 158.816 197.707C163.946 198.925 169.008 200.372 173.94 202.206C176.38 203.12 178.83 204.141 181.126 205.35C182.272 205.959 183.41 206.625 184.407 207.4C185.356 208.115 186.461 209.343 185.804 209.841C185.398 210.247 184.596 210.404 183.826 210.445C172.725 209.661 161.975 204.835 150.911 202.307C149.673 202.011 148.43 201.736 147.193 201.51C147.144 201.501 147.094 201.511 147.053 201.539C147.012 201.566 146.984 201.609 146.974 201.657C146.964 201.706 146.974 201.756 147.001 201.797C147.029 201.838 147.071 201.867 147.119 201.878C147.119 201.878 147.119 201.878 147.119 201.878C148.339 202.143 149.566 202.454 150.789 202.785C161.785 205.627 172.184 210.608 183.881 211.444C184.744 211.377 185.707 211.294 186.509 210.546C186.835 210.239 187.049 209.718 186.985 209.247C186.931 208.78 186.728 208.423 186.517 208.116C186.077 207.501 185.555 207.053 185.01 206.625C183.928 205.795 182.75 205.121 181.567 204.505C179.203 203.288 176.711 202.287 174.232 201.403C169.225 199.631 164.104 198.295 158.923 197.225C157.691 196.972 156.447 196.733 155.192 196.51Z" fill="#6C772B"/>
<path d="M128.138 198.247C128.152 198.251 128.168 198.25 128.181 198.243C128.194 198.236 128.203 198.225 128.208 198.211C128.212 198.197 128.211 198.182 128.205 198.169C128.199 198.156 128.187 198.146 128.174 198.14C128.174 198.14 128.174 198.14 128.174 198.14C127.996 198.068 127.808 197.996 127.626 197.931C126.889 197.666 126.13 197.455 125.367 197.286C122.689 196.701 119.968 196.367 117.241 196.173C117.05 196.16 116.846 196.147 116.66 196.138C116.646 196.137 116.631 196.142 116.62 196.152C116.609 196.161 116.602 196.175 116.601 196.19C116.6 196.205 116.605 196.219 116.614 196.23C116.624 196.242 116.638 196.249 116.652 196.25C116.652 196.25 116.652 196.25 116.652 196.25C116.836 196.268 117.04 196.289 117.229 196.309C119.941 196.611 122.644 196.998 125.302 197.579C126.06 197.747 126.819 197.917 127.574 198.103C127.76 198.149 127.953 198.199 128.138 198.247Z" fill="#6C772B"/>
<path d="M145.156 57.1938C146.892 57.1938 148.505 57.5616 149.851 58.1919C150.362 59.075 150.656 60.0999 150.656 61.1938C150.656 64.5076 147.97 67.1938 144.656 67.1938C141.343 67.1938 138.656 64.5076 138.656 61.1938C138.656 60.4225 138.803 59.6857 139.068 59.0083C140.612 57.8897 142.769 57.1938 145.156 57.1938Z" fill="#A98C4A"/>
<path d="M119.7 65.4758C121.207 65.0047 122.711 64.862 124.082 65.0029C125.123 65.7271 125.944 66.785 126.363 68.0849C127.379 71.2389 125.645 74.6196 122.491 75.6356C119.337 76.6516 115.957 74.9183 114.941 71.7643C114.601 70.7111 114.569 69.6324 114.793 68.6251C115.937 67.2627 117.642 66.1192 119.7 65.4758Z" fill="#A98C4A"/>
<circle cx="144.656" cy="61.1938" r="4" fill="black"/>
<circle cx="120.651" cy="69.9246" r="4" transform="rotate(-17.8556 120.651 69.9246)" fill="black"/>
<path d="M133.368 64.5091C133.316 64.5881 133.29 64.6836 133.301 64.779C133.311 64.8744 133.357 64.9612 133.429 65.0214C133.502 65.0816 133.595 65.1111 133.691 65.1043C133.787 65.0976 133.876 65.0546 133.944 64.9892C133.944 64.9892 133.944 64.9892 133.944 64.9892C134.212 64.7325 134.479 64.4763 134.746 64.2207C137.145 61.9466 139.529 59.6053 142.294 58.4013C145.032 57.1332 148.178 57.754 150.985 59.4179C151.303 59.6007 151.601 59.7796 151.92 59.9846C151.999 60.0356 152.095 60.0607 152.191 60.0488C152.286 60.0371 152.372 59.9901 152.431 59.9171C152.491 59.8441 152.519 59.7501 152.511 59.6545C152.503 59.5588 152.459 59.4701 152.393 59.4026C152.393 59.4026 152.393 59.4026 152.393 59.4026C152.116 59.124 151.853 58.8722 151.561 58.616C149.127 56.3027 144.947 54.9264 141.509 56.5619C138.127 58.0662 135.912 60.8563 133.995 63.5804C133.782 63.8881 133.574 64.1975 133.368 64.5091Z" fill="#6C772B"/>
<path d="M105.365 76.958C105.311 77.0373 105.286 77.1338 105.297 77.2298C105.309 77.3257 105.357 77.4128 105.43 77.4726C105.504 77.5324 105.599 77.5608 105.696 77.5522C105.792 77.5437 105.881 77.4984 105.947 77.4299C105.947 77.4299 105.947 77.4299 105.947 77.4299C106.275 77.0912 106.593 76.7651 106.916 76.4341C109.827 73.4743 112.695 70.4803 115.966 68.2159C119.195 65.9055 123.117 64.9506 127.089 66.0045C127.531 66.11 127.96 66.2278 128.404 66.3652C128.495 66.3934 128.595 66.3905 128.683 66.3519C128.772 66.3132 128.842 66.2428 128.878 66.1549C128.914 66.067 128.914 65.9678 128.878 65.878C128.843 65.7881 128.774 65.7158 128.689 65.6716C128.689 65.6716 128.689 65.6716 128.689 65.6716C128.262 65.4508 127.84 65.2513 127.397 65.0663C123.483 63.2231 118.337 63.9676 114.84 66.5636C111.245 69.0621 108.574 72.3905 106.155 75.8044C105.888 76.1863 105.629 76.5649 105.365 76.958Z" fill="#6C772B"/>
<circle cx="117.988" cy="69.1245" r="1.5" fill="white"/>
<circle cx="141.988" cy="61.1245" r="1.5" fill="white"/>
<path d="M137.988 81.1246C138.23 81.0756 138.488 81.0174 138.731 80.9639C140.946 80.4771 143.05 79.8193 145.067 79.1049C145.622 78.9107 146.178 78.7126 146.717 78.5347C148.144 78.069 149.663 77.6718 151.25 77.291C151.496 77.2336 151.74 77.1762 151.988 77.1248C151.747 77.0431 151.503 76.9736 151.254 76.911C149.64 76.5105 147.945 76.4083 146.26 76.7147C145.62 76.8333 145.001 77.0094 144.406 77.2173C142.251 77.9813 140.314 79.1619 138.562 80.6233C138.371 80.7849 138.169 80.9569 137.988 81.1246Z" fill="#CDCC62"/>
<path d="M103.045 45.8405C101.522 43.9085 102.541 39.9771 102.541 39.9771C102.541 39.9771 106.415 40.6438 107.662 42.9902C108.656 44.8614 107.657 48.2158 107.657 48.2158C107.657 48.2158 104.246 47.3628 103.045 45.8405Z" fill="#496A3F"/>
<path d="M114.989 37.0381C113.499 34.0142 115.989 29.0381 115.989 29.0381C115.989 29.0381 120.988 31.0381 121.988 34.5381C122.786 37.3292 120.489 41.5381 120.489 41.5381C120.489 41.5381 116.162 39.4207 114.989 37.0381Z" fill="#7F2C2A"/>
<path d="M98.1296 50.5564C96.9822 49.6098 97.0818 47.1564 97.0818 47.1564C97.0818 47.1564 99.4558 47.0548 100.493 48.2816C101.319 49.26 101.158 51.3698 101.158 51.3698C101.158 51.3698 99.0336 51.3023 98.1296 50.5564Z" fill="#804C31"/>
<path d="M129.454 33.8369C128.807 31.4631 131.282 28.243 131.282 28.243C131.282 28.243 134.587 30.3706 134.817 33.0176C135.001 35.1285 132.77 37.8256 132.77 37.8256C132.77 37.8256 129.964 35.7073 129.454 33.8369Z" fill="#496A3F"/>
<defs>
<radialGradient id="paint0_radial_101_11631" cx="0" cy="0" r="1" gradientUnits="userSpaceOnUse" gradientTransform="translate(162.488 26.6245) rotate(109.154) scale(188.961 123.347)">
<stop offset="0.867346" stop-color="#AEB05C"/>
<stop offset="0.931321" stop-color="#A0A24F"/>
<stop offset="1" stop-color="#8A8C41"/>
</radialGradient>
</defs>
</svg>
