<svg width="198" height="68" viewBox="0 0 198 68" fill="none" xmlns="http://www.w3.org/2000/svg">
<g filter="url(#filter0_d_65_8136)">
<rect x="5" y="9.6001" width="188" height="50" rx="10" fill="#F9F2D6"/>
</g>
<path d="M31.1387 31.9614V44.6001H26.375V31.9263C26.375 30.1099 25.9824 28.8442 25.1973 28.1294C24.4238 27.4028 23.1172 27.0396 21.2773 27.0396H13.9648V22.7856H21.5586C23.8672 22.7856 25.7188 23.0962 27.1133 23.7173C28.5195 24.3267 29.5391 25.3052 30.1719 26.6528C30.8164 27.9888 31.1387 29.7583 31.1387 31.9614ZM42.5469 34.0884V44.6001H37.8008V34.0532C37.8008 32.7876 38.041 31.7271 38.5215 30.8716C39.0137 30.0044 39.8281 29.3247 40.9648 28.8325L34.918 26.811V22.2056L46.6602 26.1606V30.7485L44.7441 30.1333C43.9355 30.5435 43.3789 31.0122 43.0742 31.5396C42.7227 32.1021 42.5469 32.9517 42.5469 34.0884ZM54.9746 22.7856V44.6001H50.2285V22.7856H54.9746ZM75.5938 32.5415C75.5938 30.5728 75.2188 29.1665 74.4688 28.3228C73.7188 27.4673 72.4062 27.0396 70.5312 27.0396H65.8379V44.6001H61.0918V22.7856H70.5312C74 22.7856 76.502 23.5063 78.0371 24.9478C79.584 26.3774 80.3574 28.7153 80.3574 31.9614V44.6001H75.5938V32.5415ZM93.8047 40.5396C96.6641 39.6021 98.9727 38.4185 100.73 36.9888C101.949 36.0161 102.881 34.9556 103.525 33.8071C104.17 32.647 104.492 31.4341 104.492 30.1685C104.492 28.0825 103.186 27.0396 100.572 27.0396H91.6426V15.3325H96.4941V22.7856H101.363C106.637 22.7856 109.273 25.0884 109.273 29.6938C109.273 31.897 108.752 33.9595 107.709 35.8813C106.678 37.7915 105.201 39.4966 103.279 40.9966C100.748 42.9653 97.5898 44.5122 93.8047 45.6372V40.5396ZM118.818 22.7856V44.6001H114.072V22.7856H118.818ZM127.713 22.7856C128.756 22.7856 129.623 22.8677 130.314 23.0317C131.018 23.1958 131.604 23.4829 132.072 23.8931C132.553 24.2915 132.969 24.8423 133.32 25.5454C133.59 26.0728 133.871 26.811 134.164 27.7603C134.457 28.6978 134.768 29.8462 135.096 31.2056L138.189 44.6001H133.461L131.703 36.7603C130.848 36.9829 130.244 37.2817 129.893 37.6567C129.541 38.0317 129.242 38.6235 128.996 39.4321C128.949 39.5962 128.873 39.8833 128.768 40.2935C128.674 40.6919 128.557 41.2075 128.416 41.8403L127.818 44.6001H122.984L123.705 41.436C123.916 40.4634 124.127 39.6255 124.338 38.9224C124.549 38.2075 124.766 37.6216 124.988 37.1646C125.422 36.2505 125.979 35.5239 126.658 34.9849C127.35 34.4341 128.299 33.9771 129.506 33.6138L130.912 33.1919C130.748 32.4067 130.584 31.7036 130.42 31.0825C130.256 30.4614 130.104 29.9282 129.963 29.4829C129.67 28.5806 129.33 27.9478 128.943 27.5845C128.557 27.2212 127.93 27.0396 127.062 27.0396H124.689V22.7856H127.713ZM155.205 31.9614V44.6001H150.441V31.9263C150.441 30.1099 150.049 28.8442 149.264 28.1294C148.49 27.4028 147.184 27.0396 145.344 27.0396H138.031V22.7856H145.625C147.934 22.7856 149.785 23.0962 151.18 23.7173C152.586 24.3267 153.605 25.3052 154.238 26.6528C154.883 27.9888 155.205 29.7583 155.205 31.9614ZM168.547 41.1196C168.078 42.3267 167.357 43.2114 166.385 43.7739C165.412 44.3247 164 44.6001 162.148 44.6001H160.953V40.3462H161.252C162.061 40.3462 162.705 40.1938 163.186 39.8892C163.654 39.5845 163.988 39.1216 164.188 38.5005C164.387 37.8677 164.486 36.9126 164.486 35.6353V27.0396H161.146V22.7856H173.381C176.756 22.7856 179.176 23.5005 180.641 24.9302C182.117 26.3481 182.855 28.7036 182.855 31.9966V44.6001H178.092V32.0669C178.092 30.1919 177.711 28.8853 176.949 28.147C176.188 27.4087 174.904 27.0396 173.1 27.0396H169.232V36.2505C169.232 38.2778 169.004 39.9009 168.547 41.1196Z" fill="#5F523F"/>
<defs>
<filter id="filter0_d_65_8136" x="-4.6" y="9.77516e-05" width="207.2" height="69.2" filterUnits="userSpaceOnUse" color-interpolation-filters="sRGB">
<feFlood flood-opacity="0" result="BackgroundImageFix"/>
<feColorMatrix in="SourceAlpha" type="matrix" values="0 0 0 0 0 0 0 0 0 0 0 0 0 0 0 0 0 0 127 0" result="hardAlpha"/>
<feMorphology radius="2" operator="dilate" in="SourceAlpha" result="effect1_dropShadow_65_8136"/>
<feOffset/>
<feGaussianBlur stdDeviation="3.8"/>
<feComposite in2="hardAlpha" operator="out"/>
<feColorMatrix type="matrix" values="0 0 0 0 0.423529 0 0 0 0 0.466667 0 0 0 0 0.168627 0 0 0 0.47 0"/>
<feBlend mode="normal" in2="BackgroundImageFix" result="effect1_dropShadow_65_8136"/>
<feBlend mode="normal" in="SourceGraphic" in2="effect1_dropShadow_65_8136" result="shape"/>
</filter>
</defs>
</svg>
