<svg width="178" height="70" viewBox="0 0 178 70" fill="none" xmlns="http://www.w3.org/2000/svg">
<g filter="url(#filter0_d_60_9985)">
<rect x="9.59961" y="9.6001" width="158" height="50" rx="10" fill="#F9F2D6"/>
</g>
<path d="M49.7578 31.9614V44.6001H44.9941V31.9263C44.9941 30.1333 44.6133 28.8735 43.8516 28.147C43.0898 27.4087 41.7656 27.0396 39.8789 27.0396H30.9668V22.7856H40.1777C42.4863 22.7856 44.3379 23.0962 45.7324 23.7173C47.1387 24.3384 48.1582 25.3228 48.791 26.6704C49.4355 28.0063 49.7578 29.77 49.7578 31.9614ZM36.0645 31.3462V44.6001H31.3184V31.3462H36.0645ZM55.3125 40.5396C58.1719 39.6021 60.4805 38.4185 62.2383 36.9888C63.457 36.0161 64.3887 34.9556 65.0332 33.8071C65.6777 32.647 66 31.4341 66 30.1685C66 28.0825 64.6934 27.0396 62.0801 27.0396H53.1504V15.3325H58.002V22.7856H62.8711C68.1445 22.7856 70.7812 25.0884 70.7812 29.6938C70.7812 31.897 70.2598 33.9595 69.2168 35.8813C68.1855 37.7915 66.709 39.4966 64.7871 40.9966C62.2559 42.9653 59.0977 44.5122 55.3125 45.6372V40.5396ZM90.7852 32.5415C90.7852 30.5728 90.4102 29.1665 89.6602 28.3228C88.9102 27.4673 87.5977 27.0396 85.7227 27.0396H81.0293V44.6001H76.2832V22.7856H85.7227C89.1914 22.7856 91.6934 23.5063 93.2285 24.9478C94.7754 26.3774 95.5488 28.7153 95.5488 31.9614V44.6001H90.7852V32.5415ZM107.098 41.1196C106.629 42.3267 105.908 43.2114 104.936 43.7739C103.963 44.3247 102.551 44.6001 100.699 44.6001H99.5039V40.3462H99.8027C100.611 40.3462 101.256 40.1938 101.736 39.8892C102.205 39.5845 102.539 39.1216 102.738 38.5005C102.938 37.8677 103.037 36.9126 103.037 35.6353V27.0396H99.6973V22.7856H111.932C115.307 22.7856 117.727 23.5005 119.191 24.9302C120.668 26.3481 121.406 28.7036 121.406 31.9966V44.6001H116.643V32.0669C116.643 30.1919 116.262 28.8853 115.5 28.147C114.738 27.4087 113.455 27.0396 111.65 27.0396H107.783V36.2505C107.783 38.2778 107.555 39.9009 107.098 41.1196ZM145.734 31.9614V44.6001H140.971V31.9263C140.971 30.1333 140.59 28.8735 139.828 28.147C139.066 27.4087 137.742 27.0396 135.855 27.0396H126.943V22.7856H136.154C138.463 22.7856 140.314 23.0962 141.709 23.7173C143.115 24.3384 144.135 25.3228 144.768 26.6704C145.412 28.0063 145.734 29.77 145.734 31.9614ZM132.041 31.3462V44.6001H127.295V31.3462H132.041Z" fill="#5F523F"/>
<defs>
<filter id="filter0_d_60_9985" x="-0.00039053" y="9.77516e-05" width="177.2" height="69.2" filterUnits="userSpaceOnUse" color-interpolation-filters="sRGB">
<feFlood flood-opacity="0" result="BackgroundImageFix"/>
<feColorMatrix in="SourceAlpha" type="matrix" values="0 0 0 0 0 0 0 0 0 0 0 0 0 0 0 0 0 0 127 0" result="hardAlpha"/>
<feMorphology radius="2" operator="dilate" in="SourceAlpha" result="effect1_dropShadow_60_9985"/>
<feOffset/>
<feGaussianBlur stdDeviation="3.8"/>
<feComposite in2="hardAlpha" operator="out"/>
<feColorMatrix type="matrix" values="0 0 0 0 0.423529 0 0 0 0 0.466667 0 0 0 0 0.168627 0 0 0 0.47 0"/>
<feBlend mode="normal" in2="BackgroundImageFix" result="effect1_dropShadow_60_9985"/>
<feBlend mode="normal" in="SourceGraphic" in2="effect1_dropShadow_60_9985" result="shape"/>
</filter>
</defs>
</svg>
