<svg width="380" height="52" viewBox="0 0 380 52" fill="none" xmlns="http://www.w3.org/2000/svg">
<path d="M0 19C0 8.50659 8.50659 0 19 0H361C371.493 0 380 8.50659 380 19V33C380 43.4934 371.493 52 361 52H19C8.50659 52 0 43.4934 0 33V19Z" fill="#D56969" fill-opacity="0.48"/>
<path d="M139.32 16.5455L139.15 29.0909H137.173L137.002 16.5455H139.32ZM138.161 34.1364C137.741 34.1364 137.38 33.9858 137.079 33.6847C136.778 33.3835 136.627 33.0227 136.627 32.6023C136.627 32.1818 136.778 31.821 137.079 31.5199C137.38 31.2187 137.741 31.0682 138.161 31.0682C138.582 31.0682 138.943 31.2187 139.244 31.5199C139.545 31.821 139.695 32.1818 139.695 32.6023C139.695 32.8807 139.624 33.1364 139.482 33.3693C139.346 33.6023 139.161 33.7898 138.928 33.9318C138.701 34.0682 138.445 34.1364 138.161 34.1364ZM145.695 19.6211V38.5117H143.539V19.6211H145.695ZM156.852 19.3867C158.742 19.3867 160.121 19.9648 160.988 21.1211C161.863 22.2695 162.301 24.0977 162.301 26.6055V34H155.246V32.0078H160.121V26.875C160.121 24.9609 159.875 23.5703 159.383 22.7031C158.891 21.8359 158.055 21.4023 156.875 21.4023C155.82 21.4023 154.953 21.8789 154.274 22.832C153.586 23.8008 152.957 25.4844 152.387 27.8828L150.922 34H148.602L150.207 27.707C150.387 26.9727 150.57 26.3086 150.758 25.7148C150.945 25.1211 151.129 24.5938 151.309 24.1328L148.379 19.6211H150.922L152.387 22C152.996 21.0781 153.649 20.4141 154.344 20.0078C155.039 19.5938 155.875 19.3867 156.852 19.3867ZM168.442 26.0547V34H166.285V26.1484C166.285 25.3203 166.442 24.6484 166.754 24.1328C167.074 23.6172 167.613 23.2344 168.371 22.9844L164.363 21.6367V19.4102L171.184 21.707V23.9453L169.906 23.5117C169.43 23.7695 169.11 23.9961 168.945 24.1914C168.61 24.582 168.442 25.2031 168.442 26.0547ZM185.293 25.5742V34H183.125V25.5508C183.125 24.1133 182.832 23.0977 182.246 22.5039C181.668 21.9102 180.664 21.6133 179.235 21.6133H173.774V19.6211H179.27C180.707 19.6211 181.867 19.8242 182.75 20.2305C183.633 20.6289 184.278 21.2656 184.684 22.1406C185.09 23.0078 185.293 24.1523 185.293 25.5742ZM176.164 24.6602V34H174.008V24.6602H176.164ZM204.852 25.5742V34H202.684V25.5508C202.684 24.1289 202.395 23.1172 201.817 22.5156C201.246 21.9141 200.242 21.6133 198.805 21.6133H194.41V19.6211H198.828C200.266 19.6211 201.426 19.8242 202.309 20.2305C203.192 20.6289 203.836 21.2656 204.242 22.1406C204.649 23.0078 204.852 24.1523 204.852 25.5742ZM215.891 19.3867C217.781 19.3867 219.16 19.9648 220.028 21.1211C220.903 22.2695 221.34 24.0977 221.34 26.6055V34H214.285V32.0078H219.16V26.875C219.16 24.9609 218.914 23.5703 218.422 22.7031C217.93 21.8359 217.094 21.4023 215.914 21.4023C214.86 21.4023 213.992 21.8789 213.313 22.832C212.625 23.8008 211.996 25.4844 211.426 27.8828L209.961 34H207.641L209.246 27.707C209.426 26.9727 209.61 26.3086 209.797 25.7148C209.985 25.1211 210.168 24.5938 210.348 24.1328L207.418 19.6211H209.961L211.426 22C212.035 21.0781 212.688 20.4141 213.383 20.0078C214.078 19.5938 214.914 19.3867 215.891 19.3867ZM226.32 19.6211C227 19.6211 227.555 19.6758 227.985 19.7852C228.422 19.8867 228.781 20.082 229.063 20.3711C229.344 20.6523 229.594 21.0664 229.813 21.6133C229.93 21.8867 230.067 22.3125 230.223 22.8906C230.379 23.4609 230.559 24.1875 230.762 25.0703L232.801 34H230.668L229.344 28.0938C228.688 28.2578 228.207 28.457 227.903 28.6914C227.606 28.9258 227.36 29.2734 227.164 29.7344C227.063 29.9609 226.965 30.2578 226.871 30.625C226.785 30.9844 226.699 31.4062 226.613 31.8906L226.227 34H224.012L224.422 31.8672C224.602 30.9375 224.781 30.1875 224.961 29.6172C225.149 29.0391 225.383 28.5703 225.664 28.2109C225.891 27.9141 226.168 27.6562 226.496 27.4375C226.824 27.2109 227.297 27.0078 227.914 26.8281L228.981 26.5117C228.785 25.6836 228.613 24.9922 228.465 24.4375C228.317 23.875 228.192 23.4492 228.09 23.1602C227.887 22.582 227.664 22.1797 227.422 21.9531C227.18 21.7266 226.836 21.6133 226.391 21.6133H224.809V19.6211H226.32ZM240.84 25.1875V34H234.266V32.0078H238.684V25.7969C238.684 24.5312 238.621 23.6367 238.496 23.1133C238.371 22.5742 238.153 22.1914 237.84 21.9648C237.535 21.7305 237.094 21.6133 236.516 21.6133H234.934V19.6211H236.445C237.695 19.6211 238.61 19.793 239.188 20.1367C239.766 20.4883 240.184 21.0625 240.442 21.8594C240.707 22.6484 240.84 23.7578 240.84 25.1875Z" fill="#5F523F"/>
</svg>
