<svg width="178" height="70" viewBox="0 0 178 70" fill="none" xmlns="http://www.w3.org/2000/svg">
<g filter="url(#filter0_d_101_11310)">
<rect x="9.59961" y="9.6001" width="158" height="50" rx="10" fill="#F9F2D6"/>
</g>
<path d="M59.3008 31.9614V44.6001H54.5371V31.9263C54.5371 30.1333 54.1562 28.8735 53.3945 28.147C52.6328 27.4087 51.3086 27.0396 49.4219 27.0396H40.5098V22.7856H49.7207C52.0293 22.7856 53.8809 23.0962 55.2754 23.7173C56.6816 24.3384 57.7012 25.3228 58.334 26.6704C58.9785 28.0063 59.3008 29.77 59.3008 31.9614ZM45.6074 31.3462V44.6001H40.8613V31.3462H45.6074ZM83.7344 30.0278C83.7344 32.2544 83.2832 34.3345 82.3809 36.2681C81.4785 38.2017 80.1543 39.936 78.4082 41.4712C76.6738 43.0063 74.5469 44.2896 72.0273 45.3208V40.2759C74.2305 39.2446 75.9297 37.8735 77.125 36.1626C78.332 34.4399 78.9355 32.5825 78.9355 30.5903C78.9355 29.2778 78.6074 28.3579 77.9512 27.8306C77.2949 27.3032 76.1465 27.0396 74.5059 27.0396H64.3281V22.7856H75.1914C78.168 22.7856 80.3359 23.354 81.6953 24.4907C83.0547 25.6157 83.7344 27.4614 83.7344 30.0278ZM69.9707 31.2056V51.3677H65.2246V31.2056H69.9707ZM93.5254 22.7856V34.3696H88.7793V22.7856H93.5254ZM113.863 27.0396V44.6001H109.117V27.0396H97.3047V22.7856H116.57V27.0396H113.863ZM139.316 40.3462V44.6001H118.979V40.3462H132.232V32.5767C132.232 30.5259 131.846 29.0903 131.072 28.27C130.311 27.4497 129.004 27.0396 127.152 27.0396H119.805V22.7856H127.223C130.645 22.7856 133.123 23.5005 134.658 24.9302C136.205 26.3599 136.979 28.7036 136.979 31.9614V40.3462H139.316Z" fill="#5F523F" fill-opacity="0.31"/>
<defs>
<filter id="filter0_d_101_11310" x="-0.00039053" y="9.77516e-05" width="177.2" height="69.2" filterUnits="userSpaceOnUse" color-interpolation-filters="sRGB">
<feFlood flood-opacity="0" result="BackgroundImageFix"/>
<feColorMatrix in="SourceAlpha" type="matrix" values="0 0 0 0 0 0 0 0 0 0 0 0 0 0 0 0 0 0 127 0" result="hardAlpha"/>
<feMorphology radius="2" operator="dilate" in="SourceAlpha" result="effect1_dropShadow_101_11310"/>
<feOffset/>
<feGaussianBlur stdDeviation="3.8"/>
<feComposite in2="hardAlpha" operator="out"/>
<feColorMatrix type="matrix" values="0 0 0 0 0.423529 0 0 0 0 0.466667 0 0 0 0 0.168627 0 0 0 0.47 0"/>
<feBlend mode="normal" in2="BackgroundImageFix" result="effect1_dropShadow_101_11310"/>
<feBlend mode="normal" in="SourceGraphic" in2="effect1_dropShadow_101_11310" result="shape"/>
</filter>
</defs>
</svg>
